<?xml version="1.0" encoding="UTF-8"?>
<svg width="128px" height="98px" viewBox="0 0 128 98" version="1.1" xmlns="http://www.w3.org/2000/svg" xmlns:xlink="http://www.w3.org/1999/xlink">
    <!-- Generator: Sketch 56.2 (81672) - https://sketch.com -->
    <title>feedback-icon</title>
    <desc>Created with Sketch.</desc>
    <g id="feedback-icon" stroke="none" stroke-width="1" fill="none" fill-rule="evenodd">
        <g transform="translate(0.750000, 0.750000)" fill="#646464">
            <path d="M41.25,39 C42.75,34.5 52.9589503,26.1148583 57.9634307,24.75 C59.8985957,24.2222277 61.4376244,24.3941818 60.2134307,25.5 C53.5711436,31.5 49.75,35.25 48.75,36.75 C46.8922871,39.25 45.4634307,41.5 44.4634307,43.5 C44.2317203,43.9634208 43.9865875,44.3060398 43.7280322,44.5278569 C43.6448479,44.6349577 43.5506548,44.7359504 43.4455488,44.829226 C43.4398578,44.8342765 43.4341409,44.8392978 43.4283984,44.8442897 C42.4905656,45.6595353 41.0694147,45.5601588 40.2541691,44.6223259 L34.4909815,37.992537 C33.8819058,37.2918756 33.9561507,36.2301239 34.6568122,35.6210482 C34.6653913,35.6135904 34.6740459,35.6062199 34.6827746,35.5989377 C35.4432009,34.9645275 36.5505584,34.9719072 37.3024619,35.6163959 L41.25,39 Z" id="Combined-Shape"></path>
            <path d="M17.25,0 L108,0 C113.384776,-9.89167361e-16 117.75,4.36522369 117.75,9.75 L117.75,69.75 C117.75,75.1347763 113.384776,79.5 108,79.5 L17.25,79.5 C11.8652237,79.5 7.5,75.1347763 7.5,69.75 L7.5,9.75 C7.5,4.36522369 11.8652237,-2.56354632e-15 17.25,0 Z M17.25,8.25 C16.4215729,8.25 15.75,8.92157288 15.75,9.75 L15.75,69.75 C15.75,70.5784271 16.4215729,71.25 17.25,71.25 L108.75,71.25 C109.578427,71.25 110.25,70.5784271 110.25,69.75 L110.25,9.75 C110.25,8.92157288 109.578427,8.25 108.75,8.25 L17.25,8.25 Z" id="Combined-Shape"></path>
            <path d="M49.4684148,25.5 C47.0813542,26.9670961 44.837463,28.7170961 42.7367414,30.75 L29.25,30.75 L29.25,50.25 L48.75,50.25 L48.75,42.9834696 C50.3677127,40.2638987 52.1177127,38.0974142 54,36.4840162 L54,52.5 C54,54.1568542 52.6568542,55.5 51,55.5 L27,55.5 C25.3431458,55.5 24,54.1568542 24,52.5 L24,28.5 C24,26.8431458 25.3431458,25.5 27,25.5 L49.4684148,25.5 Z" id="Combined-Shape"></path>
            <rect id="Rectangle" x="63.75" y="26.25" width="33.75" height="6" rx="3"></rect>
            <rect id="Rectangle-Copy" x="63.75" y="37.5" width="25.5" height="6" rx="3"></rect>
            <rect id="Rectangle-Copy-2" x="63.75" y="48.75" width="18.75" height="6" rx="3"></rect>
            <path d="M126,84 L126,91.5 C126,94.3994949 123.649495,96.75 120.75,96.75 L5.25,96.75 C2.35050506,96.75 0,94.3994949 0,91.5 L0,84 L0,84" id="Path"></path>
        </g>
    </g>
</svg>