<?xml version="1.0" encoding="UTF-8"?>
<svg width="615px" height="144px" viewBox="0 0 615 144" version="1.1" xmlns="http://www.w3.org/2000/svg" xmlns:xlink="http://www.w3.org/1999/xlink">
    <!-- Generator: Sketch 56.2 (81672) - https://sketch.com -->
    <title>statistics</title>
    <desc>Created with Sketch.</desc>
    <g id="statistics" stroke="none" stroke-width="1" fill="none" fill-rule="evenodd">
        <g id="Statistics" transform="translate(72.000000, 24.000000)" stroke="#646464" stroke-width="4">
            <g id="Chart-bar" transform="translate(0.000000, 20.000000)">
                <rect id="Rectangle" x="162" y="16" width="26" height="80"></rect>
                <path d="M130,40 L130,96 L156,96 L156,40 L130,40 Z" id="Rectangle"></path>
                <path d="M98,2 L98,96 L124,96 L124,2 L98,2 Z" id="Rectangle-Copy"></path>
                <path d="M66,76 L66,96 L92,96 L92,76 L66,76 Z" id="Rectangle"></path>
                <path d="M34,30 L34,96 L60,96 L60,30 L34,30 Z" id="Rectangle"></path>
                <rect id="Rectangle" x="2" y="53" width="26" height="43"></rect>
            </g>
            <g id="Venn-Diagram" transform="translate(222.000000, 0.000000)">
                <path d="M64.5,87 C88.5243866,87 108,67.5243866 108,43.5 C108,31.6433214 103.25635,20.8945816 95.5633713,13.0481014 C87.668587,4.995789 76.667708,0 64.5,0 C40.4756134,0 21,19.4756134 21,43.5 C21,67.5243866 40.4756134,87 64.5,87 Z" id="Oval-6-Copy"></path>
                <path d="M43.5,118 C67.5243866,118 87,98.5243866 87,74.5 C87,62.6433214 82.2563502,51.8945816 74.5633713,44.0481014 C66.668587,35.995789 55.667708,31 43.5,31 C19.4756134,31 0,50.4756134 0,74.5 C0,98.5243866 19.4756134,118 43.5,118 Z" id="Oval-6-Copy-2"></path>
                <path d="M86.5,118 C110.524387,118 130,98.5243866 130,74.5 C130,62.6433214 125.25635,51.8945816 117.563371,44.0481014 C109.668587,35.995789 98.667708,31 86.5,31 C62.4756134,31 43,50.4756134 43,74.5 C43,98.5243866 62.4756134,118 86.5,118 Z" id="Oval-6-Copy-3"></path>
            </g>
            <g id="Pie-chart" transform="translate(384.000000, 30.000000)">
                <circle id="Oval-6" cx="44" cy="44" r="44"></circle>
                <polyline id="Line-5" stroke-linecap="square" points="41 48 43.8144919 50.9083083 71 79"></polyline>
                <path d="M20,8 L40,46" id="Line-4" stroke-linecap="square"></path>
                <path d="M41,48 L71,10" id="Line-3" stroke-linecap="square"></path>
            </g>
        </g>
    </g>
</svg>