<?xml version="1.0" encoding="UTF-8"?>
<svg width="415px" height="73px" viewBox="0 0 415 73" version="1.1" xmlns="http://www.w3.org/2000/svg" xmlns:xlink="http://www.w3.org/1999/xlink">
    <!-- Generator: Sketch 56.2 (81672) - https://sketch.com -->
    <title>logo-glygen-blue 64</title>
    <desc>Created with Sketch.</desc>
    <g id="logo-glygen-blue-64" stroke="none" stroke-width="1" fill="none" fill-rule="evenodd">
        <g fill="#2E78B7">
            <text id="GlyGen" font-family="Georgia-Bold, Georgia" font-size="64" font-weight="bold" letter-spacing="6">
                <tspan x="0" y="59">GlyGe</tspan>
                <tspan x="227.90625" y="59">n</tspan>
            </text>
            <g id="Group" transform="translate(309.000000, 14.000000)" fill-rule="nonzero">
                <path d="M80.1037653,27.7408177 L27.2912814,13.1061195 C25.8962347,12.6938745 24.5011879,13.5183645 24.1026031,14.9612221 L24.1026031,14.9612221 C23.7040183,16.4040797 24.5011879,17.8469373 25.8962347,18.2591823 L78.7087186,32.8938805 C80.1037653,33.3061255 81.4988121,32.4816355 81.8973969,31.0387779 C82.2959817,29.5959203 81.4988121,28.1530627 80.1037653,27.7408177 Z" id="Shape"></path>
                <path d="M105.144379,0.620333124 C104.146514,-0.348516388 102.549929,-0.154746486 101.552063,1.00787293 L86.1849319,18.834704 L34.2959178,5.27081078 C32.8989058,4.88327098 31.5018939,5.65835059 31.1027477,7.0147399 C30.7036014,8.37112922 31.5018939,9.72751854 32.8989058,10.1150583 L85.7857856,23.8727214 C86.5840782,24.0664913 87.5819438,24.0664913 88.1806632,23.6789515 C88.5798095,23.4851816 88.9789557,23.0976418 89.378102,22.710102 L105.343952,4.30196127 C106.341818,2.94557195 106.142245,1.39541273 105.144379,0.620333124 Z" id="Shape"></path>
                <path d="M72.9768893,35.9979576 L20.1674894,22.1283146 C19.3703664,21.9329675 18.3739626,21.9329675 17.7761204,22.3236616 C17.3775589,22.5190087 16.9789974,22.9097029 16.5804359,23.3003971 L0.637975513,41.8583702 C-0.358428259,42.8351056 -0.159147504,44.3978823 1.03653702,45.3746177 C2.03294079,46.3513531 3.62718683,46.156006 4.6235906,44.9839235 L19.9682087,27.0119917 L71.7812048,40.6862877 C73.1761701,41.0769818 74.5711354,40.2955935 74.9696969,38.9281639 C75.1689776,37.7560814 74.3718546,36.3886518 72.9768893,35.9979576 Z" id="Shape"></path>
            </g>
        </g>
    </g>
</svg>