<?xml version="1.0" encoding="UTF-8"?>
<svg width="455px" height="82px" viewBox="0 0 455 82" version="1.1" xmlns="http://www.w3.org/2000/svg" xmlns:xlink="http://www.w3.org/1999/xlink">
    <!-- Generator: Sketch 56.2 (81672) - https://sketch.com -->
    <title>logo-glygen-blue 72</title>
    <desc>Created with Sketch.</desc>
    <g id="logo-glygen-blue-72" stroke="none" stroke-width="1" fill="none" fill-rule="evenodd">
        <g fill="#2E78B7">
            <text id="GlyGen" font-family="Georgia-Bold, Georgia" font-size="72" font-weight="bold" letter-spacing="6">
                <tspan x="0" y="66">GlyGe</tspan>
                <tspan x="252.644531" y="66">n</tspan>
            </text>
            <g id="Group" transform="translate(343.000000, 17.000000)" fill-rule="nonzero">
                <path d="M84.0056842,29.4778586 L28.4615201,14.1114255 C26.9943158,13.6785682 25.5271114,14.5442828 25.1079102,16.0592832 L25.1079102,16.0592832 C24.688709,17.5742837 25.5271114,19.0892841 26.9943158,19.5221414 L82.5384799,34.8885745 C84.0056842,35.3214318 85.4728886,34.4557172 85.8920898,32.9407168 C86.311291,31.4257163 85.4728886,29.9107159 84.0056842,29.4778586 Z" id="Shape"></path>
                <path d="M111.098746,0.672027551 C110.047661,-0.377559421 108.365925,-0.167642026 107.31484,1.09186234 L91.1281283,20.4042626 L36.4717,5.71004501 C35.0001808,5.29021023 33.5286616,6.1298798 33.1082275,7.59930156 C32.6877935,9.06872332 33.5286616,10.5381451 35.0001808,10.9579799 L90.7076942,25.8621149 C91.5485623,26.0720323 92.5996475,26.0720323 93.2302986,25.6521975 C93.6507326,25.4422801 94.0711667,25.0224453 94.4916008,24.6026105 L111.308963,4.66045804 C112.360048,3.19103628 112.149831,1.51169713 111.098746,0.672027551 Z" id="Shape"></path>
                <path d="M76.8689901,38.1644541 L21.2430889,23.1390074 C20.4034526,22.9273814 19.3539073,22.9273814 18.7241801,23.3506335 C18.304362,23.5622595 17.8845439,23.9855115 17.4647258,24.4087635 L0.672000873,44.5132343 C-0.377544433,45.5713644 -0.167635371,47.2643725 1.091819,48.3225025 C2.1413643,49.3806326 3.82063679,49.1690065 4.8701821,47.8992505 L21.0331798,28.4296577 L75.6095357,43.2434783 C77.0788991,43.6667303 78.5482626,42.8202263 78.9680807,41.3388442 C79.1779898,40.0690882 78.3383535,38.5877061 76.8689901,38.1644541 Z" id="Shape"></path>
            </g>
        </g>
    </g>
</svg>