<?xml version="1.0" standalone="no"?>
<!DOCTYPE svg PUBLIC "-//W3C//DTD SVG 20010904//EN"
 "http://www.w3.org/TR/2001/REC-SVG-20010904/DTD/svg10.dtd">
<svg version="1.0" xmlns="http://www.w3.org/2000/svg"
 width="700.000000pt" height="700.000000pt" viewBox="0 0 700.000000 700.000000"
 preserveAspectRatio="xMidYMid meet">
<metadata>
Created by potrace 1.11, written by Peter Selinger 2001-2013
</metadata>
<g transform="translate(0.000000,700.000000) scale(0.100000,-0.100000)"
fill="#000000" stroke="none">
<path d="M6727 5087 c-37 -9 -75 -40 -127 -102 -141 -170 -226 -271 -230 -275
-3 -3 -15 -17 -26 -32 -12 -15 -41 -51 -66 -80 -26 -29 -85 -100 -133 -158
-48 -58 -104 -125 -124 -150 -21 -25 -89 -106 -150 -180 -62 -74 -131 -157
-154 -184 -23 -27 -46 -55 -50 -62 -12 -21 -30 -18 -249 42 -111 30 -246 66
-298 80 -52 14 -124 33 -160 44 -36 10 -153 42 -260 70 -107 29 -260 70 -340
92 -223 61 -623 169 -644 173 -10 3 -33 9 -50 14 -17 6 -83 23 -146 40 -63 16
-241 64 -395 106 -154 42 -320 87 -370 100 -49 13 -139 37 -200 53 -60 17
-145 40 -187 51 -98 27 -133 26 -183 -2 -56 -31 -88 -95 -81 -161 6 -57 44
-112 90 -131 17 -7 168 -50 336 -94 168 -45 328 -88 355 -96 58 -17 273 -75
295 -80 23 -6 204 -54 590 -158 195 -53 400 -108 455 -122 55 -15 154 -41 220
-60 66 -18 275 -74 465 -125 190 -50 365 -97 390 -104 25 -7 83 -23 130 -36
47 -12 105 -28 130 -36 83 -25 146 -28 194 -10 52 20 89 58 296 306 85 102
157 187 160 190 3 3 50 59 105 125 54 66 104 125 110 131 5 6 26 30 45 54 19
24 49 60 67 79 17 20 106 126 197 235 166 199 186 232 186 303 0 101 -94 174
-193 150z"/>
<path d="M1694 4146 c-84 -37 -123 -161 -78 -247 15 -30 65 -75 91 -83 29 -9
374 -106 428 -121 28 -7 120 -33 205 -58 85 -24 164 -47 175 -50 11 -3 148
-42 305 -87 157 -45 371 -105 475 -135 105 -30 341 -97 525 -150 184 -53 342
-98 350 -100 8 -2 222 -62 475 -135 253 -72 480 -134 506 -137 171 -20 243
240 89 325 -19 11 -134 48 -255 82 -121 34 -233 66 -250 71 -35 11 -258 75
-330 94 -27 8 -320 91 -650 185 -330 94 -703 201 -830 236 -315 90 -494 141
-533 153 -18 5 -33 10 -35 10 -1 0 -9 2 -17 5 -8 2 -123 34 -255 71 -132 36
-250 71 -263 76 -33 13 -92 11 -128 -5z"/>
<path d="M1214 3434 c-53 -36 -53 -37 -275 -304 -107 -129 -276 -334 -377
-455 -101 -121 -200 -240 -220 -265 -20 -24 -74 -88 -118 -141 -125 -148 -144
-176 -144 -221 0 -55 21 -97 69 -140 35 -32 48 -38 87 -38 80 0 100 16 244
191 162 197 382 464 420 509 21 25 107 128 190 230 155 188 219 265 255 306
l20 23 90 -25 c107 -30 162 -45 270 -74 44 -12 121 -33 170 -47 50 -13 104
-28 120 -32 73 -20 384 -104 425 -116 25 -7 72 -20 105 -29 222 -61 327 -89
371 -101 29 -8 119 -32 200 -55 82 -22 201 -54 264 -71 63 -17 126 -35 140
-40 14 -5 34 -11 45 -13 27 -5 103 -25 140 -37 26 -8 386 -106 530 -144 132
-35 356 -97 405 -112 109 -33 180 -18 229 47 51 70 29 175 -48 225 -21 13
-124 47 -246 80 -115 31 -284 77 -375 102 -91 24 -320 87 -510 138 -190 51
-464 126 -610 165 -792 216 -926 252 -940 255 -8 2 -123 33 -255 69 -593 162
-605 165 -671 120z"/>
</g>
</svg>
