<?xml version="1.0" encoding="UTF-8"?>
<svg width="40px" height="40px" viewBox="0 0 40 40" version="1.1" xmlns="http://www.w3.org/2000/svg" xmlns:xlink="http://www.w3.org/1999/xlink">
    <!-- Generator: Sketch 56 (81588) - https://sketch.com -->
    <title>ajax</title>
    <desc>Created with Sketch.</desc>
    <g id="Media-page" stroke="none" stroke-width="1" fill="none" fill-rule="evenodd">
        <g id="ajax" fill="#000000" fill-rule="nonzero">
            <path d="M36.969697,0 L3.05827506,0 C1.37062937,0 0.027972028,1.2 0.027972028,2.67755102 L0.027972028,37.322449 C0.027972028,38.8 1.3986014,40 3.05827506,40 L29.9067599,40 L39.972028,31.1387755 L39.972028,31.1387755 L39.972028,2.67755102 C40,1.2 38.6247086,0 36.969697,0 Z M29.9067599,37.8734694 L29.9067599,32.3142857 C29.9067599,31.6653061 30.5081585,31.1387755 31.2214452,31.1387755 L37.5990676,31.1387755 L29.9067599,37.8734694 Z M38.2843823,29.6367347 L31.2214452,29.6367347 C29.5337995,29.6367347 28.1911422,30.8367347 28.1911422,32.3142857 L28.1911422,38.522449 L3.05827506,38.522449 C2.31701632,38.522449 1.74358974,37.9959184 1.74358974,37.3469388 L1.74358974,2.67755102 C1.74358974,2.02857143 2.34498834,1.50204082 3.05827506,1.50204082 L36.9370629,1.50204082 C37.6783217,1.50204082 38.2517483,2.02857143 38.2517483,2.67755102 L38.2517483,29.6367347 L38.2843823,29.6367347 Z" id="Shape"></path>
            <path d="M7.29137529,14.5183673 L4.28904429,22.755102 L6.20512821,22.755102 L6.86247086,20.6530612 L9.92074592,20.6530612 L10.5780886,22.755102 L12.5501166,22.755102 L9.51981352,14.5183673 L7.29137529,14.5183673 Z M7.26340326,19.3755102 L7.54778555,18.4734694 C7.83216783,17.6204082 8.12121212,16.6979592 8.34965035,15.7959184 L8.40559441,15.7959184 C8.68997669,16.6979592 8.95104895,17.6244898 9.23543124,18.4734694 L9.51981352,19.3755102 L7.26340326,19.3755102 L7.26340326,19.3755102 Z" id="Shape"></path>
            <path d="M16.6993007,19.9755102 C16.6993007,21.1020408 16.2703963,21.5020408 15.4405594,21.5020408 C14.8951049,21.5020408 14.4102564,21.2530612 14.041958,20.6489796 L12.7552448,21.4734694 C13.3846154,22.4244898 14.2983683,22.9265306 15.6736597,22.9265306 C17.7016317,22.9265306 18.5920746,21.6489796 18.5920746,20.122449 L18.5920746,14.5183673 L16.7039627,14.5183673 L16.7039627,19.9755102 L16.6993007,19.9755102 Z" id="Path"></path>
            <path d="M22.6433566,14.5183673 L19.6410256,22.755102 L21.5571096,22.755102 L22.2144522,20.6530612 L25.2727273,20.6530612 L25.9300699,22.755102 L27.9020979,22.755102 L24.8438228,14.5183673 L22.6433566,14.5183673 Z M22.6153846,19.3755102 L22.8997669,18.4734694 C23.1841492,17.6204082 23.4731935,16.6979592 23.7016317,15.7959184 L23.7296037,15.7959184 C24.013986,16.6979592 24.2750583,17.6244898 24.5594406,18.4734694 L24.8438228,19.3755102 L22.6153846,19.3755102 L22.6153846,19.3755102 Z" id="Shape"></path>
            <path d="M35.3939394,14.5183673 L33.4219114,14.5183673 L32.5361305,16.1959184 C32.3356643,16.5959184 32.1351981,16.9959184 31.9067599,17.4979592 L31.8508159,17.4979592 C31.5664336,16.9959184 31.3659674,16.5959184 31.1655012,16.1959184 L30.2237762,14.5183673 L28.1351981,14.5183673 L30.5920746,18.4979592 L27.962704,22.755102 L29.962704,22.755102 L30.965035,20.9265306 C31.1934732,20.5020408 31.4219114,20.0734694 31.6503497,19.5755102 L31.7062937,19.5755102 C31.990676,20.077551 32.1911422,20.5020408 32.4475524,20.9265306 L33.5058275,22.755102 L35.5944056,22.755102 L32.965035,18.6 L35.3939394,14.5183673 Z" id="Path"></path>
        </g>
    </g>
</svg>