<?xml version="1.0" encoding="UTF-8"?>
<svg width="40px" height="40px" viewBox="0 0 40 40" version="1.1" xmlns="http://www.w3.org/2000/svg" xmlns:xlink="http://www.w3.org/1999/xlink">
    <!-- Generator: Sketch 55.2 (78181) - https://sketchapp.com -->
    <title>d3-js</title>
    <desc>Created with Sketch.</desc>
    <g id="Media-page" stroke="none" stroke-width="1" fill="none" fill-rule="evenodd">
        <g id="d3-js" fill="#000000" fill-rule="nonzero">
            <path d="M0,-1.26332278e-15 L3.21977565,-1.26332278e-15 C13.6597242,-1.26332278e-15 22.1229747,8.94840496 22.1229747,19.9868219 C22.1229747,31.0252388 13.6597242,39.9736438 3.21977565,39.9736438 L0,39.9736438 L0,31.1882275 L3.21977565,31.1882275 C9.07073582,31.1882275 13.8138762,26.1731874 13.8138762,19.9868219 C13.8138762,13.8004563 9.07073582,8.78541621 3.21977565,8.78541621 L0,8.78541621 L0,-1.26332278e-15 Z M15.0606564,-1.19214638e-14 L28.355214,-1.19214638e-14 C32.8271638,-1.19214638e-14 36.8957384,2.73426315 38.7939951,7.01544403 C40.6922519,11.2966249 40.0777193,16.3522934 37.2172829,19.9868219 C40.0777193,23.6213503 40.6922519,28.6770188 38.7939951,32.9581997 C36.8957384,37.2393806 32.8271638,39.9736438 28.355214,39.9736438 L15.0606564,39.9736438 C18.3319893,37.8070435 21.015552,34.7799049 22.8489406,31.1882275 L28.3547985,31.1882275 C29.5051136,31.1882276 30.5680485,30.5393624 31.1432061,29.4860532 C31.7183636,28.432744 31.7183636,27.1350135 31.1432061,26.0817043 C30.5680485,25.0283951 29.5051136,24.3795299 28.3547985,24.37953 L25.1350229,24.37953 C25.6554499,21.4769064 25.6554499,18.4967373 25.1350229,15.5941138 L28.3547985,15.5941138 C29.5051136,15.5941138 30.5680485,14.9452486 31.1432061,13.8919394 C31.7183636,12.8386302 31.7183636,11.5408998 31.1432061,10.4875906 C30.5680485,9.43428139 29.5051136,8.78541618 28.3547985,8.78541621 L22.8489406,8.78541621 C21.015552,5.19373884 18.3319893,2.16660023 15.0606564,-1.19214638e-14 L15.0606564,-1.19214638e-14 Z" id="Shape"></path>
        </g>
    </g>
</svg>