<?xml version="1.0" encoding="UTF-8"?>
<svg width="38px" height="38px" viewBox="0 0 38 38" version="1.1" xmlns="http://www.w3.org/2000/svg" xmlns:xlink="http://www.w3.org/1999/xlink">
    <!-- Generator: Sketch 63.1 (92452) - https://sketch.com -->
    <title>clarity-alert-line</title>
    <desc>Created with Sketch.</desc>
    <g id="REACT-Homepage" stroke="none" stroke-width="1" fill="none" fill-rule="evenodd">
        <g id="Desktop-Copy" transform="translate(-500.000000, -499.000000)" fill-rule="nonzero">
            <g id="clarity-alert-line" transform="translate(498.000000, 497.000000)">
                <g id="Icon" transform="translate(2.333333, 2.333333)">
                    <path d="M18.6666667,0.583333333 C8.37666667,0.583333333 0,7.91 0,16.9166667 C0,25.9233333 8.37666667,33.25 18.6666667,33.25 C20.5918372,33.2477734 22.5075581,32.9808287 24.36,32.4566667 L30.8116667,36.5633333 C31.1704168,36.793503 31.6261357,36.8097088 32.0003291,36.6056034 C32.3745225,36.4014979 32.607624,36.0095718 32.6083333,35.5833333 L32.6083333,27.7316667 C35.5574056,24.9026048 37.2400157,21.0031559 37.2753028,16.9166667 C37.3333333,7.91 28.9566667,0.583333333 18.6666667,0.583333333 Z M30.6716667,26.3783333 C30.434573,26.5982171 30.2993736,26.9066408 30.2983333,27.23 L30.2983333,33.46 L25.1883333,30.205 C24.8998613,30.0226534 24.5460119,29.9757577 24.22,30.0766667 C22.4218479,30.635143 20.5495484,30.9183479 18.6666667,30.9166667 C9.66,30.9166667 2.33333333,24.64 2.33333333,16.9166667 C2.33333333,9.19333333 9.66,2.91666667 18.6666667,2.91666667 C27.6733333,2.91666667 35,9.19333333 35,16.9166667 C34.9462326,20.5376051 33.3760702,23.9699547 30.6716667,26.3783333 L30.6716667,26.3783333 Z" id="Icon-Shape" fill="#FFFFFF"></path>
                    <path d="M18.6666667,21.735 C19.3109989,21.735 19.8333333,21.2126655 19.8333333,20.5683333 L19.8333333,7.56 C19.8333333,6.91566779 19.3109989,6.39333333 18.6666667,6.39333333 C18.0223345,6.39333333 17.5,6.91566779 17.5,7.56 L17.5,20.545 C17.4937299,20.8584421 17.6138726,21.1612181 17.8333483,21.3850833 C18.0528241,21.6089486 18.3531619,21.735 18.6666667,21.735 Z" id="Icon-Path" fill="#FF6464"></path>
                    <circle id="Icon-Oval" fill="#FF6464" cx="18.6666667" cy="25.7133333" r="1.55166667"></circle>
                </g>
                <rect id="ViewBox" x="0" y="0" width="42" height="42"></rect>
            </g>
        </g>
    </g>
</svg>