<?xml version="1.0" encoding="UTF-8"?>
<svg width="22px" height="24px" viewBox="0 0 22 24" version="1.1" xmlns="http://www.w3.org/2000/svg" xmlns:xlink="http://www.w3.org/1999/xlink">
    <!-- Generator: Sketch 63.1 (92452) - https://sketch.com -->
    <title>trash-icon</title>
    <desc>Created with Sketch.</desc>
    <g id="Page-1" stroke="none" stroke-width="1" fill="none" fill-rule="evenodd">
        <g id="Artboard" transform="translate(-86.000000, -6.000000)">
            <g id="trash-icon" transform="translate(85.000000, 6.000000)">
                <rect id="ViewBox" x="0" y="0" width="24" height="24"></rect>
                <path d="M18,21 L17.9988001,6.75 L6,6.75 L6,21 L18,21 L18,21 Z M13.1992801,9.125 L15.5990401,9.125 L15.5990401,18.625 L13.1992801,18.625 L13.1992801,9.125 Z M8.39976002,9.125 L10.79952,9.125 L10.79952,18.625 L8.39976002,18.625 L8.39976002,9.125 Z M8.39976002,2 L15.5990401,2 L15.5990401,4.375 L8.39976002,4.375 L8.39976002,2 Z" id="Shape"></path>
                <path d="M3.44444444,21.6 C3.44444444,22.9236 4.54077778,24 5.88888889,24 L18.1111111,24 C19.4592222,24 20.5555556,22.9236 20.5555556,21.6 L20.5555556,7.2 L23,7.2 L23,4.8 L18.1111111,4.8 L18.1111111,2.4 C18.1111111,1.0764 17.0147778,0 15.6666667,0 L8.33333333,0 C6.98522222,0 5.88888889,1.0764 5.88888889,2.4 L5.88888889,4.8 L1,4.8 L1,7.2 L3.44444444,7.2 L3.44444444,21.6 Z M8.33333333,2.4 L15.6666667,2.4 L15.6666667,4.8 L8.33333333,4.8 L8.33333333,2.4 Z M7.11111111,7.2 L18.1111111,7.2 L18.1123333,21.6 L5.88888889,21.6 L5.88888889,7.2 L7.11111111,7.2 Z" id="Shape" fill="#000000" fill-rule="nonzero"></path>
                <path d="M8,10 L10.3333333,10 L10.3333333,20 L8,20 L8,10 Z M12.6666667,10 L15,10 L15,20 L12.6666667,20 L12.6666667,10 Z" id="Shape" fill="#000000" fill-rule="nonzero"></path>
            </g>
        </g>
    </g>
</svg>