<?xml version="1.0" encoding="UTF-8"?>
<svg width="40px" height="37px" viewBox="0 0 40 37" version="1.1" xmlns="http://www.w3.org/2000/svg" xmlns:xlink="http://www.w3.org/1999/xlink">
    <!-- Generator: Sketch 63.1 (92452) - https://sketch.com -->
    <title>flask</title>
    <desc>Created with Sketch.</desc>
    <g id="Icons" stroke="none" stroke-width="1" fill="none" fill-rule="evenodd">
        <g id="flask" transform="translate(0.000000, -2.000000)" fill-rule="nonzero">
            <g id="Icon" fill="#000000">
                <path d="M11.95375,34.4275 C10.43,33.2225 8.8025,32.0775 7.69625,30.45625 C5.35875,27.605 3.555,24.30375 2.325,20.8275 C1.5825,18.575 1.32875,16.1525 0.37125,13.97875 C-0.63125,12.41 0.54,10.685 2.26625,10.18375 C3.035,10.03375 4.38875,9.31125 2.755,9.8325 C1.29,10.9 1.15375,8.85625 2.65125,8.72625 C3.67375,8.59 4.05125,7.75 3.7,7.00125 C2.60625,6.285 6.36875,5.4975 4.475,4.4225 C2.5025,2.29375 7.235,1.88375 6.07,4.29875 C5.79,6.16125 9.3775,3.96 8.54375,6.10875 C9.39,7.1375 11.7075,6.34375 11.64875,7.78875 C12.88625,7.87375 13.30875,8.90875 14.46125,8.98625 C15.66625,9.53375 17.83375,9.95625 18.24375,11.30375 C17.0525,12.2475 14.29875,9.36375 14.16875,11.9675 C14.52625,15.815 14.43625,19.78 15.8425,23.445 C16.5125,25.665 18.1275,27.41625 19.58625,29.14125 C20.98,30.84 22.8675,32.025 24.795,33.035 C26.4875,33.82875 28.31125,34.35625 30.1525,34.68875 C30.895,34.11625 32.21625,31.99375 33.38125,32.89125 C33.43375,33.89375 31.07,34.99375 33.27,34.88375 C34.55875,34.4925 35.4575,35.88 36.525,34.63 C37.50125,35.78875 40.6,33.8875 39.90375,36.26375 C38.96,36.86875 37.58,36.505 36.635,37.3375 C35.07875,36.5625 33.835,38.03375 32.11,37.85125 C30.1918976,38.1806598 28.2486611,38.3416899 26.3025,38.3325 C23.11875,38.07875 19.86375,37.975 16.83,36.8675 C15.12375,36.36625 13.4575,35.39625 11.95375,34.42625 L11.95375,34.4275 Z M14.6425,35.5925 C16.30875,36.30875 17.94375,37.07 19.7725,37.305 C22.67,37.7025 25.665,38.3275 28.575,37.76125 C27.26,37.1625 25.8925,37.99625 24.58375,37.33125 C23.00875,37.67 21.3225,37.24625 19.72,37.03875 C17.90375,36.23125 15.9375,35.67125 14.23125,34.61625 C12.10875,33.84125 15.33125,35.6125 15.91125,35.7625 C17.24,36.5175 14.44625,35.37125 14.05625,35.05875 C12.9425,34.43375 12.8,34.56375 13.945,35.195 C14.1725,35.33125 14.40125,35.475 14.64125,35.5925 L14.6425,35.5925 Z M11.47125,33.34625 C13.08625,33.945 11.465,32.21375 10.7225,32.31125 C10.3975,31.745 9.4725,31.38 10.12375,31.08125 C8.945,31.485 8.89375,29.53125 8.34,29.805 C7.09625,29.41375 7.85875,28.0275 6.38,27.175 C6.24375,26.27625 4.90875,25.495 4.47875,24.135 C4.29,23.445 2.975,21.44625 3.7825,23.30125 C4.4725,25.09125 5.69,26.62125 6.69875,28.15125 C7.48625,29.6025 8.41125,31.12625 9.84375,32.03125 C10.325,32.49375 10.7875,33.20375 11.47125,33.34625 L11.47125,33.34625 Z M18.5875,36.35375 C19.25125,36.77 22.455,37.265 20.45,36.5225 C20.1175,36.59375 16.7325,35.565 18.5875,36.35375 L18.5875,36.35375 Z M11.27625,30.41 C12.05125,31.00875 14.4075,30.48875 12.4675,30.05875 C11.5825,29.58375 9.59,29.265 10.94375,30.33875 L11.27625,30.41 Z M15.0325,32.4025 C16.93375,32.9425 13.4375,31.205 14.56375,32.2075 L14.8175,32.31875 L15.0325,32.4025 Z M15.0525,31.4 C16.4325,31.57625 13.41125,30.4625 14.74625,31.3025 L15.0525,31.4 Z M19.84375,34.34875 C21.1325,33.57375 20.71,36.1525 22.03125,34.56375 C23.33375,33.61375 20.905,35.7425 22.5125,34.7325 C23.67125,33.9575 25.39,35.10375 26.47125,35.475 C27.2525,35.43625 28.01375,36.1525 28.80875,35.71625 C30.35125,35.3 25.80125,35.10375 26.9925,34.36875 C25.58625,34.77875 24.545,33.88 23.855,32.975 C22.2725,32.61 20.45,31.8025 19.6625,30.40375 C19.3375,29.8825 20.125,30.4825 19.3825,29.6225 C18.4325,28.77625 17.95625,27.8125 17.31875,26.78375 C16.5575,26.38 16.46625,25.1825 16.3875,26.745 C16.39375,25.755 15.4625,25.09125 15.24125,25.37125 C15.235,24.42125 16.23125,24.89625 15.53375,24.1925 C15.38375,23.2025 14.88875,22.17375 14.74,21.06125 C14.5125,20.5275 14.7075,19.38125 13.9525,20.5925 C13.67875,21.875 13.86125,19.0175 14.29125,19.96125 C14.85125,18.9975 14.09,19.10875 14.05625,19.245 C14.42125,18.43125 14.29125,17.27875 13.95875,17.715 C14.15375,16.855 14.27125,14.545 13.66625,14.955 C14.03125,14.05625 14.35625,10.83375 12.78125,12.06375 C12.13625,12.07 11.03,12.29875 10.50875,12.55875 C12.15,13.46375 10.34,12.88375 9.675,12.74125 C9.59,13.575 8.92625,13.21625 8.1,13.2225 C9.42125,13.385 7.455,14.57 6.69375,14.115 C5.71125,14.58375 7.54625,15.75625 6.71375,16.12 C6.8175,16.6675 5.21,15.925 5.33375,17.1875 C4.37625,16.78375 5.20375,18.69125 5.67875,18.0475 C7.30625,18.48375 6.825,19.48625 6.86375,20.44375 C6.60375,20.9975 5.56125,19.135 6.63625,19.22 C5.79,17.84625 5.69875,18.725 4.98875,19.36375 C4.82625,19.40875 6.7925,20.275 5.56125,20.705 C6.6425,20.8675 6.675,21.81875 6.89,22.4175 C7.54125,23.10125 7.41125,21.66875 8.1925,22.48875 C7.6975,21.76 5.58125,20.4375 7.28125,20.86125 C7.275,20.1325 6.975,19.54 7.49625,19.55875 C8.0175,18.62125 6.95625,21.87 8.12125,20.67875 C8.44625,20.535 8.525,19.74125 9.11125,20.75 C9.95125,21.58375 9.41125,22.1825 8.22625,21.42 C8.435,22.1425 9.815,22.4025 9.555,23.53 C9.82875,24.52625 10.2125,24.155 10.55125,24.1025 C10.81125,25.06625 10.96125,24.35625 10.975,23.89375 C12.18,24.15375 11.8925,24.86375 12.27,25.365 C13.09625,25.73625 11.085,22.82625 12.51125,24.48625 C14.0025,25.84 13.07125,26.4 11.72375,26.185 C12.57625,26.12 12.85,27.3375 13.91125,27.29125 C14.88125,27.75375 15.53875,29.52375 13.86625,28.78875 C13.28625,28.2675 11.23625,27.61625 12.91625,28.6125 C14.46625,29.32875 15.69,29.75875 17.1875,30.65625 C18.24875,31.4175 18.7175,32.2975 19.12125,32.46625 C18.2225,32.89625 16.4125,32.12125 17.75375,31.88625 C16.92,31.73625 15.97625,31.31375 16.7775,32.355 C17.46125,32.9275 19.1925,32.8625 19.505,32.9275 C19.2375,33.5075 18.78875,33.5525 19.5175,33.5975 C18.70375,34.03375 19.7775,34.09875 19.85,34.34625 L19.84375,34.34875 Z M18.19,29.6675 C17.695,29.14625 17.565,28.1825 18.09875,29.0225 C18.3725,29.13375 18.9775,30.605 18.19,29.6675 L18.19,29.6675 Z M15.02625,24.46 C14.44,23.145 15.4425,23.74375 15.15625,24.68125 L15.02625,24.46 Z M9.61625,20.8525 C9.35625,20.4225 8.92,19.15375 9.0625,18.76875 C9.18625,19.39375 10.3975,21.4775 9.655,19.62875 C8.835,18.07875 10.6375,20.13 10.8275,20.52125 C10.9125,20.905 10.32,20.4175 10.71625,21.315 C9.9875,20.28625 10.28625,21.88125 9.61625,20.8525 Z M6.8875,18.56125 C6.2625,17.9425 5.81375,17.37 6.91375,18.1775 C7.34375,18.19 5.97625,16.8825 7.0175,17.76125 C8.1175,17.9625 7.5575,19.565 6.8875,18.5625 L6.8875,18.56125 Z M7.25875,17.61125 C5.44875,16.00375 9.5375,18.4575 7.55125,17.91125 L7.25875,17.61125 Z M12.4475,20.625 C11.66,20.15625 12.23875,17.3175 12.50625,19.2575 C13.2675,19.01 12.46125,20.26 13.0275,20.2475 C12.9425,21.035 12.68875,21.32125 12.4475,20.625 Z M7.6175,17.08375 C6.4525,15.47625 10.99625,18.705 8.36,17.4875 C8.08625,17.41625 7.755,17.39 7.6175,17.08375 Z M7.7925,16.47125 C8.4825,16.32125 10.6575,17.6825 8.65875,16.8625 C8.4375,16.615 7.96875,16.72625 7.7925,16.47125 Z M13.72375,19.4275 C13.8025,18.0475 14.14,18.60125 13.73,19.6225 L13.72375,19.4275 Z M8.3075,15.99 C8.5875,15.58 7.55875,14.12125 8.4575,15.46875 C8.84125,15.775 9.5775,15.9825 8.92625,16.11375 C9.94875,17.0125 8.67875,16.355 8.3075,15.99 Z M12.8125,15.2475 C12.455,14.61625 13.26875,12.46125 13.3525,13.79625 C12.975,14.8375 13.24875,15.42375 13.50875,14.02375 C13.9975,12.92375 13.405,16.19875 12.8125,15.2475 Z M14.30375,30.66375 C15.32625,30.93125 15.32625,30.5075 14.395,30.38375 C13.89375,29.915 12.31875,29.42 13.73125,30.325 C13.8225,30.56 14.1225,30.5525 14.2975,30.66375 L14.30375,30.66375 Z M10.65125,28.2425 C11.2175,28.66625 12.78,29.44 11.4525,28.39875 C11.90125,27.885 10.6,27.605 11.02875,27.26 C9.935,26.5825 10.1625,26.6475 10.9375,26.6675 C9.60875,26.075 11.12625,26.12 11.055,25.815 C10.54125,25.7175 8.5225,24.91625 9.71375,25.88 C8.5025,25.2675 9.42125,26.115 9.05625,26.02375 C7.81875,25.685 10.15625,26.9675 8.86125,26.64875 C9.57125,27.20875 10.775,28.0875 9.16125,27.24125 C8.94625,27.5475 10.31375,28.01 10.6525,28.24375 L10.65125,28.2425 Z M23.5025,35.78125 C24.0425,35.25375 23.5225,36.615 24.40125,35.65125 C24.4075,34.96125 24.375,34.55125 23.3925,35.39125 C23.11875,35.54125 23.00125,36.17875 23.50375,35.7825 L23.5025,35.78125 Z M14.61625,30.07875 C15.22125,30.6125 17.39,30.47 15.3525,30.14375 C15.04625,29.695 13.4325,29.805 14.61625,30.07875 Z M4.675,23.39875 C3.79625,22.14875 4.1275,21.5825 3.28125,20.56625 C3.125,19.77875 1.83625,18.0075 2.6175,19.88875 C3.33375,20.9825 3.54875,22.68125 4.675,23.3975 L4.675,23.39875 Z M25.86625,36.1325 C26.78375,35.54 25.6575,35.63125 25.70375,36.185 L25.86625,36.1325 Z M27.34375,36.53625 C28.51625,35.68375 26.6275,36.3675 27.09625,36.6925 L27.34375,36.53625 Z M7.6175,23.95875 C8.4775,24.15375 11.06125,26.08125 9.5375,24.095 C8.75625,23.86 9.225,21.9525 8.42375,22.29125 C8.9575,23.18375 8.86625,23.5675 7.74625,23.00125 C6.33375,22.3175 6.9525,23.34625 7.225,23.62625 C6.85375,23.71125 7.72625,23.95125 7.61625,23.95875 L7.6175,23.95875 Z M3.69125,20.86 C3.84125,20.2225 2.265,17.35125 2.9425,19.42125 C3.19,19.85125 3.16375,20.6775 3.69125,20.86 Z M30.65125,35.7425 C31.50375,35.57375 33.45125,36.17875 33.76375,35.515 C32.72875,35.495 30.17625,34.78625 30.05875,35.68375 L30.28625,35.7225 L30.65125,35.7425 Z M4.0825,17.19375 C4.9425,16.855 2.51375,16.49 3.90625,17.12875 L4.0825,17.19375 Z M1.39375,14.18625 C1.2375,13.29375 1.26375,11.73125 2.7475,12.25875 C0.76125,12.65625 4.12125,14.72625 3.6975,13.0925 C4.53125,13.13125 5.33125,12.5975 4.88875,13.41125 C6.53625,13.22875 7.675,11.80375 9.26375,11.99875 C10.50125,11.83625 11.855,11.7125 13.19,11.2175 C14.28375,11.1325 15.33875,9.955 14.74,9.2575 C13.2425,9.1275 11.68,9.31625 10.02625,9.64125 C8.19625,10.025 6.53625,10.7475 4.6875,11.06 C2.88375,11.30125 5.045,11.72375 4.53125,11.82125 C3.59375,12.14625 5.65125,12.36875 4.4075,12.70625 C3.64625,12.5625 2.845,12.29625 3.17,11.48875 C1.445,11.71 -0.0725,12.4325 1.295,14.18375 L1.39375,14.18625 Z M5.55375,12.07 C5.9575,10.57875 7.72125,13.29375 6.2175,12.265 C6.035,12.135 5.7425,12.02375 5.55375,12.07 Z M6.37375,11.36125 C6.42625,10.6775 8.06625,11.72625 6.64125,11.60875 L6.37375,11.36125 Z M7.64375,10.78125 C8.2625,10.03875 11.14,10.30625 9.03,10.71 C8.47,10.28625 8.03375,10.9575 7.64375,10.78125 Z M12.46125,10.195 C12.8525,9.1725 13.97125,9.785 12.64375,9.98625 C12.67,10.0975 12.605,10.51375 12.46125,10.195 Z M37.49375,35.755 C38.425,35.755 40.30625,35.46875 38.2875,35.46875 C37.96875,35.52125 36.43875,35.5075 37.49375,35.755 Z M5.48125,15.42375 C6.23625,15.37125 6.66,14.5975 5.3375,14.6425 C3.28625,14.4275 7.14125,15.33875 5.0775,15.07875 C4.7975,15.26125 5.46875,15.47625 5.48125,15.42375 Z M4.4275,9.48625 C5.775,9.03 7.61125,8.51625 8.2425,9.7075 C7.5975,8.9325 7.9825,8.17125 8.59375,9.30375 C9.45375,10.45625 9.8825,8.7825 9.3225,8.39875 C9.96,9.1925 10.68375,9.56375 9.7525,8.44375 C10.76875,7.22625 7.715,8.60625 7.0175,8.59375 C6.685,8.74375 3.5675,9.3875 4.4325,9.48625 L4.4275,9.48625 Z M5.215,7.98125 C5.98375,7.40125 7.865,8.32 6.65375,7.40125 C6.5425,7.30375 4.01,8.0975 5.215,7.98125 Z M8.0075,8.0925 C8.90625,8.11875 7.62375,6.895 8.69125,7.4475 C8.515,6.875 7.4475,6.76375 6.92,6.53625 C6.6275,7.06375 7.525,8.09875 8.0075,8.0925 Z M6.84875,5.83375 C8.2875,5.645 6.4775,5.215 6.55625,5.82125 L6.84875,5.83375 Z M4.72,4.16625 C3.70375,2.8375 6.6275,4.39375 5.59875,3.00125 C4.72625,2.31125 3.8925,3.7825 4.72,4.16625 L4.72,4.16625 Z M17.76,11.19125 C18.22875,10.365 15.8325,10.0775 17.4475,10.89875 C17.5975,10.95125 17.55875,11.25 17.76,11.19125 Z" id="Icon-Shape"></path>
            </g>
            <rect id="ViewBox" x="0" y="0" width="40" height="40"></rect>
        </g>
    </g>
</svg>