<?xml version="1.0" encoding="UTF-8"?>
<svg width="37px" height="26px" viewBox="0 0 37 26" version="1.1" xmlns="http://www.w3.org/2000/svg" xmlns:xlink="http://www.w3.org/1999/xlink">
    <!-- Generator: Sketch 63.1 (92452) - https://sketch.com -->
    <title>mediaWikiIcon</title>
    <desc>Created with Sketch.</desc>
    <g id="REACT-Homepage" stroke="none" stroke-width="1" fill="none" fill-rule="evenodd">
        <g id="mediaWikiIcon" transform="translate(-3.000000, -8.000000)" fill-rule="nonzero">
            <g id="Icon" transform="translate(3.000000, 8.000000)">
                <polygon id="Icon-Path" fill="#2F78B7" points="4.6291875 21.4580625 0 21.4580625 0 4.7919375 4.6291875 4.7919375 4.6291875 5.7684375 2.543625 5.7684375 2.543625 20.4815625 4.6291875 20.4815625"></polygon>
                <polygon id="Icon-Path" fill="#2F78B7" points="11.3728125 21.4580625 6.743625 21.4580625 6.743625 4.7919375 11.3728125 4.7919375 11.3728125 5.7684375 9.2859375 5.7684375 9.2859375 20.4815625 11.3728125 20.4815625"></polygon>
                <polygon id="Icon-Path" fill="#2F78B7" points="25.3771875 20.4815625 27.4640625 20.4815625 27.4640625 5.7684375 25.3771875 5.7684375 25.3771875 4.7919375 30.006375 4.7919375 30.006375 21.4580625 25.3771875 21.4580625"></polygon>
                <polygon id="Icon-Path" fill="#2F78B7" points="32.1208125 20.4815625 34.206375 20.4815625 34.206375 5.7684375 32.1208125 5.7684375 32.1208125 4.7919375 36.75 4.7919375 36.75 21.4580625 32.1208125 21.4580625"></polygon>
                <path d="M17.0533125,8.040375 C16.8196875,6.4325625 16.17,4.2118125 16.0951875,3.152625 C16.0359122,2.28584982 16.5555824,1.48388962 17.3709375,1.183875 C18.0107447,0.906883176 18.7366303,0.906883176 19.3764375,1.183875 C20.1933508,1.48252372 20.7148414,2.28481701 20.656125,3.152625 C20.5813125,4.2118125 19.9329375,6.433875 19.698,8.040375" id="Icon-Path" fill="#2F78B7"></path>
                <path d="M19.8988125,8.06925 L19.495875,8.0101875 C19.6074375,7.2463125 19.8069375,6.3590625 20.0011875,5.502 C20.1999347,4.72449106 20.3507188,3.93550438 20.4526875,3.1395 C20.5067848,2.35504406 20.0336002,1.6299944 19.29375,1.3636875 C18.7073102,1.1110068 18.0426898,1.1110068 17.45625,1.3636875 C16.7189476,1.63110216 16.2478148,2.35439812 16.30125,3.136875 C16.4032513,3.93287418 16.5540351,4.72185886 16.75275,5.499375 C16.947,6.3564375 17.1465,7.242375 17.2580625,8.0075625 L16.855125,8.066625 C16.7461875,7.3185 16.5466875,6.4404375 16.3550625,5.5899375 C16.1514066,4.79138733 15.9979811,3.9808622 15.8956875,3.163125 C15.8225432,2.20818863 16.3922015,1.3207435 17.290875,0.989625 C17.9840797,0.688470747 18.7711703,0.688470747 19.464375,0.989625 C20.3630485,1.3207435 20.9327068,2.20818863 20.8595625,3.163125 C20.7572418,3.98085794 20.6038166,4.79138137 20.4001875,5.5899375 C20.2125,6.44175 20.0090625,7.3198125 19.8988125,8.06925 L19.8988125,8.06925 Z" id="Icon-Path" fill="#000000"></path>
                <path d="M14.6908125,9.3804375 C13.684125,8.1046875 12.0106875,6.50475 11.4174375,5.6266875 C10.9300979,4.90533806 10.9782506,3.94870381 11.5355625,3.2799375 C11.9510691,2.72024132 12.5795506,2.35730871 13.272,2.2771875 C14.1300468,2.12856698 14.9829852,2.56520293 15.364125,3.3481875 C15.82875,4.302375 16.3760625,6.5506875 16.9785,8.061375" id="Icon-Path" fill="#2F78B7"></path>
                <path d="M14.5306875,9.5064375 C14.062125,8.911875 13.4505,8.2516875 12.8585625,7.6111875 C12.2831847,7.02156178 11.7453183,6.39646201 11.248125,5.7395625 C10.7072246,4.94891355 10.7570675,3.89524647 11.3701875,3.1591875 C11.8210561,2.55137612 12.5041986,2.15822451 13.25625,2.07375 C14.1994212,1.9103459 15.1365207,2.39255835 15.5518125,3.255 C15.8719067,4.01421855 16.1441273,4.79274305 16.366875,5.586 C16.629375,6.418125 16.891875,7.2778125 17.1714375,7.9813125 L16.792125,8.13225 C16.506,7.4143125 16.2369375,6.5428125 15.9770625,5.7080625 C15.7592261,4.93475096 15.4940381,4.17556801 15.183,3.4348125 C14.8378378,2.72970273 14.0671558,2.33873826 13.2943125,2.4766875 C12.6607803,2.55157506 12.0859708,2.88383491 11.704875,3.3954375 C11.1968795,3.99623975 11.1497116,4.86134111 11.589375,5.5138125 C12.0764866,6.15322847 12.6024804,6.76206633 13.164375,7.336875 C13.7615625,7.982625 14.3784375,8.649375 14.8561875,9.25575 L14.5306875,9.5064375 Z" id="Icon-Path" fill="#000000"></path>
                <path d="M13.3126875,11.7245625 C11.802,11.1234375 9.555,10.5774375 8.5995,10.1101875 C7.81651543,9.72904768 7.37987948,8.87610931 7.5285,8.0180625 C7.60896814,7.3260867 7.97186533,6.69814156 8.53125,6.2829375 C9.20001631,5.72562564 10.1566506,5.67747291 10.878,6.1648125 C11.7613125,6.759375 13.356,8.4315 14.63175,9.4381875" id="Icon-Path" fill="#2F78B7"></path>
                <path d="M13.237875,11.914875 C12.53175,11.6353125 11.6746875,11.3675625 10.8425625,11.1103125 C10.0493056,10.8875648 9.27078105,10.6153442 8.5115625,10.29525 C7.64912085,9.87995824 7.1669084,8.94285871 7.3303125,7.9996875 C7.41580719,7.24836937 7.8093833,6.56626585 8.4170625,6.11625 C9.15312147,5.50312998 10.2067886,5.45328713 10.9974375,5.9941875 C11.6521163,6.49203237 12.2750195,7.030333 12.8625,7.6059375 C13.5016875,8.197875 14.1631875,8.8081875 14.7564375,9.2780625 L14.5044375,9.594375 C13.8980625,9.1153125 13.2313125,8.4984375 12.5855625,7.9025625 C12.0107426,7.34068015 11.4019055,6.81468699 10.7625,6.3275625 C10.1100286,5.88789911 9.24492725,5.93506696 8.644125,6.4430625 C8.13252241,6.82415826 7.80026256,7.39896781 7.725375,8.0325 C7.58742576,8.80534328 7.97839023,9.5760253 8.6835,9.9211875 C9.42425551,10.2322256 10.1834385,10.4974136 10.95675,10.71525 C11.79675,10.97775 12.663,11.24025 13.3809375,11.5303125 L13.237875,11.914875 Z" id="Icon-Path" fill="#000000"></path>
                <path d="M13.2916875,14.4493125 C11.683875,14.6829375 9.463125,15.332625 8.4039375,15.4074375 C7.53716232,15.4667128 6.73520212,14.9470426 6.4351875,14.1316875 C6.15819568,13.4918803 6.15819568,12.7659947 6.4351875,12.1261875 C6.73338011,11.3087548 7.53578474,10.7866569 8.4039375,10.8451875 C9.463125,10.92 11.6851875,11.568375 13.2916875,11.8033125" id="Icon-Path" fill="#2F78B7"></path>
                <path d="M8.245125,15.61875 C7.35191739,15.6124023 6.55568345,15.0544116 6.244875,14.217 C5.94372075,13.5237953 5.94372075,12.7367047 6.244875,12.0435 C6.5759935,11.1448265 7.46343863,10.5751682 8.418375,10.6483125 C9.2361122,10.7506061 10.0466373,10.9040316 10.8451875,11.1076875 C11.694375,11.300625 12.5724375,11.5014375 13.321875,11.60775 L13.2628125,12.0106875 C12.4989375,11.899125 11.6116875,11.699625 10.754625,11.505375 C9.97710886,11.3066601 9.18812418,11.1558763 8.392125,11.053875 C7.60893005,10.9982508 6.8837343,11.4685032 6.615,12.20625 C6.3623193,12.7926898 6.3623193,13.4573102 6.615,14.04375 C6.8812662,14.7828756 7.60574318,15.2555004 8.3895,15.201375 C9.18550438,15.0994063 9.97449106,14.9486222 10.752,14.749875 C11.6090625,14.555625 12.495,14.356125 13.2601875,14.2445625 L13.31925,14.6475 C12.571125,14.7564375 11.6930625,14.9559375 10.843875,15.1475625 C10.0453189,15.3511916 9.23479544,15.5046168 8.4170625,15.6069375 C8.3601875,15.6148125 8.302875,15.61875 8.245125,15.61875 L8.245125,15.61875 Z" id="Icon-Path" fill="#000000"></path>
                <path d="M14.6330625,16.8105 C13.3573125,17.8171875 11.7586875,19.490625 10.8793125,20.083875 C10.1579631,20.5712146 9.20132881,20.5230619 8.5325625,19.96575 C7.97255456,19.5499409 7.6095865,18.920923 7.5298125,18.228 C7.38497018,17.3725975 7.82101389,16.5240222 8.6008125,16.14375 C9.555,15.679125 11.8033125,15.1318125 13.314,14.529375" id="Icon-Path" fill="#2F78B7"></path>
                <path d="M9.82275,20.62725 C9.31130379,20.6146127 8.81696664,20.4404921 8.4105,20.1298125 C7.80170028,19.679443 7.4075566,18.9962289 7.3224375,18.24375 C7.1590334,17.3005788 7.64124585,16.3634793 8.5036875,15.9481875 C9.26289491,15.6280644 10.0414213,15.3558432 10.8346875,15.133125 C11.6668125,14.870625 12.5265,14.608125 13.23,14.3285625 L13.3809375,14.707875 C12.663,14.994 11.7915,15.2630625 10.95675,15.5229375 C10.1834464,15.7407991 9.42426501,16.0059866 8.6835,16.317 C7.97839023,16.6621622 7.58742576,17.4328442 7.725375,18.2056875 C7.80026256,18.8392197 8.13252241,19.4140292 8.644125,19.795125 C9.24492725,20.3031205 10.1100286,20.3502884 10.7625,19.910625 C11.401893,19.4234851 12.0107292,18.8974927 12.5855625,18.335625 C13.2313125,17.7384375 13.8980625,17.1215625 14.5044375,16.6438125 L14.7564375,16.96275 C14.161875,17.4313125 13.5016875,18.0429375 12.8611875,18.634875 C12.2715478,19.2102376 11.646449,19.7481031 10.9895625,20.2453125 C10.6481284,20.4875523 10.2413365,20.6207092 9.82275,20.62725 L9.82275,20.62725 Z" id="Icon-Path" fill="#000000"></path>
                <path d="M16.9785,18.188625 C16.377375,19.6993125 15.831375,21.9463125 15.364125,22.9018125 C14.9829852,23.6847971 14.1300468,24.121433 13.272,23.9728125 C12.579077,23.8930385 11.9500591,23.5300704 11.53425,22.9700625 C10.9769381,22.3012962 10.9287854,21.3446619 11.416125,20.6233125 C12.0106875,19.74 13.6828125,18.1453125 14.6895,16.8695625" id="Icon-Path" fill="#2F78B7"></path>
                <path d="M13.5594375,24.189375 C13.4596875,24.189375 13.35775,24.1845625 13.253625,24.1749375 C12.5023069,24.0894428 11.8202034,23.6958667 11.3701875,23.0881875 C10.7570675,22.3521285 10.7072246,21.2984614 11.248125,20.5078125 C11.7466393,19.8512535 12.2858217,19.226591 12.8625,18.6375 C13.4544375,17.9983125 14.0660625,17.3368125 14.534625,16.74225 L14.8535625,16.99425 C14.3745,17.600625 13.757625,18.267375 13.16175,18.913125 C12.5998554,19.4879337 12.0738616,20.0967715 11.58675,20.7361875 C11.1470866,21.3886589 11.1942545,22.2537602 11.70225,22.8545625 C12.0832403,23.3662835 12.6581053,23.6985754 13.2916875,23.7733125 C14.0645988,23.9117232 14.835545,23.5206247 15.180375,22.8151875 C15.4914131,22.074432 15.7566011,21.315249 15.9744375,20.5419375 C16.2369375,19.7019375 16.4994375,18.8356875 16.7895,18.11775 L17.1688125,18.2686875 C16.88925,18.9748125 16.6215,19.831875 16.36425,20.664 C16.1415023,21.4572569 15.8692817,22.2357815 15.5491875,22.995 C15.1891407,23.7594507 14.4034029,24.2311007 13.5594375,24.189375 L13.5594375,24.189375 Z" id="Icon-Path" fill="#000000"></path>
                <path d="M19.700625,18.209625 C19.93425,19.8174375 20.5839375,22.0381875 20.65875,23.097375 C20.7180253,23.9641502 20.1983551,24.7661104 19.383,25.066125 C18.7431928,25.3431168 18.0173072,25.3431168 17.3775,25.066125 C16.5605867,24.7674763 16.0390961,23.965183 16.0978125,23.097375 C16.172625,22.0381875 16.821,19.816125 17.0559375,18.209625" id="Icon-Path" fill="#2F78B7"></path>
                <path d="M18.375,25.482247 C18.0008556,25.4846968 17.6304409,25.4077507 17.28825,25.2564375 C16.3895765,24.925319 15.8199182,24.0378739 15.8930625,23.0829375 C15.9953357,22.2651971 16.1487614,21.4546707 16.3524375,20.656125 C16.545375,19.8069375 16.7461875,18.928875 16.8525,18.1794375 L17.2554375,18.2385 C17.143875,19.002375 16.944375,19.889625 16.750125,20.7466875 C16.5514101,21.5242036 16.4006263,22.3131883 16.298625,23.1091875 C16.2449516,23.8928267 16.7174142,24.6170551 17.45625,24.8836875 C18.0426898,25.1363682 18.7073102,25.1363682 19.29375,24.8836875 C20.0325858,24.6170551 20.5050484,23.8928267 20.451375,23.1091875 C20.3493476,22.3131925 20.1985641,21.5242094 19.999875,20.7466875 C19.805625,19.889625 19.606125,19.0036875 19.4945625,18.2385 L19.8975,18.1794375 C20.0064375,18.9275625 20.2059375,19.8069375 20.3975625,20.656125 C20.6012083,21.4546774 20.7546337,22.2652019 20.8569375,23.0829375 C20.9300818,24.0378739 20.3604235,24.925319 19.46175,25.2564375 C19.1195591,25.4077507 18.7491444,25.4846968 18.375,25.482247 L18.375,25.482247 Z" id="Icon-Path" fill="#000000"></path>
                <path d="M22.063125,16.86825 C23.0698125,18.144 24.74325,19.742625 25.3365,20.622 C25.8238396,21.3433494 25.7756869,22.2999837 25.218375,22.96875 C24.8025659,23.5287579 24.173548,23.891726 23.480625,23.9715 C22.6225782,24.1201205 21.7696398,23.6834846 21.3885,22.9005 C20.923875,21.9463125 20.3765625,19.698 19.774125,18.1873125" id="Icon-Path" fill="#2F78B7"></path>
                <path d="M23.1945,24.1906875 C22.3497692,24.2309502 21.5643487,23.7571057 21.2060625,22.9910625 C20.8859329,22.2318576 20.6137116,21.4533308 20.391,20.6600625 C20.1285,19.8279375 19.866,18.96825 19.5864375,18.26475 L19.96575,18.1138125 C20.251875,18.83175 20.5209375,19.70325 20.7808125,20.538 C20.9986489,21.3113115 21.2638369,22.0704945 21.574875,22.81125 C21.919705,23.5166872 22.6906512,23.9077857 23.4635625,23.769375 C24.0970947,23.6944874 24.6719042,23.3622276 25.053,22.850625 C25.5609955,22.2498227 25.6081634,21.3847214 25.1685,20.73225 C24.6814013,20.0928236 24.1554068,19.4839849 23.5935,18.9091875 C22.9963125,18.2634375 22.3794375,17.5966875 21.9016875,16.9903125 L22.220625,16.7383125 C22.6891875,17.332875 23.3008125,17.9930625 23.8914375,18.63225 C24.4672885,19.2218152 25.0055952,19.8469173 25.5031875,20.503875 C26.0434217,21.2942413 25.9935905,22.3471264 25.381125,23.0829375 C24.9313586,23.6911109 24.2492193,24.085183 23.4976875,24.171 C23.3971166,24.1836928 23.2958678,24.1902674 23.1945,24.1906875 L23.1945,24.1906875 Z" id="Icon-Path" fill="#000000"></path>
                <path d="M23.4425625,14.524125 C24.95325,15.12525 27.20025,15.67125 28.15575,16.1385 C28.9387346,16.5196398 29.3753705,17.3725782 29.22675,18.230625 C29.146976,18.923548 28.7840079,19.5525659 28.224,19.968375 C27.5552337,20.5256869 26.5985994,20.5738396 25.87725,20.0865 C24.9939375,19.4919375 23.39925,17.8198125 22.1235,16.813125" id="Icon-Path" fill="#2F78B7"></path>
                <path d="M26.9338125,20.62725 C26.5141284,20.6236915 26.1054151,20.4927934 25.76175,20.251875 C25.1038449,19.7534863 24.4778646,19.2143016 23.8875,18.6375 C23.2483125,18.0455625 22.5868125,17.43525 21.9935625,16.9666875 L22.2455625,16.653 C22.8519375,17.1320625 23.5186875,17.7489375 24.1644375,18.3448125 C24.7392686,18.9066826 25.3481049,19.4326751 25.9875,19.9198125 C26.6399714,20.3594759 27.5050727,20.312308 28.105875,19.8043125 C28.6174776,19.4232167 28.9497374,18.8484072 29.024625,18.214875 C29.1625742,17.4420317 28.7716098,16.6713497 28.0665,16.3261875 C27.3257267,16.0151958 26.5665466,15.7500087 25.79325,15.532125 C24.95325,15.269625 24.087,15.007125 23.3690625,14.7170625 L23.52,14.33775 C24.226125,14.6173125 25.0831875,14.8850625 25.9153125,15.1423125 C26.7085746,15.3650438 27.4871001,15.6372647 28.2463125,15.957375 C29.1087541,16.3726668 29.5909666,17.3097663 29.4275625,18.2529375 C29.3420678,19.0042556 28.9484917,19.6863591 28.3408125,20.136375 C27.9349832,20.4436662 27.4427183,20.6154079 26.9338125,20.62725 L26.9338125,20.62725 Z" id="Icon-Path" fill="#000000"></path>
                <path d="M23.46225,11.8125 C25.0700625,11.578875 27.2908125,10.9291875 28.35,10.854375 C29.2167752,10.7950997 30.0187354,11.3147699 30.31875,12.130125 C30.5957418,12.7699322 30.5957418,13.4958178 30.31875,14.135625 C30.0187354,14.9509801 29.2167752,15.4706503 28.35,15.411375 C27.2908125,15.3365625 25.06875,14.6881875 23.46225,14.45325" id="Icon-Path" fill="#2F78B7"></path>
                <path d="M28.5088125,15.61875 C28.4497888,15.6217791 28.3906487,15.6217791 28.331625,15.61875 C27.5138894,15.5164462 26.7033649,15.3630208 25.9048125,15.159375 C25.055625,14.9664375 24.1775625,14.765625 23.428125,14.6593125 L23.4871875,14.256375 C24.2510625,14.3679375 25.1383125,14.5674375 25.995375,14.7616875 C26.7728969,14.9603766 27.56188,15.1111601 28.357875,15.2131875 C29.1457056,15.2668965 29.872626,14.7885463 30.135,14.04375 C30.3876807,13.4573102 30.3876807,12.7926898 30.135,12.20625 C29.8687338,11.4671244 29.1442568,10.9944996 28.3605,11.048625 C27.5645029,11.1506394 26.775519,11.301423 25.998,11.500125 C25.1409375,11.694375 24.255,11.893875 23.4898125,12.0054375 L23.43075,11.6025 C24.178875,11.4935625 25.0569375,11.2940625 25.9074375,11.1024375 C26.7059854,10.8987715 27.5165112,10.7453459 28.33425,10.6430625 C29.2891864,10.5699182 30.1766315,11.1395765 30.50775,12.03825 C30.8089043,12.7314547 30.8089043,13.5185453 30.50775,14.21175 C30.198835,15.0507825 29.4028732,15.6110393 28.5088125,15.61875 L28.5088125,15.61875 Z" id="Icon-Path" fill="#000000"></path>
                <path d="M22.1221875,9.4395 C23.3979375,8.4328125 24.9965625,6.7606875 25.879875,6.166125 C26.6012244,5.67878541 27.5578587,5.72693814 28.226625,6.28425 C28.7866329,6.70005911 29.149601,7.32907705 29.229375,8.022 C29.3779955,8.88004681 28.9413596,9.73298518 28.158375,10.114125 C27.2041875,10.57875 24.955875,11.1260625 23.4451875,11.7285" id="Icon-Path" fill="#2F78B7"></path>
                <path d="M23.517375,11.9161875 L23.3664375,11.536875 C24.084375,11.25075 24.955875,10.9816875 25.790625,10.7218125 C26.5639365,10.5039761 27.3231195,10.2387881 28.063875,9.92775 C28.7689848,9.5825878 29.1599492,8.81190578 29.022,8.0390625 C28.9472629,7.4054803 28.614971,6.83061531 28.10325,6.449625 C27.5024477,5.94162946 26.6373464,5.89446161 25.984875,6.334125 C25.3454465,6.82122115 24.7366077,7.34721578 24.1618125,7.909125 C23.5160625,8.5063125 22.8493125,9.1231875 22.2429375,9.6009375 L21.9909375,9.282 C22.5855,8.8134375 23.2456875,8.2018125 23.884875,7.609875 C24.4744937,7.03408236 25.0995921,6.49577888 25.7565,5.998125 C26.5471489,5.45722463 27.600816,5.50706748 28.336875,6.1201875 C28.9469768,6.57035833 29.3421488,7.25418182 29.4275625,8.0075625 C29.5909666,8.95073371 29.1087541,9.88783324 28.2463125,10.303125 C27.487094,10.6232192 26.7085694,10.8954398 25.9153125,11.1181875 C25.0858125,11.3701875 24.220875,11.636625 23.517375,11.9161875 L23.517375,11.9161875 Z" id="Icon-Path" fill="#000000"></path>
                <path d="M19.77675,8.061375 C20.377875,6.5506875 20.923875,4.3036875 21.391125,3.3481875 C21.7722648,2.56520293 22.6252032,2.12856698 23.48325,2.2771875 C24.176173,2.3569615 24.8051909,2.71992956 25.221,3.2799375 C25.7783119,3.94870381 25.8264646,4.90533806 25.339125,5.6266875 C24.7445625,6.51 23.0724375,8.1046875 22.06575,9.3804375" id="Icon-Path" fill="#2F78B7"></path>
                <path d="M19.77675,8.061375 C20.377875,6.5506875 20.923875,4.3036875 21.391125,3.3481875 C21.7722648,2.56520293 22.6252032,2.12856698 23.48325,2.2771875 C24.176173,2.3569615 24.8051909,2.71992956 25.221,3.2799375 C25.7783119,3.94870381 25.8264646,4.90533806 25.339125,5.6266875 C24.7445625,6.51 23.0724375,8.1046875 22.06575,9.3804375" id="Icon-Path" fill="#2F78B7"></path>
                <path d="M22.22325,9.5064375 L21.90825,9.2570625 C22.3873125,8.6506875 23.0041875,7.9839375 23.6000625,7.3381875 C24.1619571,6.76337883 24.6879509,6.15454097 25.1750625,5.515125 C25.6147259,4.86265361 25.567558,3.99755225 25.0595625,3.39675 C24.6785722,2.88502897 24.1037072,2.55273706 23.470125,2.478 C22.6972817,2.34005076 21.9265997,2.73101523 21.5814375,3.436125 C21.2704519,4.17690069 21.005265,4.93608038 20.787375,5.709375 C20.524875,6.549375 20.262375,7.415625 19.9723125,8.1335625 L19.593,7.982625 C19.8725625,7.2765 20.1403125,6.4194375 20.3975625,5.5873125 C20.6203069,4.79405452 20.8925276,4.01552981 21.212625,3.2563125 C21.6279168,2.39387085 22.5650163,1.9116584 23.5081875,2.0750625 C24.2595056,2.16055719 24.9416091,2.5541333 25.391625,3.1618125 C26.004745,3.89787147 26.0545879,4.95153855 25.5136875,5.7421875 C25.0147367,6.39877436 24.475116,7.02343689 23.898,7.6125 C23.3034375,8.253 22.6918125,8.9145 22.22325,9.5064375 L22.22325,9.5064375 Z" id="Icon-Path" fill="#000000"></path>
                <path d="M18.3784996,7.6741882 C21.3885584,7.67467116 23.8284375,10.1149412 23.8284375,13.125 C23.8248188,16.1349252 21.3849266,18.573643 18.375,18.5758125 C15.3649415,18.5743629 12.9258465,16.1333095 12.9268125,13.1232508 C12.9277791,10.1131922 15.3684408,7.67370524 18.3784996,7.6741882 Z M18.375,8.16243611 C15.6345946,8.16388707 13.4140966,10.3863434 13.4150622,13.1267491 C13.4160291,15.8671547 15.6380938,18.0880447 18.3784995,18.0875619 C21.1189053,18.0870788 23.3401875,15.8654058 23.3401875,13.125 C23.3401875,11.8083917 22.8169875,10.5457465 21.8857586,9.61501 C20.9545298,8.68427351 19.6916082,8.16174107 18.375,8.16243611 Z" id="Combined-Shape" fill="#020000"></path>
                <path d="M18.375,8.73731171 C19.5391418,8.73661603 20.6558418,9.19858145 21.4792606,10.021508 C22.3026795,10.8444345 22.7653125,11.960858 22.7653125,13.125 C22.7653125,15.5479111 20.8014105,17.5122037 18.3784995,17.5126867 C15.9555884,17.5131695 13.9909041,15.5496598 13.9899375,13.126749 C13.9889716,10.7038381 15.9520893,8.73876204 18.375,8.73731171 Z M18.375,9.95531223 C16.6263925,9.95603776 15.2092511,11.3737678 15.2092511,13.1223754 C15.2092511,14.870983 16.6263938,16.2887124 18.3750013,16.2894372 C20.1236087,16.2901615 21.5419255,14.873607 21.5433761,13.125 C21.5440718,12.2843606 21.2105276,11.4779322 20.6162287,10.8833872 C20.0219298,10.2888421 19.2156396,9.95496383 18.375,9.95531223 Z" id="Combined-Shape" fill="#2F78B7"></path>
                <path d="M18.375,11.68125 C17.5776389,11.68125 16.93125,12.3276389 16.93125,13.125 C16.93125,13.9223611 17.5776389,14.56875 18.375,14.56875 C19.1723611,14.56875 19.81875,13.9223611 19.81875,13.125 C19.81875,12.7420937 19.6666411,12.3748702 19.3958854,12.1041146 C19.1251298,11.8333589 18.7579063,11.68125 18.375,11.68125 Z" id="Icon-Path" fill="#2F78B7"></path>
            </g>
            <rect id="ViewBox" x="0" y="0" width="42" height="42"></rect>
        </g>
    </g>
</svg>