<?xml version="1.0" encoding="UTF-8"?>
<svg width="16px" height="15px" viewBox="0 0 16 15" version="1.1" xmlns="http://www.w3.org/2000/svg" xmlns:xlink="http://www.w3.org/1999/xlink">
    <!-- Generator: Sketch 63.1 (92452) - https://sketch.com -->
    <title>ic:round-search-off</title>
    <desc>Created with Sketch.</desc>
    <g id="Icons" stroke="none" stroke-width="1" fill="none" fill-rule="evenodd">
        <g id="Artboard" transform="translate(-111.000000, -47.000000)">
            <g id="ic:round-search-off" transform="translate(111.000000, 47.000000)">
                <rect id="ViewBox" x="1" y="0" width="15" height="15"></rect>
                <path d="M11.9916263,9.67405421 L11.2952843,9.67405421 L11.0484795,9.43666166 C12.1638239,8.14416752 12.6422309,6.42235877 12.353019,4.74156459 C11.9387395,2.29730057 9.89378581,0.354198595 7.43455267,0.0464675132 C5.87781282,-0.152835216 4.30733756,0.294416494 3.09074984,1.28352822 C1.87416213,2.27263995 1.11826435,3.71677908 1,5.2778959 L2.78052005,5.2778959 C2.99206699,3.41392478 4.47289555,1.93681559 6.35918907,1.77855389 C8.59806082,1.58512292 10.6694579,3.47547099 10.6694579,5.71751173 C10.6694579,7.90679857 8.89775231,9.67405421 6.70295284,9.67405421 C6.5531071,9.67405421 6.4120758,9.64767726 6.26223006,9.63009263 L6.26223006,11.4061406 L6.27104451,11.4149329 C7.85764654,11.529233 9.32966064,11.001694 10.4314676,10.0521238 L10.6694579,10.2983087 L10.6694579,10.9929017 L14.4156016,14.7296363 C14.7769943,15.0901212 15.3675628,15.0901212 15.7289555,14.7296363 C16.0903482,14.3691513 16.0903482,13.7800661 15.7289555,13.4195811 L11.9916263,9.67405421 Z" id="Path" fill="#000000" fill-rule="nonzero"></path>
                <path d="M3.825,6.98125 L2.5,8.30625 L1.175,6.98125 C1.05,6.85625 0.85625,6.85625 0.73125,6.98125 C0.60625,7.10625 0.60625,7.3 0.73125,7.425 L2.05625,8.75 L0.73125,10.075 C0.60625,10.2 0.60625,10.39375 0.73125,10.51875 C0.85625,10.64375 1.05,10.64375 1.175,10.51875 L2.5,9.19375 L3.825,10.51875 C3.95,10.64375 4.14375,10.64375 4.26875,10.51875 C4.39375,10.39375 4.39375,10.2 4.26875,10.075 L2.94375,8.75 L4.26875,7.425 C4.39375,7.3 4.39375,7.10625 4.26875,6.98125 C4.144724,6.86235799 3.949026,6.86235799 3.825,6.98125 L3.825,6.98125 Z" id="Path" fill="#000000" fill-rule="nonzero"></path>
            </g>
        </g>
    </g>
</svg>