<?xml version="1.0" encoding="UTF-8"?>
<svg width="24px" height="17px" viewBox="0 0 19 12" version="1.1" xmlns="http://www.w3.org/2000/svg" xmlns:xlink="http://www.w3.org/1999/xlink">
    <!-- Generator: Sketch 63.1 (92452) - https://sketch.com -->
    <title>mdi-format-quote-open-outline</title>
    <desc>Created with Sketch.</desc>
    <g id="OnePageBrochure" stroke="none" stroke-width="1" fill="none" fill-rule="evenodd">
        <g id="mdi-format-quote-open-outline" transform="translate(-3.000000, -6.000000)" fill-rule="nonzero">
            <g id="Icon" fill="#777777">
                <path d="M11,18 L11,10 L9.12,10 L11.12,6 L5.38,6 L3,10.76 L3,18 M9,16 L5,16 L5,11.24 L6.62,8 L7.88,8 L5.88,12 L9,12 M21,18 L21,10 L19.12,10 L21.12,6 L15.38,6 L13,10.76 L13,18 M19,16 L15,16 L15,11.24 L16.62,8 L17.88,8 L15.88,12 L19,12 L19,16 Z" id="Icon-Shape"></path>
            </g>
            <rect id="ViewBox" x="0" y="0" width="24" height="24"></rect>
        </g>
    </g>
</svg>