<?xml version="1.0" encoding="UTF-8"?>
<svg width="28px" height="28px" viewBox="0 0 28 28" version="1.1" xmlns="http://www.w3.org/2000/svg" xmlns:xlink="http://www.w3.org/1999/xlink">
    <!-- Generator: Sketch 63.1 (92452) - https://sketch.com -->
    <title>related-glycans-icon</title>
    <desc>Created with Sketch.</desc>
    <g id="REACT-Homepage" stroke="none" stroke-width="1" fill="none" fill-rule="evenodd">
        <g id="Artboard" transform="translate(-163.000000, -195.000000)">
            <g id="related-glycans-icon" transform="translate(161.000000, 194.000000)">
                <g id="Icon" transform="translate(2.000000, 1.000000)" fill="#FFFFFF">
                    <path d="M14,0 C16.209139,0 18,1.790861 18,4 C18,6.209139 16.209139,8 14,8 C11.790861,8 10,6.209139 10,4 C10,1.790861 11.790861,0 14,0 Z M14,2 C12.8954305,2 12,2.8954305 12,4 C12,5.1045695 12.8954305,6 14,6 C15.1045695,6 16,5.1045695 16,4 C16,2.8954305 15.1045695,2 14,2 Z" id="Shape-1"></path>
                    <path d="M14,10 C16.209139,10 18,11.790861 18,14 C18,16.209139 16.209139,18 14,18 C11.790861,18 10,16.209139 10,14 C10,11.790861 11.790861,10 14,10 Z M14,12 C12.8954305,12 12,12.8954305 12,14 C12,15.1045695 12.8954305,16 14,16 C15.1045695,16 16,15.1045695 16,14 C16,12.8954305 15.1045695,12 14,12 Z" id="Shape-2"></path>
                    <path d="M4,20 C6.209139,20 8,21.790861 8,24 C8,26.209139 6.209139,28 4,28 C1.790861,28 0,26.209139 0,24 C0,21.790861 1.790861,20 4,20 Z M4,22 C2.8954305,22 2,22.8954305 2,24 C2,25.1045695 2.8954305,26 4,26 C5.1045695,26 6,25.1045695 6,24 C6,22.8954305 5.1045695,22 4,22 Z" id="Shape-3"></path>
                    <path d="M14,20 C16.209139,20 18,21.790861 18,24 C18,26.209139 16.209139,28 14,28 C11.790861,28 10,26.209139 10,24 C10,21.790861 11.790861,20 14,20 Z M14,22 C12.8954305,22 12,22.8954305 12,24 C12,25.1045695 12.8954305,26 14,26 C15.1045695,26 16,25.1045695 16,24 C16,22.8954305 15.1045695,22 14,22 Z" id="Shape-4"></path>
                    <path d="M24,20 C26.209139,20 28,21.790861 28,24 C28,26.209139 26.209139,28 24,28 C21.790861,28 20,26.209139 20,24 C20,21.790861 21.790861,20 24,20 Z M24,22 C22.8954305,22 22,22.8954305 22,24 C22,25.1045695 22.8954305,26 24,26 C25.1045695,26 26,25.1045695 26,24 C26,22.8954305 25.1045695,22 24,22 Z" id="Shape-5"></path>
                    <rect id="Rectangle" x="13.1" y="7.5" width="2" height="3"></rect>
                    <rect id="Rectangle-2" x="13.1" y="17.5" width="2" height="3"></rect>
                    <rect id="Rectangle-3" transform="translate(8.781981, 18.861981) rotate(45.000000) translate(-8.781981, -18.861981) " x="7.78198052" y="15.3619805" width="2" height="7"></rect>
                    <rect id="Rectangle-4" transform="translate(19.360559, 18.757716) scale(-1, 1) rotate(45.000000) translate(-19.360559, -18.757716) " x="18.3605592" y="15.2577164" width="2" height="7"></rect>
                </g>
                <rect id="ViewBox" fill-rule="nonzero" x="0" y="0" width="32" height="32"></rect>
            </g>
        </g>
    </g>
</svg>