<?xml version="1.0" encoding="UTF-8"?>
<svg width="15px" height="15px" viewBox="0 0 15 15" version="1.1" xmlns="http://www.w3.org/2000/svg" xmlns:xlink="http://www.w3.org/1999/xlink">
    <!-- Generator: Sketch 63.1 (92452) - https://sketch.com -->
    <title>ic:round-search</title>
    <desc>Created with Sketch.</desc>
    <g id="Icons" stroke="none" stroke-width="1" fill="none" fill-rule="evenodd">
        <g id="Artboard" transform="translate(-90.000000, -47.000000)">
            <g id="ic:round-search" transform="translate(90.000000, 47.000000)">
                <rect id="ViewBox" x="0.9375" y="0.9375" width="14.0625" height="14.0625"></rect>
                <path d="M10.9990304,9.67363026 L10.3039746,9.67363026 L10.0576258,9.43621882 C11.1709099,8.14362179 11.6484332,6.42167599 11.3597555,4.74074802 C10.9462413,2.29628943 8.90506497,0.344239774 6.44157626,0.0452772139 C4.68644954,-0.176633358 2.92729111,0.425133726 1.6763371,1.67535443 C0.425383086,2.92557513 -0.176736962,4.68370234 0.045303771,6.4378002 C0.344441686,8.89984481 2.29763631,10.9398246 4.74352868,11.3530964 C6.42544259,11.6416049 8.14839839,11.1643615 9.44175359,10.05173 L9.67930428,10.2979344 L9.67930428,10.9925827 L13.4185282,14.7296147 C13.7792534,15.0901284 14.368731,15.0901284 14.7294561,14.7296147 C15.0901813,14.3691011 15.0901813,13.779969 14.7294561,13.4194553 L10.9990304,9.67363026 Z M5.72012599,9.67363026 C3.52938067,9.67363026 1.7609477,7.90623395 1.7609477,5.71677285 C1.7609477,3.52731174 3.52938067,1.75991543 5.72012599,1.75991543 C7.91087131,1.75991543 9.67930428,3.52731174 9.67930428,5.71677285 C9.67930428,7.90623395 7.91087131,9.67363026 5.72012599,9.67363026 Z" id="Shape" fill="#000000" fill-rule="nonzero"></path>
            </g>
        </g>
    </g>
</svg>