<?xml version="1.0" encoding="UTF-8"?>
<svg width="40px" height="40px" viewBox="0 0 40 40" version="1.1" xmlns="http://www.w3.org/2000/svg" xmlns:xlink="http://www.w3.org/1999/xlink">
    <!-- Generator: Sketch 63.1 (92452) - https://sketch.com -->
    <title>swagger</title>
    <desc>Created with Sketch.</desc>
    <g id="Icons" stroke="none" stroke-width="1" fill="none" fill-rule="evenodd">
        <g id="swagger" fill-rule="nonzero">
            <g id="Icon" fill="#000000">
                <path d="M20,0 C8.97166667,0 0,8.97166667 0,20 C0,31.0283333 8.97166667,40 20,40 C31.0266667,40 40,31.0283333 40,20 C40,8.97166667 31.0266667,0 20,0 Z M20,1.90666667 C29.9916667,1.90666667 38.0933333,10.0066667 38.0933333,20 C38.0933333,29.9916667 29.9933333,38.0933333 20,38.0933333 C10.0066667,38.0933333 1.90666667,29.9933333 1.90666667,20 C1.90666667,10.0066667 10.0066667,1.90666667 20,1.90666667 Z M13.95,9.78 C13.7149708,9.77536418 13.4798539,9.77814334 13.245,9.78833333 C11.6066667,9.88166667 10.6233333,10.65 10.3533333,12.2416667 C10.1616667,13.35 10.1933333,14.4883333 10.115,15.6033333 C10.0933333,16.1866667 10.0316667,16.765 9.92333333,17.3333333 C9.7,18.3483333 9.26166667,18.6633333 8.23,18.7166667 C8.09342787,18.7336513 7.95772425,18.7570102 7.82333333,18.7866667 L7.82333333,21.225 C9.7,21.3166667 9.95333333,21.9783333 10.1066667,23.94 C10.1616667,24.655 10.085,25.37 10.1316667,26.085 C10.1616667,26.7616667 10.2533333,27.4316667 10.3916667,28.085 C10.8233333,29.8766667 12.57,30.4766667 14.6833333,30.115 L14.6833333,27.9766667 C14.345,27.9766667 14.045,27.985 13.7533333,27.9766667 C13.0366667,27.955 12.7683333,27.7766667 12.7,27.085 C12.6066667,26.1933333 12.63,25.285 12.575,24.385 C12.4683333,22.7166667 12.2833333,21.0716667 10.6533333,20.01 C11.4916667,19.3933333 12.1,18.6566667 12.2916667,17.68 C12.43,16.9966667 12.515,16.3116667 12.5683333,15.6183333 C12.615,14.9266667 12.53,14.2183333 12.5916667,13.535 C12.6916667,12.4266667 12.7616667,11.9733333 14.0916667,12.0183333 C14.2916667,12.0183333 14.4833333,11.99 14.7066667,11.9733333 L14.7066667,9.79 C14.44,9.79 14.19,9.78333333 13.95,9.78 L13.95,9.78 Z M26.605,9.795 C26.1511717,9.78480726 25.6974152,9.81829482 25.25,9.895 L25.25,12.0183333 C25.6583333,12.0183333 25.9733333,12.0183333 26.2883333,12.0266667 C26.835,12.0333333 27.25,12.2433333 27.305,12.85 C27.3583333,13.4033333 27.3566667,13.965 27.4116667,14.5266667 C27.52,15.6416667 27.58,16.7716667 27.7733333,17.8716667 C27.9433333,18.7783333 28.565,19.455 29.3416667,20.01 C27.98,20.925 27.58,22.2316667 27.5116667,23.7016667 C27.4733333,24.7083333 27.45,25.7233333 27.3966667,26.7383333 C27.35,27.6616667 27.0266667,27.9616667 26.0966667,27.985 C25.835,27.9916667 25.58,28.015 25.29,28.0316667 L25.29,30.2066667 C25.835,30.2066667 26.335,30.2383333 26.835,30.2066667 C28.3883333,30.115 29.3266667,29.3616667 29.635,27.8533333 C29.765,27.0233333 29.8416667,26.1866667 29.865,25.3466667 C29.9183333,24.5783333 29.9116667,23.8016667 29.9883333,23.04 C30.1033333,21.8483333 30.65,21.3566667 31.8416667,21.2783333 C31.9546079,21.2644965 32.065777,21.2387991 32.1733333,21.2016667 L32.1733333,18.7633333 C31.9733333,18.74 31.8333333,18.7183333 31.6883333,18.71 C30.795,18.6716667 30.3483333,18.3716667 30.1266667,17.5266667 C29.9884492,16.9845823 29.9036006,16.4302752 29.8733333,15.8716667 C29.8116667,14.8416667 29.8183333,13.8033333 29.75,12.7716667 C29.6166667,10.785 28.4266667,9.85 26.605,9.795 L26.605,9.795 Z M15.1216667,18.5949991 C14.3711035,18.5941711 13.7521004,19.1827653 13.7151519,19.9324189 C13.6782034,20.6820726 14.2363264,21.3286843 14.9833333,21.4016667 L15.075,21.4016667 C15.8375865,21.4462329 16.4919505,20.8642444 16.5366667,20.1016667 L16.5366667,20.025 C16.5487359,19.2484425 15.9298639,18.6086929 15.1533333,18.5949991 L15.1216667,18.5949991 Z M19.9733333,18.595 C19.2307023,18.5706581 18.6086831,19.1524027 18.5833333,19.895 C18.5833333,19.94 18.5833333,19.9783333 18.59,20.025 C18.59,20.8633333 19.16,21.4016667 20.0216667,21.4016667 C20.8666667,21.4016667 21.3983333,20.8483333 21.3983333,19.98 C21.39,19.1416667 20.8283333,18.5866667 19.9733333,18.595 L19.9733333,18.595 Z M24.9116667,18.595 C24.1260742,18.580957 23.4752678,19.2013033 23.4516667,19.9866667 C23.4516667,20.77 24.0816667,21.4016667 24.8666667,21.4016667 L24.8816667,21.4016667 C25.59,21.525 26.3033333,20.84 26.35,20.0183333 C26.3883333,19.2566667 25.6966667,18.595 24.9116667,18.595 L24.9116667,18.595 Z" id="Icon-Shape"></path>
            </g>
            <rect id="ViewBox" x="0" y="0" width="40" height="40"></rect>
        </g>
    </g>
</svg>