<?xml version="1.0" encoding="UTF-8"?>
<svg width="20px" height="19px" viewBox="0 0 20 19" version="1.1" xmlns="http://www.w3.org/2000/svg" xmlns:xlink="http://www.w3.org/1999/xlink">
    <!-- Generator: Sketch 63.1 (92452) - https://sketch.com -->
    <title>table-arrow-down</title>
    <desc>Created with Sketch.</desc>
    <g id="ID-Mappinng" stroke="none" stroke-width="1" fill="none" fill-rule="evenodd">
        <g id="Artboard" transform="translate(-1182.000000, -903.000000)">
            <g id="table-arrow-down" transform="translate(1180.000000, 900.000000)">
                <rect id="ViewBox" x="0" y="0" width="24" height="24"></rect>
                <path d="M4,3 L18,3 C19.1045695,3 20,3.8954305 20,5 L20,12.08 C18.4954251,11.8272266 16.9510295,12.1561256 15.68,13 L12,13 L12,17 L13.08,17 C12.97,17.68 12.97,18.35 13.08,19 L4,19 C2.8954305,19 2,18.1045695 2,17 L2,5 C2,3.9 2.9,3 4,3 M4,7 L4,11 L10,11 L10,7 L4,7 M12,7 L12,11 L18,11 L18,7 L12,7 M4,13 L4,17 L10,17 L10,13 L4,13 M15.94,18.5 L17.94,18.5 L17.94,14.5 L19.94,14.5 L19.94,18.5 L21.94,18.5 L18.94,21.5 L15.94,18.5" id="Shape" fill="#2F78B7" fill-rule="nonzero"></path>
            </g>
        </g>
    </g>
</svg>