<?xml version="1.0" encoding="UTF-8"?>
<svg width="283px" height="212px" viewBox="0 0 283 212" version="1.1" xmlns="http://www.w3.org/2000/svg" xmlns:xlink="http://www.w3.org/1999/xlink">
    <!-- Generator: Sketch 63.1 (92452) - https://sketch.com -->
    <title>api-img</title>
    <desc>Created with Sketch.</desc>
    <g id="api-img" stroke="none" stroke-width="1" fill="none" fill-rule="evenodd">
        <g id="API-img" transform="translate(58.722500, 16.272500)" fill="#5F5F5F">
            <g id="Icon" fill-rule="nonzero">
                <path d="M83.7642962,55.3133774 C83.4850521,54.9565715 83.0571638,54.748096 82.604077,54.748096 C82.1509902,54.748096 81.7231019,54.9565715 81.4438578,55.3133774 L60.8177393,81.4091005 C60.4707856,81.8521573 60.4072997,82.4544372 60.6542498,82.960097 C60.9011999,83.4657568 61.4152199,83.785999 61.9779585,83.7847874 L75.5875135,83.7847874 L75.5875135,128.425601 C75.5875135,129.235913 76.2504958,129.898895 77.0608076,129.898895 L88.110514,129.898895 C88.9208258,129.898895 89.5838082,129.235913 89.5838082,128.425601 L89.5838082,83.8032036 L103.230195,83.8032036 C104.464079,83.8032036 105.145478,82.3851579 104.390415,81.4275167 L83.7642962,55.3133774 Z" id="Icon-Path"></path>
                <path d="M137.742112,38.3152458 C129.307502,16.0685037 107.815824,0.249007467 82.6409093,0.249007467 C57.4659951,0.249007467 35.9743162,16.0500875 27.5397071,38.2968296 C11.7570432,42.4404695 0.0996029867,56.8235039 0.0996029867,73.9137164 C0.0996029867,94.2635922 16.5820816,110.746071 36.9135413,110.746071 L44.2984283,110.746071 C45.1087401,110.746071 45.7717225,110.083088 45.7717225,109.272777 L45.7717225,98.2230703 C45.7717225,97.4127585 45.1087401,96.7497762 44.2984283,96.7497762 L36.9135413,96.7497762 C30.7072895,96.7497762 24.8693614,94.2820084 20.5231435,89.8068773 C16.1953419,85.3501625 13.8933197,79.3464887 14.0958977,73.1218208 C14.2616433,68.25995 15.9190992,63.692738 18.9209361,59.843757 C21.9964377,55.9211112 26.3058232,53.0666038 31.0940293,51.7958875 L38.0737604,49.972686 L40.6336091,43.2323651 C42.2174003,39.0334767 44.4273416,35.110831 47.2081843,31.5565088 C49.9535158,28.033636 53.2054934,24.93681 56.8582612,22.3668363 C64.4273101,17.0445611 73.3407398,14.226886 82.6409093,14.226886 C91.9410788,14.226886 100.854509,17.0445611 108.423557,22.3668363 C112.088377,24.9451011 115.329624,28.0390189 118.073634,31.5565088 C120.854477,35.110831 123.064418,39.0518929 124.64821,43.2323651 L127.189642,49.9542698 L134.150957,51.7958875 C144.132525,54.4846494 151.112256,63.5638248 151.112256,73.9137164 C151.112256,80.0094711 148.736569,85.7553184 144.427184,90.0647038 C140.158435,94.358414 134.349191,96.7656692 128.294613,96.7497762 L120.909726,96.7497762 C120.099414,96.7497762 119.436431,97.4127585 119.436431,98.2230703 L119.436431,109.272777 C119.436431,110.083088 120.099414,110.746071 120.909726,110.746071 L128.294613,110.746071 C148.626072,110.746071 165.108551,94.2635922 165.108551,73.9137164 C165.108551,56.8419201 153.487943,42.4773019 137.742112,38.3152458 Z" id="Icon-Path"></path>
            </g>
            <text id="API-text" font-family="Tahoma-Bold, Tahoma" font-size="47.8094336" font-weight="bold" letter-spacing="1.99205988">
                <tspan x="33.4666035" y="178.147903">API</tspan>
            </text>
        </g>
    </g>
</svg>