<?xml version="1.0" encoding="UTF-8"?>
<svg width="400px" height="300px" viewBox="0 0 400 300" version="1.1" xmlns="http://www.w3.org/2000/svg" xmlns:xlink="http://www.w3.org/1999/xlink">
    <!-- Generator: Sketch 63.1 (92452) - https://sketch.com -->
    <title>api-img</title>
    <desc>Created with Sketch.</desc>
    <g id="api-img" stroke="none" stroke-width="1" fill="none" fill-rule="evenodd">
        <g id="API-img" transform="translate(83.000000, 23.000000)" fill="#5F5F5F">
            <g id="Icon" fill-rule="nonzero">
                <path d="M118.394765,78.1814521 C118.000074,77.6771329 117.395285,77.3824678 116.754879,77.3824678 C116.114474,77.3824678 115.509685,77.6771329 115.114993,78.1814521 L85.961469,115.065866 C85.4710751,115.692095 85.3813423,116.543374 85.7303884,117.258088 C86.0794345,117.972801 86.8059645,118.42544 87.6013548,118.423728 L106.837475,118.423728 L106.837475,181.520284 C106.837475,182.665601 107.774552,183.602679 108.919869,183.602679 L124.537829,183.602679 C125.683146,183.602679 126.620224,182.665601 126.620224,181.520284 L126.620224,118.449758 L145.908404,118.449758 C147.652409,118.449758 148.615516,116.445453 147.548289,115.091896 L118.394765,78.1814521 Z" id="Icon-Path"></path>
                <path d="M194.688497,54.1558245 C182.766788,22.711666 152.389857,0.351954017 116.806939,0.351954017 C81.2240213,0.351954017 50.8470901,22.6856361 38.925381,54.1297945 C16.6177289,59.9865293 0.140781607,80.3159066 0.140781607,104.471684 C0.140781607,133.234759 23.4375712,156.531549 52.1746166,156.531549 L62.6126196,156.531549 C63.7579366,156.531549 64.6950142,155.594471 64.6950142,154.449154 L64.6950142,138.831195 C64.6950142,137.685878 63.7579366,136.7488 62.6126196,136.7488 L52.1746166,136.7488 C43.4025294,136.7488 35.1510408,133.260789 29.0079767,126.935516 C22.8909426,120.636272 19.637201,112.150514 19.9235303,103.352397 C20.1577997,96.4804947 22.5004936,90.0250714 26.7433726,84.5848155 C31.0903713,79.0404399 37.1813755,75.0058004 43.949158,73.209735 L53.8145024,70.6327717 L57.432663,61.1058164 C59.6712372,55.1709918 62.7948291,49.6266162 66.7253489,44.6028392 C70.605676,39.6235138 75.2021108,35.2463745 80.3650335,31.6139029 C91.0633358,24.0912524 103.661823,20.1086728 116.806939,20.1086728 C129.952055,20.1086728 142.550542,24.0912524 153.248844,31.6139029 C158.428801,35.2580935 163.010069,39.6311221 166.888529,44.6028392 C170.819049,49.6266162 173.942641,55.1970218 176.181215,61.1058164 L179.773346,70.6067418 L189.61266,73.209735 C203.720884,77.0101052 213.586228,89.8428619 213.586228,104.471684 C213.586228,113.087592 210.228367,121.208931 204.137362,127.299935 C198.103794,133.368783 189.892849,136.771264 181.335142,136.7488 L170.897139,136.7488 C169.751822,136.7488 168.814744,137.685878 168.814744,138.831195 L168.814744,154.449154 C168.814744,155.594471 169.751822,156.531549 170.897139,156.531549 L181.335142,156.531549 C210.072187,156.531549 233.368977,133.234759 233.368977,104.471684 C233.368977,80.3419365 216.944089,60.0385892 194.688497,54.1558245 Z" id="Icon-Path"></path>
            </g>
            <text id="API-text" font-family="Tahoma-Bold, Tahoma" font-size="67.5751712" font-weight="bold" letter-spacing="2.81563227">
                <tspan x="47.3026198" y="251.954633">API</tspan>
            </text>
        </g>
    </g>
</svg>