<?xml version="1.0" encoding="UTF-8"?>
<svg width="283px" height="212px" viewBox="0 0 283 212" version="1.1" xmlns="http://www.w3.org/2000/svg" xmlns:xlink="http://www.w3.org/1999/xlink">
    <!-- Generator: Sketch 63.1 (92452) - https://sketch.com -->
    <title>composition-img</title>
    <desc>Created with Sketch.</desc>
    <g id="composition-img" stroke="none" stroke-width="1" fill="none" fill-rule="evenodd">
        <g id="comp2" transform="translate(15.000000, 23.000000)">
            <line x1="68.4907341" y1="46.015748" x2="5.75050452" y2="46.015748" id="Path" stroke="#000000" stroke-width="0.585591092"></line>
            <line x1="68.4907341" y1="5.60996266" x2="5.87933456" y2="5.60996266" id="Path" stroke="#000000" stroke-width="0.585591092"></line>
            <line x1="130.493119" y1="11.6883982" x2="130.493119" y2="25.6606017" id="Path" stroke="#000000" stroke-width="0.585591092"></line>
            <polygon id="Path" stroke="#000000" stroke-width="0.585591092" fill="#FA0000" fill-rule="nonzero" points="134.990459 15.7875358 125.902085 15.7875358 130.376001 6.74600938"></polygon>
            <polygon id="Path" stroke="#000000" stroke-width="0.585591092" fill="#C800C8" fill-rule="nonzero" points="10.7631643 46.0391717 5.77392817 51.2040851 0.737844776 45.9923244 5.72708088 40.8274109"></polygon>
            <path d="M31.879579,46.015748 C31.8985662,48.0710212 30.6751145,49.9345009 28.7817124,50.7342113 C26.8883103,51.5339216 24.6994496,51.1116895 23.2393616,49.6650896 C21.7792736,48.2184897 21.3367459,46.0336419 22.11885,44.1328996 C22.9009541,42.2321572 24.7529993,40.9914641 26.8083602,40.9913764 C28.1490048,40.9788757 29.4390415,41.5027039 30.3914505,42.4463147 C31.3438595,43.3899254 31.8796373,44.6750451 31.879579,46.015748 L31.879579,46.015748 Z" id="Path" stroke="#000000" stroke-width="0.585591092" fill="#FFFF00" fill-rule="nonzero"></path>
            <path d="M32.0084091,5.60996266 C32.0084091,8.4107195 29.7379471,10.6811815 26.9371902,10.6811815 C24.1364334,10.6811815 21.8659714,8.4107195 21.8659714,5.60996266 C21.8659714,2.80920582 24.1364334,0.538743805 26.9371902,0.538743805 C29.7379471,0.538743805 32.0084091,2.80920582 32.0084091,5.60996266 Z" id="Path" stroke="#000000" stroke-width="0.585591092" fill="#FFFF00" fill-rule="nonzero"></path>
            <line x1="89.5603016" y1="25.637178" x2="68.4907341" y2="46.015748" id="Path" stroke="#000000" stroke-width="0.585591092"></line>
            <line x1="68.4907341" y1="5.60996266" x2="89.5603016" y2="25.637178" id="Path" stroke="#000000" stroke-width="0.585591092"></line>
            <line x1="140.729251" y1="25.6254662" x2="89.5603016" y2="25.637178" id="Path" stroke="#000000" stroke-width="0.585591092"></line>
            <rect id="Rectangle" stroke="#000000" stroke-width="0.585591092" fill="#0000FA" fill-rule="nonzero" x="105.535227" y="20.6010946" width="9.40459294" height="9.49828751"></rect>
            <rect id="Rectangle" stroke="#000000" stroke-width="0.585591092" fill="#0000FA" fill-rule="nonzero" x="126.06605" y="20.6010946" width="9.40459294" height="9.49828751"></rect>
            <path d="M94.6315205,25.637178 C94.6743679,23.571206 93.4622145,21.6849197 91.5651956,20.8655324 C89.6681767,20.0461451 87.4639116,20.4567635 85.9891747,21.9042535 C84.5144378,23.3517436 84.0627892,25.5479688 84.8466615,27.4599365 C85.6305338,29.3719042 87.4938898,30.6190193 89.5603016,30.6147023 C90.892865,30.6271851 92.1758027,30.1097678 93.1268534,29.1762885 C94.0779041,28.2428092 94.6191536,26.9697425 94.6315205,25.637178 L94.6315205,25.637178 Z" id="Path" stroke="#000000" stroke-width="0.585591092" fill="#00C832" fill-rule="nonzero"></path>
            <path d="M73.5736648,5.60996266 C73.443503,2.90068818 71.2089894,0.77095018 68.49659,0.77095018 C65.7841907,0.77095018 63.5496771,2.90068818 63.4195153,5.60996266 C63.5496771,8.31923714 65.7841907,10.4489751 68.49659,10.4489751 C71.2089894,10.4489751 73.443503,8.31923714 73.5736648,5.60996266 L73.5736648,5.60996266 Z" id="Path" stroke="#000000" stroke-width="0.585591092" fill="#00C832" fill-rule="nonzero"></path>
            <path d="M73.5736648,46.015748 C73.6164946,43.9508415 72.4056025,42.0653164 70.5100353,41.2452565 C68.6144682,40.4251966 66.4111486,40.8336662 64.9355048,42.2787091 C63.4598611,43.7237519 63.0053166,45.9180294 63.7854799,47.8303626 C64.5656433,49.7426958 66.4253836,50.9928282 68.4907341,50.9932723 C69.8253153,51.0088851 71.1112677,50.4928548 72.0648593,49.5590381 C73.0184509,48.6252214 73.5613116,47.3503633 73.5736648,46.015748 L73.5736648,46.015748 Z" id="Path" stroke="#000000" stroke-width="0.585591092" fill="#00C832" fill-rule="nonzero"></path>
            <rect id="Rectangle" stroke="#000000" stroke-width="0.585591092" fill="#0000FA" fill-rule="nonzero" x="42.7130142" y="0.866674816" width="9.40459294" height="9.49828751"></rect>
            <rect id="Rectangle" stroke="#000000" stroke-width="0.585591092" fill="#0000FA" fill-rule="nonzero" x="42.7130142" y="41.2607483" width="9.40459294" height="9.49828751"></rect>
            <polygon id="Path" stroke="#000000" stroke-width="0.585591092" fill="#C800C8" fill-rule="nonzero" points="10.8919943 5.6333863 5.90275821 10.7982997 0.866674816 5.58653902 5.85591092 0.421625586"></polygon>
            <line x1="47.0815238" y1="120.936272" x2="47.0815238" y2="134.920188" id="Path" stroke="#000000" stroke-width="0.585591092"></line>
            <polygon id="Path" stroke="#000000" stroke-width="0.585591092" fill="#FA0000" fill-rule="nonzero" points="51.5788634 140.27249 42.4904896 140.27249 46.9644056 131.230964"></polygon>
            <line x1="68.1628031" y1="120.936272" x2="5.55140355" y2="120.936272" id="Path" stroke="#000000" stroke-width="0.585591092"></line>
            <line x1="68.1628031" y1="161.342058" x2="5.42257351" y2="161.342058" id="Path" stroke="#000000" stroke-width="0.585591092"></line>
            <polygon id="Path" stroke="#000000" stroke-width="0.585591092" fill="#C800C8" fill-rule="nonzero" points="10.4352333 161.365481 5.44599716 166.530395 0.409913764 161.318634 5.39914987 156.153721"></polygon>
            <path d="M31.551648,161.342058 C31.5897001,163.401274 30.3785553,165.278985 28.4869021,166.09352 C26.5952489,166.908055 24.39884,166.497616 22.9289909,165.054923 C21.4591417,163.61223 21.007819,161.423857 21.7869395,159.517344 C22.5660601,157.610832 24.4208616,156.364885 26.4804292,156.364533 C27.8129926,156.352051 29.0959303,156.869468 30.046981,157.802947 C30.9980317,158.736426 31.5392811,160.009493 31.551648,161.342058 Z" id="Path" stroke="#000000" stroke-width="0.585591092" fill="#FFFF00" fill-rule="nonzero"></path>
            <path d="M31.6804781,120.936272 C31.7137567,122.994523 30.4995168,124.868685 28.6074107,125.67951 C26.7153046,126.490335 24.5207742,126.076933 23.0533683,124.63325 C21.5859623,123.189566 21.1368514,121.002064 21.9167329,119.096996 C22.6966143,117.191927 24.5507398,115.947305 26.6092592,115.947036 C29.3861031,115.927543 31.6547148,118.15948 31.6804781,120.936272 L31.6804781,120.936272 Z" id="Path" stroke="#000000" stroke-width="0.585591092" fill="#FFFF00" fill-rule="nonzero"></path>
            <line x1="89.2206588" y1="140.963488" x2="68.1628031" y2="161.342058" id="Path" stroke="#000000" stroke-width="0.585591092"></line>
            <line x1="68.1628031" y1="120.936272" x2="89.2206588" y2="140.963488" id="Path" stroke="#000000" stroke-width="0.585591092"></line>
            <line x1="140.40132" y1="140.951776" x2="89.2206588" y2="140.963488" id="Path" stroke="#000000" stroke-width="0.585591092"></line>
            <rect id="Rectangle" stroke="#000000" stroke-width="0.585591092" fill="#0000FA" fill-rule="nonzero" x="105.207296" y="135.927404" width="9.40459294" height="9.49828751"></rect>
            <rect id="Rectangle" stroke="#000000" stroke-width="0.585591092" fill="#0000FA" fill-rule="nonzero" x="125.726407" y="135.927404" width="9.40459294" height="9.49828751"></rect>
            <path d="M94.3035895,140.963488 C94.3464193,138.898581 93.1355272,137.013056 91.23996,136.192996 C89.3443928,135.372936 87.1410732,135.781406 85.6654295,137.226449 C84.1897858,138.671492 83.7352412,140.865769 84.5154046,142.778102 C85.295568,144.690435 87.1553082,145.940568 89.2206588,145.941012 C90.5552399,145.956625 91.8411923,145.440594 92.794784,144.506778 C93.7483756,143.572961 94.2912363,142.298103 94.3035895,140.963488 L94.3035895,140.963488 Z" id="Path" stroke="#000000" stroke-width="0.585591092" fill="#00C832" fill-rule="nonzero"></path>
            <path d="M73.2457338,120.936272 C73.2837855,118.872318 72.0697863,116.990336 70.1737559,116.173989 C68.2777256,115.357641 66.0762788,115.769083 64.6030802,117.215126 C63.1298816,118.661169 62.6775575,120.85458 63.4584916,122.765469 C64.2394257,124.676358 66.0984984,125.925158 68.1628031,125.925508 C69.4984726,125.937991 70.7843892,125.41934 71.7376363,124.483664 C72.6908834,123.547989 73.2333667,122.271943 73.2457338,120.936272 Z" id="Path" stroke="#000000" stroke-width="0.585591092" fill="#00C832" fill-rule="nonzero"></path>
            <path d="M73.2457338,161.342058 C73.2933465,159.276212 72.0855737,157.387151 70.1904802,156.563375 C68.2953867,155.7396 66.0902,156.145088 64.6121092,157.589122 C63.1340184,159.033155 62.6772447,161.228292 63.4566273,163.14207 C64.23601,165.055849 66.096409,166.307322 68.1628031,166.30787 C69.495376,166.323492 70.7795664,165.809064 71.7328207,164.877774 C72.6860749,163.946485 73.2302931,162.674633 73.2457338,161.342058 L73.2457338,161.342058 Z" id="Path" stroke="#000000" stroke-width="0.585591092" fill="#00C832" fill-rule="nonzero"></path>
            <rect id="Rectangle" stroke="#000000" stroke-width="0.585591092" fill="#0000FA" fill-rule="nonzero" x="42.3850832" y="116.192984" width="9.40459294" height="9.49828751"></rect>
            <rect id="Rectangle" stroke="#000000" stroke-width="0.585591092" fill="#0000FA" fill-rule="nonzero" x="42.3850832" y="156.587058" width="9.40459294" height="9.49828751"></rect>
            <polygon id="Path" stroke="#000000" stroke-width="0.585591092" fill="#C800C8" fill-rule="nonzero" points="10.5640633 120.959696 5.5748272 126.136321 0.538743805 120.912849 5.52797991 115.747935"></polygon>
            <g id="Right-Node" transform="translate(170.564797, 69.348740)">
                <text id="2x" fill="#000000" font-family="ArialMT, Arial" font-size="10.5406397" font-weight="normal">
                    <tspan x="-5.19699836e-14" y="10">2x</tspan>
                </text>
                <text id="2x" fill="#000000" transform="translate(36.140261, 6.000006) rotate(-1.350000) translate(-36.140261, -6.000006) " font-family="ArialMT, Arial" font-size="10.5406397" font-weight="normal">
                    <tspan x="30.2843503" y="10.1440951">2x</tspan>
                </text>
                <text id="1x" fill="#000000" transform="translate(51.646713, 21.764118) rotate(-1.350000) translate(-51.646713, -21.764118) " font-family="ArialMT, Arial" font-size="10.5406397" font-weight="normal">
                    <tspan x="45.7908024" y="25.9082073">1x</tspan>
                </text>
                <text id="4x" fill="#000000" font-family="ArialMT, Arial" font-size="10.5406397" font-weight="normal">
                    <tspan x="59.5311904" y="10.0234236">4x</tspan>
                </text>
                <text id="3x" fill="#000000" font-family="ArialMT, Arial" font-size="10.5406397" font-weight="normal">
                    <tspan x="18.4109839" y="25.775824">3x</tspan>
                </text>
                <polygon id="Path" stroke="#000000" stroke-width="0.585591092" fill="#FA0000" fill-rule="nonzero" points="68.432175 25.4849243 59.3555131 25.4849243 63.829429 16.4433979"></polygon>
                <polygon id="Path" stroke="#000000" stroke-width="0.585591092" fill="#C800C8" fill-rule="nonzero" points="23.4939146 5.90275821 18.5046785 11.0676716 13.4685951 5.85591092 18.4578312 0.679285667"></polygon>
                <path d="M53.9914987,5.87933456 C54.0295504,7.94328855 52.8155512,9.82527105 50.9195208,10.6416183 C49.0234905,11.4579656 46.8220437,11.0465239 45.3488451,9.60048106 C43.8756465,8.1544382 43.4233224,5.96102647 44.2042565,4.05013768 C44.9851906,2.13924889 46.8442633,0.890449196 48.908568,0.89009846 C50.2451624,0.874487325 51.532883,1.39211978 52.4868135,2.32846629 C53.440744,3.2648128 53.9822424,4.5426811 53.9914987,5.87933456 Z" id="Path" stroke="#000000" stroke-width="0.585591092" fill="#FFFF00" fill-rule="nonzero"></path>
                <path d="M42.0337286,21.6317349 C42.076576,19.5657629 40.8644226,17.6794767 38.9674037,16.8600893 C37.0703848,16.040702 34.8661198,16.4513204 33.3913829,17.8988104 C31.9166459,19.3463005 31.4649974,21.5425257 32.2488696,23.4544934 C33.0327419,25.3664612 34.8960979,26.6135763 36.9625097,26.6092592 C38.2950731,26.621742 39.5780109,26.1043248 40.5290616,25.1708455 C41.4801123,24.2373661 42.0213617,22.9642994 42.0337286,21.6317349 L42.0337286,21.6317349 Z" id="Path" stroke="#000000" stroke-width="0.585591092" fill="#00C832" fill-rule="nonzero"></path>
                <rect id="Rectangle" stroke="#000000" stroke-width="0.585591092" fill="#0000FA" fill-rule="nonzero" x="73.0114973" y="1.1243349" width="9.40459294" height="9.49828751"></rect>
            </g>
            <g id="Bottom-arrow" transform="translate(123.766386, 105.746039)">
                <line x1="41.483273" y1="-4.24902736e-13" x2="18.9380159" y2="8.36224079" id="Path" fill="#231F20" fill-rule="nonzero"></line>
                <line x1="41.483273" y1="-2.41082979e-13" x2="23.9038284" y2="6.51177294" id="Path" stroke="#231F20" stroke-width="1.17118218"></line>
                <path d="M18.9380159,8.36224079 C21.139655,6.49857772 23.0260885,4.29180643 24.5245549,1.82704421 L24.5245549,6.27753651 L27.3939513,9.66225302 C24.6643057,8.77385239 21.8084631,8.33479625 18.9380159,8.36224079 Z" id="Path" fill="#231F20" fill-rule="nonzero"></path>
                <line x1="41.483273" y1="-5.27399093e-13" x2="3.34917672e-13" y2="15.2605039" id="Path" stroke="#231F20" stroke-width="1.17118218" fill="#231F20" fill-rule="nonzero"></line>
            </g>
            <g id="Top-arrow" transform="translate(123.719538, 47.362608)">
                <line x1="41.1670538" y1="14.6046418" x2="18.9731514" y2="6.72258574" id="Path" fill="#231F20" fill-rule="nonzero"></line>
                <line x1="41.1670538" y1="14.6046418" x2="23.9740993" y2="8.49107083" id="Path" stroke="#231F20" stroke-width="1.17118218"></line>
                <path d="M18.9731514,6.72258574 C21.8561058,6.72802427 24.7204829,6.26117828 27.4525104,5.34059076 L24.6299613,8.77215456 L24.6299613,13.2226469 C23.1162053,10.7584727 21.2047316,8.56205878 18.9731514,6.72258574 L18.9731514,6.72258574 Z" id="Path" fill="#231F20" fill-rule="nonzero"></path>
                <line x1="41.1670538" y1="14.6046418" x2="-5.00451694e-14" y2="4.26346347e-13" id="Path" stroke="#231F20" stroke-width="1.17118218" fill="#231F20" fill-rule="nonzero"></line>
            </g>
        </g>
    </g>
</svg>