<?xml version="1.0" encoding="UTF-8"?>
<svg width="283px" height="212px" viewBox="0 0 283 212" version="1.1" xmlns="http://www.w3.org/2000/svg" xmlns:xlink="http://www.w3.org/1999/xlink">
    <!-- Generator: Sketch 63.1 (92452) - https://sketch.com -->
    <title>data-img</title>
    <desc>Created with Sketch.</desc>
    <g id="data-img" stroke="none" stroke-width="1" fill="none" fill-rule="evenodd">
        <g id="data-model" transform="translate(55.892500, 17.687500)" stroke="#5F5F5F">
            <g id="Group-2" transform="translate(61.815657, 0.000000)" stroke-width="2.28946879">
                <rect id="Rectangle" fill="#FFFFFF" x="0" y="0" width="45.7893758" height="48.0788446" rx="9.15787517"></rect>
                <path d="M36.6315007,0 C41.6892555,8.47262356e-16 45.7893758,4.10012037 45.7893758,9.15787517 L45.7893758,13.7368128 L0,13.7368128 L0,9.15787517 C-6.19396322e-16,4.10012037 4.10012037,2.70545132e-15 9.15787517,0 L36.6315007,0 Z" id="Combined-Shape" fill="#5F5F5F"></path>
            </g>
            <g id="Group-2-Copy" transform="translate(0.000000, 64.105126)" stroke-width="2.28946879">
                <rect id="Rectangle" fill="#FFFFFF" x="0" y="0" width="45.7893758" height="48.0788446" rx="9.15787517"></rect>
                <path d="M36.6315007,0 C41.6892555,8.47262356e-16 45.7893758,4.10012037 45.7893758,9.15787517 L45.7893758,13.7368128 L0,13.7368128 L0,9.15787517 C-6.19396322e-16,4.10012037 4.10012037,2.70545132e-15 9.15787517,0 L36.6315007,0 Z" id="Combined-Shape" fill="#5F5F5F"></path>
            </g>
            <g id="Group-2-Copy-2" transform="translate(61.815657, 64.105126)" stroke-width="2.28946879">
                <rect id="Rectangle" fill="#FFFFFF" x="0" y="0" width="45.7893758" height="48.0788446" rx="9.15787517"></rect>
                <path d="M36.6315007,0 C41.6892555,8.47262356e-16 45.7893758,4.10012037 45.7893758,9.15787517 L45.7893758,13.7368128 L0,13.7368128 L0,9.15787517 C-6.19396322e-16,4.10012037 4.10012037,2.70545132e-15 9.15787517,0 L36.6315007,0 Z" id="Combined-Shape" fill="#5F5F5F"></path>
            </g>
            <g id="Group-2-Copy-3" transform="translate(125.920784, 64.105126)" stroke-width="2.28946879">
                <rect id="Rectangle" fill="#FFFFFF" x="0" y="0" width="45.7893758" height="48.0788446" rx="9.15787517"></rect>
                <path d="M36.6315007,0 C41.6892555,8.47262356e-16 45.7893758,4.10012037 45.7893758,9.15787517 L45.7893758,13.7368128 L0,13.7368128 L0,9.15787517 C-6.19396322e-16,4.10012037 4.10012037,2.70545132e-15 9.15787517,0 L36.6315007,0 Z" id="Combined-Shape" fill="#5F5F5F"></path>
            </g>
            <g id="Group-2-Copy-4" transform="translate(125.920784, 128.210252)" stroke-width="2.28946879">
                <rect id="Rectangle" fill="#FFFFFF" x="0" y="0" width="45.7893758" height="48.0788446" rx="9.15787517"></rect>
                <path d="M36.6315007,0 C41.6892555,8.47262356e-16 45.7893758,4.10012037 45.7893758,9.15787517 L45.7893758,13.7368128 L0,13.7368128 L0,9.15787517 C-6.19396322e-16,4.10012037 4.10012037,2.70545132e-15 9.15787517,0 L36.6315007,0 Z" id="Combined-Shape" fill="#5F5F5F"></path>
            </g>
            <g id="Group-2-Copy-5" transform="translate(0.000000, 128.210252)" stroke-width="2.28946879">
                <rect id="Rectangle" fill="#FFFFFF" x="0" y="0" width="45.7893758" height="48.0788446" rx="9.15787517"></rect>
                <path d="M36.6315007,0 C41.6892555,8.47262356e-16 45.7893758,4.10012037 45.7893758,9.15787517 L45.7893758,13.7368128 L0,13.7368128 L0,9.15787517 C-6.19396322e-16,4.10012037 4.10012037,2.70545132e-15 9.15787517,0 L36.6315007,0 Z" id="Combined-Shape" fill="#5F5F5F"></path>
            </g>
            <line x1="84.7103453" y1="50.3683134" x2="84.7103453" y2="61.8156574" id="Line" stroke-width="4.57893758" stroke-linecap="square"></line>
            <line x1="22.8946879" y1="114.47344" x2="22.8946879" y2="125.920784" id="Line-Copy" stroke-width="4.57893758" stroke-linecap="square"></line>
            <line x1="148.815471" y1="114.47344" x2="148.815471" y2="125.920784" id="Line-Copy-4" stroke-width="4.57893758" stroke-linecap="square"></line>
            <polyline id="Line-Copy-5" stroke-width="4.57893758" stroke-linecap="square" points="84.7103453 114.47344 84.7103453 153.394409 123.631315 153.394409"></polyline>
            <line x1="52.6577822" y1="84.7103453" x2="52.6577822" y2="96.1576893" id="Line-Copy-2" stroke-width="4.57893758" stroke-linecap="square" transform="translate(52.657782, 90.434017) rotate(-90.000000) translate(-52.657782, -90.434017) "></line>
            <line x1="116.762908" y1="84.7103453" x2="116.762908" y2="96.1576893" id="Line-Copy-3" stroke-width="4.57893758" stroke-linecap="square" transform="translate(116.762908, 90.434017) rotate(-90.000000) translate(-116.762908, -90.434017) "></line>
        </g>
    </g>
</svg>