<?xml version="1.0" encoding="UTF-8"?>
<svg width="283px" height="212px" viewBox="0 0 283 212" version="1.1" xmlns="http://www.w3.org/2000/svg" xmlns:xlink="http://www.w3.org/1999/xlink">
    <!-- Generator: Sketch 63.1 (92452) - https://sketch.com -->
    <title>gnome-browser-img</title>
    <desc>Created with Sketch.</desc>
    <defs>
        <polygon id="path-1" points="0 45.7206367 111.290184 45.7206367 111.290184 0.29454641 0 0.29454641"></polygon>
        <polygon id="path-3" points="0.500553048 0.31601093 4.9017798 0.31601093 4.9017798 9.10844107 0.500553048 9.10844107"></polygon>
        <polygon id="path-5" points="0 45.7206367 111.290184 45.7206367 111.290184 0.29454641 0 0.29454641"></polygon>
        <polygon id="path-7" points="0.500553048 0.316450551 4.9017798 0.316450551 4.9017798 9.10888069 0.500553048 9.10888069"></polygon>
    </defs>
    <g id="gnome-browser-img" stroke="none" stroke-width="1" fill="none" fill-rule="evenodd">
        <g id="Composition-img" transform="translate(14.000000, 7.000000)">
            <g id="Left-Node" transform="translate(0.000000, 87.425833)">
                <text id="2x" font-family="ArialMT, Arial" font-size="7.91318712" font-weight="normal" fill="#000000">
                    <tspan x="0" y="7.30642718">2x</tspan>
                </text>
                <text id="2x" font-family="ArialMT, Arial" font-size="8.09677306" font-weight="normal" fill="#000000">
                    <tspan x="22.8020245" y="7.31551086">2x</tspan>
                </text>
                <text id="1x" font-family="ArialMT, Arial" font-size="8.09677306" font-weight="normal" fill="#000000">
                    <tspan x="34.4462686" y="19.1446272">1x</tspan>
                </text>
                <text id="4x" font-family="ArialMT, Arial" font-size="7.91318712" font-weight="normal" fill="#000000">
                    <tspan x="44.6988684" y="7.32489128">4x</tspan>
                </text>
                <text id="3x" font-family="ArialMT, Arial" font-size="7.91318712" font-weight="normal" fill="#000000">
                    <tspan x="13.8216123" y="19.155106">3x</tspan>
                </text>
                <polygon id="Fill-2" fill="#FA0000" points="51.3807636 21.2463799 44.5604756 21.2463799 47.9183046 14.4603823"></polygon>
                <polygon id="Stroke-3" stroke="#000000" stroke-width="0.533084347" points="51.3807636 21.2463799 44.5604756 21.2463799 47.9183046 14.4603823"></polygon>
                <polygon id="Fill-4" fill="#C800C8" points="17.6441213 6.54614009 13.8976668 10.4253603 10.1160426 6.50921188 13.8616178 2.6299917"></polygon>
                <polygon id="Stroke-5" stroke="#000000" stroke-width="0.533084347" points="17.6441213 6.54614009 13.8976668 10.4253603 10.1160426 6.50921188 13.8616178 2.6299917"></polygon>
                <path d="M40.531872,6.52723636 C40.531872,8.5925782 38.8270198,10.2666569 36.7229913,10.2666569 C34.6207212,10.2666569 32.9149898,8.5925782 32.9149898,6.52723636 C32.9149898,4.46277376 34.6207212,2.78869507 36.7229913,2.78869507 C38.8270198,2.78869507 40.531872,4.46277376 40.531872,6.52723636" id="Fill-6" fill="#FFFF00"></path>
                <path d="M40.531872,6.52723636 C40.531872,8.5925782 38.8270198,10.2666569 36.7229913,10.2666569 C34.6207212,10.2666569 32.9149898,8.5925782 32.9149898,6.52723636 C32.9149898,4.46277376 34.6207212,2.78869507 36.7229913,2.78869507 C38.8270198,2.78869507 40.531872,4.46277376 40.531872,6.52723636 Z" id="Stroke-8" stroke="#000000" stroke-width="0.533084347"></path>
                <path d="M31.5565593,18.357539 C31.5565593,16.291318 29.8508279,14.6189977 27.7467993,14.6189977 C25.6445293,14.6189977 23.9387978,16.291318 23.9387978,18.357539 C23.9387978,20.4220016 25.6445293,22.0969596 27.7467993,22.0969596 C29.8508279,22.0969596 31.5565593,20.4220016 31.5565593,18.357539" id="Fill-10" fill="#00C832"></path>
                <path d="M31.5565593,18.357539 C31.5565593,16.291318 29.8508279,14.6189977 27.7467993,14.6189977 C25.6445293,14.6189977 23.9387978,16.291318 23.9387978,18.357539 C23.9387978,20.4220016 25.6445293,22.0969596 27.7467993,22.0969596 C29.8508279,22.0969596 31.5565593,20.4220016 31.5565593,18.357539 Z" id="Stroke-12" stroke="#000000" stroke-width="0.533084347"></path>
                <polygon id="Fill-14" fill="#0000FA" points="54.8164057 10.0937098 61.8793648 10.0937098 61.8793648 2.96129047 54.8164057 2.96129047"></polygon>
                <polygon id="Stroke-16" stroke="#000000" stroke-width="0.533084347" points="54.8164057 10.0937098 61.8793648 10.0937098 61.8793648 2.96129047 54.8164057 2.96129047"></polygon>
            </g>
            <g id="Middle-Node" transform="translate(84.174433, 80.716971)">
                <g id="Middle-Node-Lines" transform="translate(3.763600, 3.458063)" stroke="#000000" stroke-width="0.533084347">
                    <line x1="47.1054445" y1="0.439621507" x2="0.0967167315" y2="0.439621507" id="Stroke-49"></line>
                    <line x1="47.1054445" y1="30.7696368" x2="-8.12161657e-14" y2="30.7696368" id="Stroke-50"></line>
                    <line x1="93.6478217" y1="4.99682597" x2="93.6478217" y2="15.4879536" id="Stroke-51"></line>
                    <line x1="62.9151131" y1="15.4721272" x2="47.1054445" y2="30.7691972" id="Stroke-60"></line>
                    <line x1="47.1054445" y1="0.439621507" x2="62.9151131" y2="15.4720393" id="Stroke-61"></line>
                    <line x1="101.330032" y1="15.4618401" x2="62.9150252" y2="15.472391" id="Stroke-62"></line>
                </g>
                <polygon id="Fill-52" fill="#FA0000" points="100.786659 8.89960986 93.9663714 8.89960986 97.3242005 2.11361228"></polygon>
                <polygon id="Stroke-53" stroke="#000000" stroke-width="0.533084347" points="100.786659 8.89960986 93.9663714 8.89960986 97.3242005 2.11361228"></polygon>
                <polygon id="Fill-54" fill="#C800C8" points="7.52807868 34.2461637 3.7816242 38.1253839 0 34.2092355 3.74557524 30.3300153"></polygon>
                <polygon id="Stroke-55" stroke="#000000" stroke-width="0.533084347" points="7.52807868 34.2461637 3.7816242 38.1253839 0 34.2092355 3.74557524 30.3300153"></polygon>
                <path d="M23.3815336,34.22726 C23.3815336,36.2926018 21.6766814,37.9666805 19.5735321,37.9666805 C17.4703828,37.9666805 15.7655306,36.2926018 15.7655306,34.22726 C15.7655306,32.1627974 17.4703828,30.4887187 19.5735321,30.4887187 C21.6766814,30.4887187 23.3815336,32.1627974 23.3815336,34.22726" id="Fill-56" fill="#FFFF00"></path>
                <path d="M23.3815336,34.22726 C23.3815336,36.2926018 21.6766814,37.9666805 19.5735321,37.9666805 C17.4703828,37.9666805 15.7655306,36.2926018 15.7655306,34.22726 C15.7655306,32.1627974 17.4703828,30.4887187 19.5735321,30.4887187 C21.6766814,30.4887187 23.3815336,32.1627974 23.3815336,34.22726 Z" id="Stroke-57" stroke="#000000" stroke-width="0.533084347"></path>
                <path d="M23.4781624,3.89724466 C23.4781624,5.9625865 21.7733102,7.6366652 19.6701609,7.6366652 C17.5670116,7.6366652 15.8621594,5.9625865 15.8621594,3.89724466 C15.8621594,1.83278206 17.5670116,0.158703364 19.6701609,0.158703364 C21.7733102,0.158703364 23.4781624,1.83278206 23.4781624,3.89724466" id="Fill-58" fill="#FFFF00"></path>
                <path d="M23.4781624,3.89724466 C23.4781624,5.9625865 21.7733102,7.6366652 19.6701609,7.6366652 C17.5670116,7.6366652 15.8621594,5.9625865 15.8621594,3.89724466 C15.8621594,1.83278206 17.5670116,0.158703364 19.6701609,0.158703364 C21.7733102,0.158703364 23.4781624,1.83278206 23.4781624,3.89724466 Z" id="Stroke-59" stroke="#000000" stroke-width="0.533084347"></path>
                <polygon id="Fill-63" fill="#0000FA" points="78.6793249 22.2784353 85.742284 22.2784353 85.742284 15.1468952 78.6793249 15.1468952"></polygon>
                <polygon id="Fill-65" fill="#0000FA" points="94.0845417 22.2784353 101.14838 22.2784353 101.14838 15.1468952 94.0845417 15.1468952"></polygon>
                <path d="M70.4875935,18.93019 C70.4875935,16.8639689 68.7818621,15.1916487 66.6778336,15.1916487 C64.5746843,15.1916487 62.8698321,16.8639689 62.8698321,18.93019 C62.8698321,20.9946526 64.5746843,22.6687313 66.6778336,22.6687313 C68.7818621,22.6687313 70.4875935,20.9946526 70.4875935,18.93019" id="Fill-67" fill="#00C832"></path>
                <path d="M54.6779249,3.8981239 C54.6779249,1.83366131 52.9721935,0.158703364 50.8681649,0.158703364 C48.7650156,0.158703364 47.0601634,1.83366131 47.0601634,3.8981239 C47.0601634,5.96346574 48.7650156,7.6366652 50.8681649,7.6366652 C52.9721935,7.6366652 54.6779249,5.96346574 54.6779249,3.8981239" id="Fill-69" fill="#00C832"></path>
                <path d="M54.6779249,34.22726 C54.6779249,32.1619181 52.9721935,30.4887187 50.8681649,30.4887187 C48.7650156,30.4887187 47.0601634,32.1619181 47.0601634,34.22726 C47.0601634,36.2917226 48.7650156,37.9666805 50.8681649,37.9666805 C52.9721935,37.9666805 54.6779249,36.2917226 54.6779249,34.22726" id="Fill-71" fill="#00C832"></path>
                <polygon id="Fill-73" fill="#0000FA" points="31.5105749 7.46319055 38.5744133 7.46319055 38.5744133 0.331650465 31.5105749 0.331650465"></polygon>
                <polygon id="Fill-75" fill="#0000FA" points="31.5114541 37.7944368 38.5744133 37.7944368 38.5744133 30.6620175 31.5114541 30.6620175"></polygon>
                <polygon id="Fill-77" fill="#C800C8" points="7.62426787 3.91614838 3.87781339 7.79448932 0.0961891857 3.87922018 3.84176442 -7.99666863e-13"></polygon>
                <g id="Middle-Nodes-Symbles" transform="translate(6.576298, 1.831474)" fill="#000000" font-family="ArialMT, Arial" font-size="7.91318712" font-weight="normal">
                    <text id="??">
                        <tspan x="0" y="8.95455722">??</tspan>
                    </text>
                    <text id="??">
                        <tspan x="15.4623676" y="8.95455722">??</tspan>
                    </text>
                    <text id="??">
                        <tspan x="32.5785914" y="8.95455722">??</tspan>
                    </text>
                    <text id="??">
                        <tspan x="0" y="38.8664045">??</tspan>
                    </text>
                    <text id="??">
                        <tspan x="15.4623676" y="38.8664045">??</tspan>
                    </text>
                    <text id="??">
                        <tspan x="32.5785914" y="38.8664045">??</tspan>
                    </text>
                    <text id="??">
                        <tspan x="53.200357" y="29.8058053">??</tspan>
                    </text>
                    <text id="??">
                        <tspan x="53.6434955" y="7">??</tspan>
                    </text>
                    <text id="??">
                        <tspan x="63.2342783" y="23.9104809">??</tspan>
                    </text>
                    <text id="??">
                        <tspan x="79.0448262" y="23.9104809">??</tspan>
                    </text>
                    <text id="??">
                        <tspan x="95.3064257" y="11.0278122">??</tspan>
                    </text>
                </g>
                <polygon id="Stroke-64" stroke="#000000" stroke-width="0.533084347" points="78.6793249 22.2784353 85.742284 22.2784353 85.742284 15.1468952 78.6793249 15.1468952"></polygon>
                <polygon id="Stroke-66" stroke="#000000" stroke-width="0.533084347" points="94.0845417 22.2784353 101.14838 22.2784353 101.14838 15.1468952 94.0845417 15.1468952"></polygon>
                <path d="M70.4875935,18.93019 C70.4875935,16.8639689 68.7818621,15.1916487 66.6778336,15.1916487 C64.5746843,15.1916487 62.8698321,16.8639689 62.8698321,18.93019 C62.8698321,20.9946526 64.5746843,22.6687313 66.6778336,22.6687313 C68.7818621,22.6687313 70.4875935,20.9946526 70.4875935,18.93019 Z" id="Stroke-68" stroke="#000000" stroke-width="0.533084347"></path>
                <path d="M54.6779249,3.8981239 C54.6779249,1.83366131 52.9721935,0.158703364 50.8681649,0.158703364 C48.7650156,0.158703364 47.0601634,1.83366131 47.0601634,3.8981239 C47.0601634,5.96346574 48.7650156,7.6366652 50.8681649,7.6366652 C52.9721935,7.6366652 54.6779249,5.96346574 54.6779249,3.8981239 Z" id="Stroke-70" stroke="#000000" stroke-width="0.533084347"></path>
                <path d="M54.6779249,34.22726 C54.6779249,32.1619181 52.9721935,30.4887187 50.8681649,30.4887187 C48.7650156,30.4887187 47.0601634,32.1619181 47.0601634,34.22726 C47.0601634,36.2917226 48.7650156,37.9666805 50.8681649,37.9666805 C52.9721935,37.9666805 54.6779249,36.2917226 54.6779249,34.22726 Z" id="Stroke-72" stroke="#000000" stroke-width="0.533084347"></path>
                <polygon id="Stroke-74" stroke="#000000" stroke-width="0.533084347" points="31.5105749 7.46319055 38.5744133 7.46319055 38.5744133 0.331650465 31.5105749 0.331650465"></polygon>
                <polygon id="Stroke-76" stroke="#000000" stroke-width="0.533084347" points="31.5114541 37.7944368 38.5744133 37.7944368 38.5744133 30.6620175 31.5114541 30.6620175"></polygon>
                <polygon id="Stroke-78" stroke="#000000" stroke-width="0.533084347" points="7.62426787 3.91614838 3.87781339 7.79448932 0.0961891857 3.87922018 3.84176442 -7.99666863e-13"></polygon>
            </g>
            <g id="arrow-Left" transform="translate(65.036290, 98.087520)">
                <line x1="2.47884983" y1="3.71313117" x2="30.9847876" y2="4.00416061" id="Fill-131" fill="#231F20"></line>
                <line x1="2.47884983" y1="3.71313117" x2="21.5080645" y2="3.81973823" id="Stroke-132" stroke="#231F20" stroke-width="0.879243014"></line>
                <line x1="2.0483871" y1="3.81973823" x2="16.4544175" y2="3.94525133" id="Stroke-129" stroke="#231F20" stroke-width="0.879243014"></line>
                <path d="M15.4115071,4.00380891 C13.5290478,4.67115436 11.1876236,5.82208346 9.72983871,7.05654066 L10.9097828,3.93698644 L9.82215923,0.785779481 C11.2430159,2.06244034 13.5492704,3.2819504 15.4115071,4.00380891" id="Fill-130" fill="#231F20"></path>
            </g>
            <g id="arrow-Bottom" transform="translate(161.782459, 114.280490)">
                <line x1="0.0189037248" y1="0.428894742" x2="18.110208" y2="28.1742873" id="Fill-137" fill="#231F20"></line>
                <line x1="0.0189037248" y1="0.428894742" x2="18.110208" y2="28.1742873" id="Stroke-138" stroke="#231F20" stroke-width="0.879243014"></line>
                <line x1="0.0189037248" y1="0.428894742" x2="10.68588" y2="17.1169271" id="Fill-134" fill="#231F20"></line>
                <line x1="0.0189037248" y1="0.428894742" x2="8.54316474" y2="13.7643735" id="Stroke-135" stroke="#231F20" stroke-width="0.879243014"></line>
                <path d="M5.00799236,14.0576011 L8.26207075,13.3243124 L10.2931221,10.6795494 C10.0100059,12.5699219 10.2632279,15.1654473 10.6861437,17.1173668 C9.0929554,15.9136831 6.84209328,14.5948186 5.00799236,14.0576011 Z" id="Fill-136" fill="#231F20"></path>
            </g>
            <g id="arrow-Top" transform="translate(161.782459, 56.250451)">
                <line x1="0.644836826" y1="28.3642038" x2="18.3712552" y2="0.384053348" id="Fill-143" fill="#231F20"></line>
                <line x1="0.644836826" y1="28.3642038" x2="18.3712552" y2="0.384053348" id="Stroke-144" stroke="#231F20" stroke-width="0.879243014"></line>
                <line x1="0.644836826" y1="28.3642038" x2="11.3953412" y2="11.728926" id="Fill-140" fill="#231F20"></line>
                <line x1="0.644836826" y1="28.3642038" x2="9.23504107" y2="15.0718079" id="Stroke-141" stroke="#231F20" stroke-width="0.879243014"></line>
                <path d="M11.3953412,11.728926 C10.9627536,13.679087 10.6972222,16.2737331 10.9706668,18.1649848 L8.95192482,15.5096709 L5.70224264,14.7605559 C7.5389813,14.2330101 9.79599811,12.9246965 11.3953412,11.728926" id="Fill-142" fill="#231F20"></path>
            </g>
            <g id="Bottom-Node" transform="translate(142.294162, 150.350555)">
                <line x1="51.1751087" y1="5.09283931" x2="4.16638094" y2="5.09283931" id="Stroke-1" stroke="#000000" stroke-width="0.533084347"></line>
                <line x1="51.1751087" y1="35.4228546" x2="4.06966421" y2="35.4228546" id="Stroke-2" stroke="#000000" stroke-width="0.533084347"></line>
                <line x1="97.7174859" y1="9.65039547" x2="97.7174859" y2="20.1406439" id="Stroke-3" stroke="#000000" stroke-width="0.533084347"></line>
                <polygon id="Fill-4" fill="#FA0000" points="101.092724 10.0947649 94.2715567 10.0947649 97.630265 3.30876731"></polygon>
                <polygon id="Stroke-5" stroke="#000000" stroke-width="0.533084347" points="101.092724 10.0947649 94.2715567 10.0947649 97.630265 3.30876731"></polygon>
                <polygon id="Fill-6" fill="#C800C8" points="0.305449023 35.4043905 4.08707323 39.3196596 7.83440695 35.4413187 4.0519035 31.5260496"></polygon>
                <g id="Group-40" transform="translate(0.000000, 0.584960)">
                    <polygon id="Stroke-7" stroke="#000000" stroke-width="0.533084347" points="7.83370356 34.85671 4.08724907 38.735051 0.305624872 34.8197818 4.05120011 30.9405617"></polygon>
                    <path d="M23.6875981,34.8378942 C23.6875981,36.9032361 21.9827459,38.5773148 19.8787174,38.5773148 C17.7764473,38.5773148 16.0707159,36.9032361 16.0707159,34.8378942 C16.0707159,32.7734316 17.7764473,31.0984737 19.8787174,31.0984737 C21.9827459,31.0984737 23.6875981,32.7734316 23.6875981,34.8378942" id="Fill-9" fill="#FFFF00"></path>
                    <path d="M23.6875981,34.8378942 C23.6875981,36.9032361 21.9827459,38.5773148 19.8787174,38.5773148 C17.7764473,38.5773148 16.0707159,36.9032361 16.0707159,34.8378942 C16.0707159,32.7734316 17.7764473,31.0984737 19.8787174,31.0984737 C21.9827459,31.0984737 23.6875981,32.7734316 23.6875981,34.8378942 Z" id="Stroke-11" stroke="#000000" stroke-width="0.533084347"></path>
                    <path d="M23.7837873,4.50743931 C23.7837873,6.57278115 22.0789351,8.24685985 19.9757858,8.24685985 C17.8726365,8.24685985 16.1677843,6.57278115 16.1677843,4.50743931 C16.1677843,2.44297671 17.8726365,0.768898016 19.9757858,0.768898016 C22.0789351,0.768898016 23.7837873,2.44297671 23.7837873,4.50743931" id="Fill-13" fill="#FFFF00"></path>
                    <path d="M23.7837873,4.50743931 C23.7837873,6.57278115 22.0789351,8.24685985 19.9757858,8.24685985 C17.8726365,8.24685985 16.1677843,6.57278115 16.1677843,4.50743931 C16.1677843,2.44297671 17.8726365,0.768898016 19.9757858,0.768898016 C22.0789351,0.768898016 23.7837873,2.44297671 23.7837873,4.50743931 Z" id="Stroke-15" stroke="#000000" stroke-width="0.533084347"></path>
                    <line x1="66.9843377" y1="19.5408243" x2="51.1755483" y2="34.8378942" id="Stroke-17" stroke="#000000" stroke-width="0.533084347"></line>
                    <line x1="51.1751087" y1="4.50787893" x2="66.9838981" y2="19.541176" id="Stroke-19" stroke="#000000" stroke-width="0.533084347"></line>
                    <line x1="105.399696" y1="19.5300975" x2="66.9846894" y2="19.5406484" id="Stroke-21" stroke="#000000" stroke-width="0.533084347"></line>
                    <mask id="mask-2" fill="white">
                        <use xlink:href="#path-1"></use>
                    </mask>
                    <g id="Clip-24"></g>
                    <polygon id="Fill-23" fill="#0000FA" mask="url(#mask-2)" points="78.9850377 22.8884541 86.0479968 22.8884541 86.0479968 15.756914 78.9850377 15.756914"></polygon>
                    <polygon id="Stroke-25" stroke="#000000" stroke-width="0.533084347" mask="url(#mask-2)" points="78.9850377 22.8884541 86.0479968 22.8884541 86.0479968 15.756914 78.9850377 15.756914"></polygon>
                    <polygon id="Fill-26" fill="#0000FA" mask="url(#mask-2)" points="94.3902545 22.8884541 101.454093 22.8884541 101.454093 15.756914 94.3902545 15.756914"></polygon>
                    <polygon id="Stroke-27" stroke="#000000" stroke-width="0.533084347" mask="url(#mask-2)" points="94.3902545 22.8884541 101.454093 22.8884541 101.454093 15.756914 94.3902545 15.756914"></polygon>
                    <path d="M70.7932184,19.5403847 C70.7932184,17.4741636 69.087487,15.8018434 66.9834584,15.8018434 C64.8803092,15.8018434 63.1754569,17.4741636 63.1754569,19.5403847 C63.1754569,21.6048473 64.8803092,23.278926 66.9834584,23.278926 C69.087487,23.278926 70.7932184,21.6048473 70.7932184,19.5403847" id="Fill-28" fill="#00C832" mask="url(#mask-2)"></path>
                    <path d="M70.7932184,19.5403847 C70.7932184,17.4741636 69.087487,15.8018434 66.9834584,15.8018434 C64.8803092,15.8018434 63.1754569,17.4741636 63.1754569,19.5403847 C63.1754569,21.6048473 64.8803092,23.278926 66.9834584,23.278926 C69.087487,23.278926 70.7932184,21.6048473 70.7932184,19.5403847 Z" id="Stroke-29" stroke="#000000" stroke-width="0.533084347" mask="url(#mask-2)"></path>
                    <path d="M54.9839894,4.50823063 C54.9839894,2.44376803 53.278258,0.768810091 51.1742294,0.768810091 C49.0710801,0.768810091 47.3662279,2.44376803 47.3662279,4.50823063 C47.3662279,6.57357247 49.0710801,8.24677192 51.1742294,8.24677192 C53.278258,8.24677192 54.9839894,6.57357247 54.9839894,4.50823063" id="Fill-30" fill="#00C832" mask="url(#mask-2)"></path>
                    <path d="M54.9839894,4.50823063 C54.9839894,2.44376803 53.278258,0.768810091 51.1742294,0.768810091 C49.0710801,0.768810091 47.3662279,2.44376803 47.3662279,4.50823063 C47.3662279,6.57357247 49.0710801,8.24677192 51.1742294,8.24677192 C53.278258,8.24677192 54.9839894,6.57357247 54.9839894,4.50823063 Z" id="Stroke-31" stroke="#000000" stroke-width="0.533084347" mask="url(#mask-2)"></path>
                    <path d="M54.9839894,34.8378942 C54.9839894,32.7716732 53.278258,31.0993529 51.1742294,31.0993529 C49.0710801,31.0993529 47.3662279,32.7716732 47.3662279,34.8378942 C47.3662279,36.9023568 49.0710801,38.5764355 51.1742294,38.5764355 C53.278258,38.5764355 54.9839894,36.9023568 54.9839894,34.8378942" id="Fill-32" fill="#00C832" mask="url(#mask-2)"></path>
                    <path d="M54.9839894,34.8378942 C54.9839894,32.7716732 53.278258,31.0993529 51.1742294,31.0993529 C49.0710801,31.0993529 47.3662279,32.7716732 47.3662279,34.8378942 C47.3662279,36.9023568 49.0710801,38.5764355 51.1742294,38.5764355 C53.278258,38.5764355 54.9839894,36.9023568 54.9839894,34.8378942 Z" id="Stroke-33" stroke="#000000" stroke-width="0.533084347" mask="url(#mask-2)"></path>
                    <polygon id="Fill-34" fill="#0000FA" mask="url(#mask-2)" points="31.8162877 8.0740886 38.8801261 8.0740886 38.8801261 0.942548511 31.8162877 0.942548511"></polygon>
                    <polygon id="Stroke-35" stroke="#000000" stroke-width="0.533084347" mask="url(#mask-2)" points="31.8162877 8.0740886 38.8801261 8.0740886 38.8801261 0.942548511 31.8162877 0.942548511"></polygon>
                    <polygon id="Fill-36" fill="#0000FA" mask="url(#mask-2)" points="31.8171669 38.4044556 38.8801261 38.4044556 38.8801261 31.2720363 31.8171669 31.2720363"></polygon>
                    <polygon id="Stroke-37" stroke="#000000" stroke-width="0.533084347" mask="url(#mask-2)" points="31.8171669 38.4044556 38.8801261 38.4044556 38.8801261 31.2720363 31.8171669 31.2720363"></polygon>
                    <polygon id="Fill-38" fill="#C800C8" mask="url(#mask-2)" points="7.92989274 4.52669473 4.18343826 8.40503567 0.401814057 4.48976653 4.1473893 0.610546349"></polygon>
                    <polygon id="Stroke-39" stroke="#000000" stroke-width="0.533084347" mask="url(#mask-2)" points="7.92989274 4.52669473 4.18343826 8.40503567 0.401814057 4.48976653 4.1473893 0.610546349"></polygon>
                </g>
                <text id="α6" font-family="Symbol" font-size="7.91318712" font-weight="normal" fill="#ED1C24">
                    <tspan x="6.58658526" y="11.9085131">α</tspan>
                    <tspan x="11.5786935" y="11.9085131" font-family="ArialMT, Arial">6</tspan>
                </text>
                <text id="β4" font-family="Symbol" font-size="7.91318712" font-weight="normal" fill="#000000">
                    <tspan x="22.3733936" y="11.9085131">β</tspan>
                    <tspan x="26.7163732" y="11.9085131" font-family="ArialMT, Arial">4</tspan>
                </text>
                <text id="β2" font-family="Symbol" font-size="7.91318712" font-weight="normal" fill="#000000">
                    <tspan x="39.4896173" y="11.9085131">β</tspan>
                    <tspan x="43.832597" y="11.9085131" font-family="ArialMT, Arial">2</tspan>
                </text>
                <g id="Group-42" transform="translate(6.154701, 35.754681)" font-family="Symbol" font-size="7.91318712" font-weight="normal">
                    <text id="α6" fill="#ED1C24">
                        <tspan x="0.431004925" y="6.06778964">α</tspan>
                        <tspan x="5.42311321" y="6.06778964" font-family="ArialMT, Arial">6</tspan>
                    </text>
                    <text id="β4" fill="#000000">
                        <tspan x="16.2178132" y="6.06778964">β</tspan>
                        <tspan x="20.5607929" y="6.06778964" font-family="ArialMT, Arial">4</tspan>
                    </text>
                    <text id="β2" fill="#000000">
                        <tspan x="33.334037" y="6.06778964">β</tspan>
                        <tspan x="37.6770166" y="6.06778964" font-family="ArialMT, Arial">2</tspan>
                    </text>
                </g>
                <text id="α3" font-family="Symbol" font-size="7.91318712" font-weight="normal" fill="#000000">
                    <tspan x="59.7864148" y="32.7600249">α</tspan>
                    <tspan x="64.778523" y="32.7600249" font-family="ArialMT, Arial">3</tspan>
                </text>
                <text id="α6" font-family="Symbol" font-size="7.91318712" font-weight="normal" fill="#000000">
                    <tspan x="60.2295532" y="9.95421961">α</tspan>
                    <tspan x="65.2216615" y="9.95421961" font-family="ArialMT, Arial">6</tspan>
                </text>
                <text id="β4" font-family="Symbol" font-size="7.91318712" font-weight="normal" fill="#000000">
                    <tspan x="70.1447767" y="26.8647005">β</tspan>
                    <tspan x="74.4877563" y="26.8647005" font-family="ArialMT, Arial">4</tspan>
                </text>
                <text id="β4" font-family="Symbol" font-size="7.91318712" font-weight="normal" fill="#000000">
                    <tspan x="85.9553246" y="26.8647005">β</tspan>
                    <tspan x="90.2983042" y="26.8647005" font-family="ArialMT, Arial">4</tspan>
                </text>
                <text id="α" font-family="Symbol" font-size="7.91318712" font-weight="normal" fill="#000000">
                    <tspan x="101.892483" y="13.9820319">α</tspan>
                </text>
                <g id="Group-44" transform="translate(106.388405, 6.739661)">
                    <mask id="mask-4" fill="white">
                        <use xlink:href="#path-3"></use>
                    </mask>
                    <g id="Clip-43"></g>
                    <text id="6" mask="url(#mask-4)" font-family="ArialMT, Arial" font-size="7.91318712" font-weight="normal" fill="#000000">
                        <tspan x="0.500553048" y="7.31601093">6</tspan>
                    </text>
                </g>
            </g>
            <g id="Top-Node" transform="translate(142.294162, 0.000000)">
                <line x1="51.1745811" y1="5.09283931" x2="4.1658534" y2="5.09283931" id="Stroke-1" stroke="#000000" stroke-width="0.533084347"></line>
                <line x1="51.1745811" y1="35.4228546" x2="4.07001591" y2="35.4228546" id="Stroke-2" stroke="#000000" stroke-width="0.533084347"></line>
                <line x1="97.7168704" y1="9.65004377" x2="97.7168704" y2="20.1411714" id="Stroke-3" stroke="#000000" stroke-width="0.533084347"></line>
                <polygon id="Fill-4" fill="#FA0000" points="101.092196 10.0948528 94.2719084 10.0948528 97.6297375 3.30885523"></polygon>
                <polygon id="Stroke-5" stroke="#000000" stroke-width="0.533084347" points="101.092196 10.0948528 94.2719084 10.0948528 97.6297375 3.30885523"></polygon>
                <polygon id="Fill-6" fill="#C800C8" points="0.305449023 35.4048301 4.08707323 39.3200993 7.83352771 35.4408791 4.0519035 31.52561"></polygon>
                <g id="Group-40" transform="translate(0.000000, 0.584609)">
                    <polygon id="Stroke-7" stroke="#000000" stroke-width="0.533084347" points="7.83361563 34.85671 4.08716115 38.7359302 0.305536947 34.8197818 4.05111219 30.9414409"></polygon>
                    <path d="M23.6870706,34.8378942 C23.6870706,36.9032361 21.9822184,38.5773148 19.8790691,38.5773148 C17.7759198,38.5773148 16.0710676,36.9032361 16.0710676,34.8378942 C16.0710676,32.7734316 17.7759198,31.0993529 19.8790691,31.0993529 C21.9822184,31.0993529 23.6870706,32.7734316 23.6870706,34.8378942" id="Fill-9" fill="#FFFF00"></path>
                    <path d="M23.6870706,34.8378942 C23.6870706,36.9032361 21.9822184,38.5773148 19.8790691,38.5773148 C17.7759198,38.5773148 16.0710676,36.9032361 16.0710676,34.8378942 C16.0710676,32.7734316 17.7759198,31.0993529 19.8790691,31.0993529 C21.9822184,31.0993529 23.6870706,32.7734316 23.6870706,34.8378942 Z" id="Stroke-11" stroke="#000000" stroke-width="0.533084347"></path>
                    <path d="M23.7840511,4.50787893 C23.7840511,6.57322077 22.0791989,8.24729947 19.9751703,8.24729947 C17.8729003,8.24729947 16.1671688,6.57322077 16.1671688,4.50787893 C16.1671688,2.44341634 17.8729003,0.769337637 19.9751703,0.769337637 C22.0791989,0.769337637 23.7840511,2.44341634 23.7840511,4.50787893" id="Fill-13" fill="#FFFF00"></path>
                    <path d="M23.7840511,4.50787893 C23.7840511,6.57322077 22.0791989,8.24729947 19.9751703,8.24729947 C17.8729003,8.24729947 16.1671688,6.57322077 16.1671688,4.50787893 C16.1671688,2.44341634 17.8729003,0.769337637 19.9751703,0.769337637 C22.0791989,0.769337637 23.7840511,2.44341634 23.7840511,4.50787893 Z" id="Stroke-15" stroke="#000000" stroke-width="0.533084347"></path>
                    <line x1="66.9846015" y1="19.5412639" x2="51.1749328" y2="34.8383339" id="Stroke-17" stroke="#000000" stroke-width="0.533084347"></line>
                    <line x1="51.1745811" y1="4.50823063" x2="66.9842498" y2="19.5415277" id="Stroke-19" stroke="#000000" stroke-width="0.533084347"></line>
                    <line x1="105.39908" y1="19.5305371" x2="66.9849532" y2="19.5410881" id="Stroke-21" stroke="#000000" stroke-width="0.533084347"></line>
                    <mask id="mask-6" fill="white">
                        <use xlink:href="#path-5"></use>
                    </mask>
                    <g id="Clip-24"></g>
                    <polygon id="Fill-23" fill="#0000FA" mask="url(#mask-6)" points="78.9850377 22.8893334 86.0479968 22.8893334 86.0479968 15.7577933 78.9850377 15.7577933"></polygon>
                    <polygon id="Stroke-25" stroke="#000000" stroke-width="0.533084347" mask="url(#mask-6)" points="78.9850377 22.8893334 86.0479968 22.8893334 86.0479968 15.7577933 78.9850377 15.7577933"></polygon>
                    <polygon id="Fill-26" fill="#0000FA" mask="url(#mask-6)" points="94.3902545 22.8893334 101.454093 22.8893334 101.454093 15.7577933 94.3902545 15.7577933"></polygon>
                    <polygon id="Stroke-27" stroke="#000000" stroke-width="0.533084347" mask="url(#mask-6)" points="94.3902545 22.8893334 101.454093 22.8893334 101.454093 15.7577933 94.3902545 15.7577933"></polygon>
                    <path d="M70.7934822,19.5408243 C70.7934822,17.4746032 69.0877507,15.802283 66.9837222,15.802283 C64.8805729,15.802283 63.1757207,17.4746032 63.1757207,19.5408243 C63.1757207,21.6052869 64.8805729,23.2793656 66.9837222,23.2793656 C69.0877507,23.2793656 70.7934822,21.6052869 70.7934822,19.5408243" id="Fill-28" fill="#00C832" mask="url(#mask-6)"></path>
                    <path d="M70.7934822,19.5408243 C70.7934822,17.4746032 69.0877507,15.802283 66.9837222,15.802283 C64.8805729,15.802283 63.1757207,17.4746032 63.1757207,19.5408243 C63.1757207,21.6052869 64.8805729,23.2793656 66.9837222,23.2793656 C69.0877507,23.2793656 70.7934822,21.6052869 70.7934822,19.5408243 Z" id="Stroke-29" stroke="#000000" stroke-width="0.533084347" mask="url(#mask-6)"></path>
                    <path d="M54.9834619,4.50867025 C54.9834619,2.44420765 53.2786097,0.769249713 51.1745811,0.769249713 C49.0705526,0.769249713 47.3657004,2.44420765 47.3657004,4.50867025 C47.3657004,6.57401209 49.0705526,8.24721154 51.1745811,8.24721154 C53.2786097,8.24721154 54.9834619,6.57401209 54.9834619,4.50867025" id="Fill-30" fill="#00C832" mask="url(#mask-6)"></path>
                    <path d="M54.9834619,4.50867025 C54.9834619,2.44420765 53.2786097,0.769249713 51.1745811,0.769249713 C49.0705526,0.769249713 47.3657004,2.44420765 47.3657004,4.50867025 C47.3657004,6.57401209 49.0705526,8.24721154 51.1745811,8.24721154 C53.2786097,8.24721154 54.9834619,6.57401209 54.9834619,4.50867025 Z" id="Stroke-31" stroke="#000000" stroke-width="0.533084347" mask="url(#mask-6)"></path>
                    <path d="M54.9834619,34.8378942 C54.9834619,32.7725524 53.2786097,31.0993529 51.1745811,31.0993529 C49.0705526,31.0993529 47.3657004,32.7725524 47.3657004,34.8378942 C47.3657004,36.9023568 49.0705526,38.5773148 51.1745811,38.5773148 C53.2786097,38.5773148 54.9834619,36.9023568 54.9834619,34.8378942" id="Fill-32" fill="#00C832" mask="url(#mask-6)"></path>
                    <path d="M54.9834619,34.8378942 C54.9834619,32.7725524 53.2786097,31.0993529 51.1745811,31.0993529 C49.0705526,31.0993529 47.3657004,32.7725524 47.3657004,34.8378942 C47.3657004,36.9023568 49.0705526,38.5773148 51.1745811,38.5773148 C53.2786097,38.5773148 54.9834619,36.9023568 54.9834619,34.8378942 Z" id="Stroke-33" stroke="#000000" stroke-width="0.533084347" mask="url(#mask-6)"></path>
                    <polygon id="Fill-34" fill="#0000FA" mask="url(#mask-6)" points="31.8171669 8.0740886 38.8801261 8.0740886 38.8801261 0.942548511 31.8171669 0.942548511"></polygon>
                    <polygon id="Stroke-35" stroke="#000000" stroke-width="0.533084347" mask="url(#mask-6)" points="31.8171669 8.0740886 38.8801261 8.0740886 38.8801261 0.942548511 31.8171669 0.942548511"></polygon>
                    <polygon id="Fill-36" fill="#0000FA" mask="url(#mask-6)" points="31.8171669 38.4044556 38.8801261 38.4044556 38.8801261 31.2720363 31.8171669 31.2720363"></polygon>
                    <polygon id="Stroke-37" stroke="#000000" stroke-width="0.533084347" mask="url(#mask-6)" points="31.8171669 38.4044556 38.8801261 38.4044556 38.8801261 31.2720363 31.8171669 31.2720363"></polygon>
                    <polygon id="Fill-38" fill="#C800C8" mask="url(#mask-6)" points="7.93024444 4.52669473 4.18378996 8.40591491 0.402165754 4.48976653 4.14774099 0.610546349"></polygon>
                    <polygon id="Stroke-39" stroke="#000000" stroke-width="0.533084347" mask="url(#mask-6)" points="7.93024444 4.52669473 4.18378996 8.40591491 0.402165754 4.48976653 4.14774099 0.610546349"></polygon>
                </g>
                <text id="α3" font-family="Symbol" font-size="7.91318712" font-weight="normal" fill="#E93800">
                    <tspan x="6.58702489" y="11.908601">α</tspan>
                    <tspan x="11.5791332" y="11.908601" font-family="ArialMT, Arial">3</tspan>
                </text>
                <text id="β4" font-family="Symbol" font-size="7.91318712" font-weight="normal" fill="#000000">
                    <tspan x="22.3738332" y="11.908601">β</tspan>
                    <tspan x="26.7168128" y="11.908601" font-family="ArialMT, Arial">4</tspan>
                </text>
                <text id="β2" font-family="Symbol" font-size="7.91318712" font-weight="normal" fill="#000000">
                    <tspan x="39.4900569" y="11.908601">β</tspan>
                    <tspan x="43.8330366" y="11.908601" font-family="ArialMT, Arial">2</tspan>
                </text>
                <g id="Group-42" transform="translate(6.154701, 35.754329)" font-family="Symbol" font-size="7.91318712" font-weight="normal">
                    <text id="α3" fill="#E93800">
                        <tspan x="0.431004925" y="6.06822926">α</tspan>
                        <tspan x="5.42311321" y="6.06822926" font-family="ArialMT, Arial">3</tspan>
                    </text>
                    <text id="β4" fill="#000000">
                        <tspan x="16.2178132" y="6.06822926">β</tspan>
                        <tspan x="20.5607929" y="6.06822926" font-family="ArialMT, Arial">4</tspan>
                    </text>
                    <text id="β2" fill="#000000">
                        <tspan x="33.334037" y="6.06822926">β</tspan>
                        <tspan x="37.6770166" y="6.06822926" font-family="ArialMT, Arial">2</tspan>
                    </text>
                </g>
                <text id="α3" font-family="Symbol" font-size="7.91318712" font-weight="normal" fill="#000000">
                    <tspan x="59.7864148" y="32.7601128">α</tspan>
                    <tspan x="64.778523" y="32.7601128" font-family="ArialMT, Arial">3</tspan>
                </text>
                <text id="α6" font-family="Symbol" font-size="7.91318712" font-weight="normal" fill="#000000">
                    <tspan x="60.2295532" y="9.95430753">α</tspan>
                    <tspan x="65.2216615" y="9.95430753" font-family="ArialMT, Arial">6</tspan>
                </text>
                <text id="β4" font-family="Symbol" font-size="7.91318712" font-weight="normal" fill="#000000">
                    <tspan x="70.1447767" y="26.8647884">β</tspan>
                    <tspan x="74.4877563" y="26.8647884" font-family="ArialMT, Arial">4</tspan>
                </text>
                <text id="β4" font-family="Symbol" font-size="7.91318712" font-weight="normal" fill="#000000">
                    <tspan x="85.9553246" y="26.8647884">β</tspan>
                    <tspan x="90.2983042" y="26.8647884" font-family="ArialMT, Arial">4</tspan>
                </text>
                <text id="α" font-family="Symbol" font-size="7.91318712" font-weight="normal" fill="#000000">
                    <tspan x="101.892483" y="13.9821198">α</tspan>
                </text>
                <g id="Group-44" transform="translate(106.388405, 6.739310)">
                    <mask id="mask-8" fill="white">
                        <use xlink:href="#path-7"></use>
                    </mask>
                    <g id="Clip-43"></g>
                    <text id="6" mask="url(#mask-8)" font-family="ArialMT, Arial" font-size="7.91318712" font-weight="normal" fill="#000000">
                        <tspan x="0.500553048" y="7.31645055">6</tspan>
                    </text>
                </g>
            </g>
        </g>
    </g>
</svg>