<?xml version="1.0" encoding="UTF-8"?>
<svg width="283px" height="212px" viewBox="0 0 283 212" version="1.1" xmlns="http://www.w3.org/2000/svg" xmlns:xlink="http://www.w3.org/1999/xlink">
    <!-- Generator: Sketch 63.1 (92452) - https://sketch.com -->
    <title>list-of-motifs-img</title>
    <desc>Created with Sketch.</desc>
    <defs>
        <polygon id="path-1" points="0 163.870176 253.480098 163.870176 253.480098 0.0470124678 0 0.0470124678"></polygon>
        <polygon id="path-3" points="0 0.0467258065 115.704784 0.0467258065 115.704784 160.046726 0 160.046726"></polygon>
    </defs>
    <g id="list-of-motifs-img" stroke="none" stroke-width="1" fill="none" fill-rule="evenodd">
        <g id="Group-48" transform="translate(15.000000, 28.000000)">
            <polygon id="Fill-1" fill="#FFF8D6" points="39.4498871 138.560937 109.095048 138.560937 109.095048 91.4480339 39.4498871 91.4480339"></polygon>
            <polygon id="Stroke-2" stroke="#FFDC48" stroke-width="0.512096774" points="39.4498871 138.560937 109.095048 138.560937 109.095048 91.4480339 39.4498871 91.4480339"></polygon>
            <polygon id="Fill-3" fill="#FFF3FB" points="0.530532258 87.3533081 109.093 87.3533081 109.093 21.804921 0.530532258 21.804921"></polygon>
            <polygon id="Stroke-4" stroke="#FFBDE7" stroke-width="0.512096774" points="0.530532258 87.3512597 109.095048 87.3512597 109.095048 21.8028726 0.530532258 21.8028726"></polygon>
            <line x1="89.6349613" y1="50.4809065" x2="89.6349613" y2="75.0615516" id="Stroke-6" stroke="#000000" stroke-width="1.02419355"></line>
            <polygon id="Fill-7" fill="#FA0000" points="97.7254758 84.2792935 81.8361371 84.2792935 89.6589274 68.4698419"></polygon>
            <polygon id="Stroke-8" stroke="#000000" stroke-width="1.02419355" points="97.7254758 84.2792935 81.8361371 84.2792935 89.6589274 68.4698419"></polygon>
            <line x1="127.530123" y1="49.4567129" x2="16.9172194" y2="49.4567129" id="Stroke-9" stroke="#000000" stroke-width="1.02419355"></line>
            <line x1="127.530123" y1="121.150261" x2="53.7881871" y2="121.150261" id="Stroke-10" stroke="#000000" stroke-width="1.02419355"></line>
            <line x1="235.070445" y1="60.7228419" x2="235.070445" y2="85.3034871" id="Stroke-11" stroke="#000000" stroke-width="1.02419355"></line>
            <polygon id="Fill-12" fill="#FA0000" points="243.026995 61.7470355 227.137656 61.7470355 234.960447 45.9375839"></polygon>
            <polygon id="Stroke-13" stroke="#000000" stroke-width="1.02419355" points="243.026995 61.7470355 227.137656 61.7470355 234.960447 45.9375839"></polygon>
            <g id="Group-45" transform="translate(0.000000, 0.002276)">
                <path d="M62.9425845,121.015731 C62.9425845,125.856912 58.955063,129.780968 54.033898,129.780968 C49.116846,129.780968 45.127268,125.856912 45.127268,121.015731 C45.127268,116.176612 49.116846,112.252556 54.033898,112.252556 C58.955063,112.252556 62.9425845,116.176612 62.9425845,121.015731" id="Fill-14" fill="#FFFF00"></path>
                <path d="M62.9425845,121.015731 C62.9425845,125.856912 58.955063,129.780968 54.033898,129.780968 C49.116846,129.780968 45.127268,125.856912 45.127268,121.015731 C45.127268,116.176612 49.116846,112.252556 54.033898,112.252556 C58.955063,112.252556 62.9425845,116.176612 62.9425845,121.015731 Z" id="Stroke-16" stroke="#000000" stroke-width="1.02419355"></path>
                <path d="M63.1675638,49.9218905 C63.1675638,54.7630712 59.1800423,58.6871274 54.2609338,58.6871274 C49.3418253,58.6871274 45.3543038,54.7630712 45.3543038,49.9218905 C45.3543038,45.0827708 49.3418253,41.1587145 54.2609338,41.1587145 C59.1800423,41.1587145 63.1675638,45.0827708 63.1675638,49.9218905" id="Fill-18" fill="#FFFF00"></path>
                <path d="M63.1675638,49.9218905 C63.1675638,54.7630712 59.1800423,58.6871274 54.2609338,58.6871274 C49.3418253,58.6871274 45.3543038,54.7630712 45.3543038,49.9218905 C45.3543038,45.0827708 49.3418253,41.1587145 54.2609338,41.1587145 C59.1800423,41.1587145 63.1675638,45.0827708 63.1675638,49.9218905 Z" id="Stroke-20" stroke="#000000" stroke-width="1.02419355"></path>
                <line x1="164.21144" y1="85.1594618" x2="127.233811" y2="121.015938" id="Stroke-22" stroke="#000000" stroke-width="1.02419355"></line>
                <line x1="127.233811" y1="49.922921" x2="164.21144" y2="85.1590496" id="Stroke-24" stroke="#000000" stroke-width="1.02419355"></line>
                <line x1="253.479687" y1="84.7940547" x2="165.050897" y2="84.8187861" id="Stroke-26" stroke="#000000" stroke-width="1.02419355"></line>
                <mask id="mask-2" fill="white">
                    <use xlink:href="#path-1"></use>
                </mask>
                <g id="Clip-29"></g>
                <polygon id="Fill-28" fill="#0000FA" mask="url(#mask-2)" points="192.813835 93.0372519 209.265703 93.0372519 209.265703 76.5496208 192.813835 76.5496208"></polygon>
                <polygon id="Stroke-30" stroke="#000000" stroke-width="1.02419355" mask="url(#mask-2)" points="192.813835 93.0372519 209.265703 93.0372519 209.265703 76.5496208 192.813835 76.5496208"></polygon>
                <polygon id="Fill-31" fill="#0000FA" mask="url(#mask-2)" points="227.774055 93.0372519 244.225923 93.0372519 244.225923 76.5496208 227.774055 76.5496208"></polygon>
                <polygon id="Stroke-32" stroke="#000000" stroke-width="1.02419355" mask="url(#mask-2)" points="227.774055 93.0372519 244.225923 93.0372519 244.225923 76.5496208 227.774055 76.5496208"></polygon>
                <path d="M173.119099,85.1594618 C173.119099,80.3162201 169.129521,76.3962858 164.208356,76.3962858 C159.291304,76.3962858 155.301726,80.3162201 155.301726,85.1594618 C155.301726,89.9985815 159.291304,93.9226377 164.208356,93.9226377 C169.129521,93.9226377 173.119099,89.9985815 173.119099,85.1594618" id="Fill-33" fill="#00C832" mask="url(#mask-2)"></path>
                <path d="M173.119099,85.1594618 C173.119099,80.3162201 169.129521,76.3962858 164.208356,76.3962858 C159.291304,76.3962858 155.301726,80.3162201 155.301726,85.1594618 C155.301726,89.9985815 159.291304,93.9226377 164.208356,93.9226377 C169.129521,93.9226377 173.119099,89.9985815 173.119099,85.1594618 Z" id="Stroke-34" stroke="#000000" stroke-width="1.02419355" mask="url(#mask-2)"></path>
                <path d="M136.142703,49.9239514 C136.142703,45.0848317 132.153125,41.1587145 127.23196,41.1587145 C122.312851,41.1587145 118.32533,45.0848317 118.32533,49.9239514 C118.32533,54.7651321 122.312851,58.6850664 127.23196,58.6850664 C132.153125,58.6850664 136.142703,54.7651321 136.142703,49.9239514" id="Fill-35" fill="#00C832" mask="url(#mask-2)"></path>
                <path d="M136.142703,49.9239514 C136.142703,45.0848317 132.153125,41.1587145 127.23196,41.1587145 C122.312851,41.1587145 118.32533,45.0848317 118.32533,49.9239514 C118.32533,54.7651321 122.312851,58.6850664 127.23196,58.6850664 C132.153125,58.6850664 136.142703,54.7651321 136.142703,49.9239514 Z" id="Stroke-36" stroke="#000000" stroke-width="1.02419355" mask="url(#mask-2)"></path>
                <path d="M136.142703,121.015731 C136.142703,116.17249 132.153125,112.252556 127.23196,112.252556 C122.312851,112.252556 118.32533,116.17249 118.32533,121.015731 C118.32533,125.854851 122.312851,129.780968 127.23196,129.780968 C132.153125,129.780968 136.142703,125.854851 136.142703,121.015731" id="Fill-37" fill="#00C832" mask="url(#mask-2)"></path>
                <path d="M136.142703,121.015731 C136.142703,116.17249 132.153125,112.252556 127.23196,112.252556 C122.312851,112.252556 118.32533,116.17249 118.32533,121.015731 C118.32533,125.854851 122.312851,129.780968 127.23196,129.780968 C132.153125,129.780968 136.142703,125.854851 136.142703,121.015731 Z" id="Stroke-38" stroke="#000000" stroke-width="1.02419355" mask="url(#mask-2)"></path>
                <polygon id="Fill-39" fill="#0000FA" mask="url(#mask-2)" points="81.763727 58.0010358 98.2155949 58.0010358 98.2155949 41.5134047 81.763727 41.5134047"></polygon>
                <polygon id="Stroke-40" stroke="#000000" stroke-width="1.02419355" mask="url(#mask-2)" points="81.763727 58.0010358 98.2155949 58.0010358 98.2155949 41.5134047 81.763727 41.5134047"></polygon>
                <polygon id="Fill-41" fill="#0000FA" mask="url(#mask-2)" points="81.763727 130.134422 98.2155949 130.134422 98.2155949 113.646791 81.763727 113.646791"></polygon>
                <polygon id="Stroke-42" stroke="#000000" stroke-width="1.02419355" mask="url(#mask-2)" points="81.763727 130.134422 98.2155949 130.134422 98.2155949 113.646791 81.763727 113.646791"></polygon>
                <polygon id="Fill-43" fill="#C800C8" mask="url(#mask-2)" points="26.0875213 49.966201 17.3248451 59.0570686 8.47990966 49.8796409 17.2405293 40.7867124"></polygon>
                <polygon id="Stroke-44" stroke="#000000" stroke-width="1.02419355" mask="url(#mask-2)" points="26.0875213 49.966201 17.3248451 59.0570686 8.47990966 49.8796409 17.2405293 40.7867124"></polygon>
            </g>
            <text id="α3" font-family="Symbol" font-size="18.4354839" font-weight="normal" fill="#231F20">
                <tspan x="22.8552887" y="62.4728952">α</tspan>
                <tspan x="34.4854865" y="62.4728952" font-family="ArialMT, Arial">3</tspan>
            </text>
            <text id="β4" font-family="Symbol" font-size="18.4354839" font-weight="normal" fill="#000000">
                <tspan x="63.7267565" y="33.7872823">β</tspan>
                <tspan x="73.8446685" y="33.7872823" font-family="ArialMT, Arial">4</tspan>
            </text>
            <text id="α3" font-family="Symbol" font-size="18.4354839" font-weight="normal" fill="#231F20">
                <tspan x="61.8094661" y="68.8331371">α</tspan>
                <tspan x="73.439664" y="68.8331371" font-family="ArialMT, Arial">3</tspan>
            </text>
            <text id="β4" font-family="Symbol" font-size="18.4354839" font-weight="normal" fill="#000000">
                <tspan x="64.1876435" y="104.247702">β</tspan>
                <tspan x="74.3055556" y="104.247702" font-family="ArialMT, Arial">4</tspan>
            </text>
            <g id="Group-47" transform="translate(0.000000, 1.002276)">
                <mask id="mask-4" fill="white">
                    <use xlink:href="#path-3"></use>
                </mask>
                <g id="Clip-46"></g>
                <text id="Type-2-LN" mask="url(#mask-4)" font-family="ArialMT, Arial" font-size="18.4354839" font-weight="normal" letter-spacing="-1.01948227" fill="#231F20">
                    <tspan x="30" y="154.997724">T</tspan>
                    <tspan x="39.2244536" y="154.997724">ype 2 LN</tspan>
                </text>
                <text id="Sialyl-Lewis-x" mask="url(#mask-4)" font-family="ArialMT, Arial" font-size="18.4354839" font-weight="normal" fill="#231F20">
                    <tspan x="-0.00655483871" y="15.3242401">Sialyl Lewis x</tspan>
                </text>
            </g>
        </g>
    </g>
</svg>