<?xml version="1.0" encoding="UTF-8"?>
<svg width="283px" height="212px" viewBox="0 0 283 212" version="1.1" xmlns="http://www.w3.org/2000/svg" xmlns:xlink="http://www.w3.org/1999/xlink">
    <!-- Generator: Sketch 63.1 (92452) - https://sketch.com -->
    <title>sparql-img</title>
    <desc>Created with Sketch.</desc>
    <g id="sparql-img" stroke="none" stroke-width="1" fill="none" fill-rule="evenodd">
        <g id="SPARQL" transform="translate(58.722500, 17.687500)">
            <rect id="Rectangle" stroke="#5F5F5F" stroke-width="3.76329787" x="0" y="11.2898936" width="165.585106" height="165.585106"></rect>
            <rect id="Rectangle" fill="#5F5F5F" x="0" y="126.070479" width="165.585106" height="50.8045213"></rect>
            <text font-family="Tahoma-Bold, Tahoma" font-size="33.8696809" font-weight="bold" letter-spacing="1.41123664" fill="#FFFFFF">
                <tspan x="9.40824468" y="163.833777">SPARQL</tspan>
            </text>
            <g id="sparql" transform="translate(18.816489, 0.000000)" fill-rule="nonzero">
                <path d="M112.899235,88.8382034 C112.097343,88.4392779 111.161802,88.0403524 110.359909,87.6414269 L111.028153,87.6414269 C111.028153,87.6414269 105.414907,85.247874 105.013961,67.4292025 C104.479366,49.7435061 110.359909,46.6850774 110.359909,46.6850774 L110.359909,46.6850774 C114.770317,44.4244997 118.512481,40.9671455 120.918158,36.3130149 C127.333297,24.2122753 122.78924,9.31905728 110.627207,2.8032744 C97.3959837,-3.44655815 82.4273272,1.07459731 76.0121887,13.1753369 C73.3392143,18.0954179 72.6709707,23.5473995 73.472863,28.7334307 L73.2055656,28.3345053 C73.2055656,28.3345053 74.6757015,34.717313 59.4397475,44.1585494 C44.3374423,53.5997858 37.3877089,48.81268 37.3877089,48.81268 L37.7886551,49.4775558 C37.3877089,49.2116055 36.9867628,48.9456552 36.4521679,48.6797048 C24.4237832,42.163922 9.32147795,46.8180526 2.90633944,58.9187922 C-3.50879906,71.0195318 1.03525738,85.9127498 13.1972908,92.4285327 C22.2854037,97.2156385 32.8436525,95.8858869 40.4616295,89.9020047 L40.3279807,90.167955 C40.3279807,90.167955 45.8075782,85.6467995 61.7117758,94.1572098 C74.2747553,100.805968 76.1458374,107.454726 76.4131348,109.848279 C76.1458374,119.023565 80.8235426,128.065876 89.5107093,132.587031 C101.672743,138.969839 116.641399,134.448683 123.190186,122.347944 C129.605325,110.247204 124.92762,95.3539862 112.899235,88.8382034 Z M84.8330041,92.1625824 C82.8282733,92.8274582 77.0813784,93.6253092 65.0529937,87.2425014 C51.9554193,80.1948179 49.9506885,74.3439109 49.6833911,72.6152338 C49.8170398,70.4876312 49.8170398,68.3600286 49.4160936,66.232426 L49.5497423,66.3654012 C49.5497423,66.3654012 48.4805526,60.6474693 63.4492091,51.4721832 C76.814081,43.2277233 82.9619221,44.8234252 84.0311118,45.2223507 C84.6993554,45.7542513 85.5012477,46.1531768 86.30314,46.5521023 C87.7732759,47.3499532 89.3770606,48.014829 90.9808452,48.4137545 C92.8519273,50.1424316 96.1931452,55.0625126 96.5940914,68.2270535 C96.9950376,81.3915944 93.1192247,86.4446505 90.9808452,88.1733276 C88.708817,89.2371288 86.5704375,90.5668805 84.8330041,92.1625824 Z" id="Shape" fill="#0C479C"></path>
                <path d="M84.1842217,10.5778755 C76.9377145,18.3976015 76.80352,29.9283839 83.7816379,36.5552704 C80.292579,33.2418272 80.4267735,26.3498653 83.9158325,19.8555166 C84.3184162,19.3253656 85.660362,17.8674506 87.5390861,18.5301393 C87.6732807,18.5301393 87.8074752,18.662677 87.9416698,18.662677 C88.3442535,18.7952147 88.8810318,18.7952147 89.2836156,18.7952147 C92.2358963,18.662677 94.3830095,16.2769979 94.2488149,13.3611678 C94.2488149,12.0357906 93.7120366,10.9754887 92.7726746,10.0477246 C99.4824034,5.67397958 107.131494,5.14382867 110.352164,8.0596587 L110.486359,8.0596587 C103.374046,1.43277226 91.5649234,2.62561182 84.1842217,10.5778755 Z M11.1823721,56.9660806 C3.93586494,64.7858066 3.80167036,76.316589 10.7797883,82.9434754 C7.29072935,79.6300322 7.42492393,72.7380703 10.9139829,66.2437216 C11.3165666,65.7135707 12.6585124,64.2556557 14.5372365,64.9183443 C14.6714311,64.9183443 14.8056256,65.050882 14.9398202,65.050882 C15.3424039,65.1834198 15.8791822,65.1834198 16.281766,65.1834198 C19.2340467,65.050882 21.3811599,62.6652029 21.2469653,59.7493729 C21.2469653,58.4239956 20.710187,57.3636938 19.770825,56.4359297 C26.4805538,52.0621846 34.1296446,51.5320337 37.3503145,54.4478637 L37.4845091,54.4478637 C30.3721965,47.953515 18.5630738,49.0138169 11.1823721,56.9660806 Z M88.4784481,96.329786 C81.231941,104.149512 81.0977464,115.680294 88.0758644,122.307181 C84.5868054,118.993738 84.721,112.101776 88.210059,105.607427 C88.6126427,105.077276 89.9545885,103.619361 91.8333125,104.28205 C91.9675071,104.28205 92.1017017,104.414587 92.2358963,104.414587 C92.63848,104.547125 93.1752583,104.547125 93.577842,104.547125 C96.5301227,104.414587 98.6772359,102.028908 98.5430414,99.1130783 C98.5430414,97.787701 98.006263,96.7273992 97.066901,95.7996351 C103.77663,91.4258901 111.425721,90.8957391 114.646391,93.8115692 L114.780585,93.8115692 C107.668273,87.1846827 95.8591498,88.3775223 88.4784481,96.329786 Z" id="Shape" fill="#FFFFFF"></path>
            </g>
        </g>
    </g>
</svg>