<?xml version="1.0" encoding="UTF-8"?>
<svg width="400px" height="300px" viewBox="0 0 400 300" version="1.1" xmlns="http://www.w3.org/2000/svg" xmlns:xlink="http://www.w3.org/1999/xlink">
    <!-- Generator: Sketch 63.1 (92452) - https://sketch.com -->
    <title>sparql-img</title>
    <desc>Created with Sketch.</desc>
    <g id="sparql-img" stroke="none" stroke-width="1" fill="none" fill-rule="evenodd">
        <g id="SPARQL" transform="translate(83.000000, 25.000000)">
            <rect id="Rectangle" stroke="#5F5F5F" stroke-width="5.31914894" x="0" y="15.9574468" width="234.042553" height="234.042553"></rect>
            <rect id="Rectangle" fill="#5F5F5F" x="0" y="178.191489" width="234.042553" height="71.8085106"></rect>
            <text font-family="Tahoma-Bold, Tahoma" font-size="47.8723404" font-weight="bold" letter-spacing="1.9946807" fill="#FFFFFF">
                <tspan x="13.2978723" y="231.510638">SPARQL</tspan>
            </text>
            <g id="sparql" transform="translate(26.595745, 0.000000)" fill-rule="nonzero">
                <path d="M159.574891,125.566365 C158.441474,125.002513 157.119154,124.438661 155.985738,123.874808 L156.930252,123.874808 C156.930252,123.874808 148.996335,120.491695 148.429626,95.3062933 C147.674015,70.3088426 155.985738,65.9859752 155.985738,65.9859752 L155.985738,65.9859752 C162.21953,62.7908123 167.508807,57.9040926 170.909058,51.3258161 C179.976391,34.2222972 173.553697,13.1718124 156.363543,3.9622253 C137.662168,-4.87146028 116.505056,1.51886546 107.437723,18.6223844 C103.659667,25.5765624 102.715153,33.2825434 103.84857,40.6126229 L103.470764,40.0487707 C103.470764,40.0487707 105.548695,49.070407 84.0137774,62.4149108 C62.667763,75.7594145 52.8448183,68.9931873 52.8448183,68.9931873 L53.4115266,69.9329411 C52.8448183,69.5570395 52.2781099,69.181138 51.5224988,68.8052365 C34.5212483,59.5956494 13.1752339,66.1739259 4.10790027,83.2774448 C-4.95943331,100.380964 1.46326131,121.431449 18.6534146,130.641036 C31.4988038,137.407263 46.4221236,135.527755 57.1895823,127.069971 L57.0006795,127.445873 C57.0006795,127.445873 64.7456936,121.055547 87.2251247,133.084395 C104.981986,142.481933 107.626625,151.879471 108.004431,155.262585 C107.626625,168.231187 114.238223,181.011839 126.516904,187.402164 C143.707057,196.423801 164.864169,190.033475 174.120405,172.929956 C183.187738,155.826437 176.576141,134.775952 159.574891,125.566365 Z M119.905306,130.265134 C117.071764,131.204888 108.948945,132.332592 91.9476943,123.310956 C73.4352216,113.349566 70.6016799,105.079733 70.2238743,102.636373 C70.4127771,99.6291607 70.4127771,96.6219486 69.8460687,93.6147365 L70.0349715,93.8026872 C70.0349715,93.8026872 68.5237492,85.7208047 89.6808609,72.7522024 C108.571139,61.0992555 117.260667,63.3546646 118.771889,63.9185168 C119.716403,64.6703199 120.84982,65.2341721 121.983237,65.7980244 C124.061167,66.9257289 126.328001,67.8654827 128.594834,68.429335 C131.239473,70.8726948 135.962043,77.8268729 136.528751,96.4339978 C137.095459,115.041123 131.617279,122.183252 128.594834,124.626611 C125.383487,126.130217 122.361042,128.009725 119.905306,130.265134 Z" id="Shape" fill="#0C479C"></path>
                <path d="M118.988299,14.9510608 C108.745886,26.0036771 108.556212,42.3016027 118.419276,51.6682267 C113.487744,46.9849147 113.677418,37.2436258 118.608951,28.0643344 C119.177973,27.3150044 121.074717,25.2543472 123.730157,26.1910096 C123.919831,26.1910096 124.109506,26.378342 124.29918,26.378342 C124.868203,26.5656745 125.6269,26.5656745 126.195923,26.5656745 C130.368758,26.378342 133.403547,23.0063574 133.213873,18.8850429 C133.213873,17.0117181 132.455175,15.5130583 131.127455,14.2017309 C140.611171,8.01975913 151.422607,7.27042921 155.97479,11.3917437 L156.164465,11.3917437 C146.111726,2.02511981 129.420386,3.71111211 118.988299,14.9510608 Z M15.8054729,80.5174284 C5.56305998,91.5700446 5.37338567,107.86797 15.2364499,117.234594 C10.3049178,112.551282 10.4945921,102.809993 15.4261243,93.6307019 C15.9951472,92.881372 17.8918903,90.8207147 20.5473307,91.7573771 C20.737005,91.7573771 20.9266793,91.9447096 21.1163537,91.9447096 C21.6853766,92.1320421 22.4440738,92.1320421 23.0130968,92.1320421 C27.1859317,91.9447096 30.2207207,88.572725 30.0310464,84.4514105 C30.0310464,82.5780857 29.2723491,81.0794258 27.9446289,79.7680985 C37.4283446,73.5861267 48.2397804,72.8367968 52.7919639,76.9581113 L52.9816382,76.9581113 C42.9288997,67.7788198 26.2375601,69.2774797 15.8054729,80.5174284 Z M125.057877,136.155175 C114.815464,147.207791 114.62579,163.505716 124.488854,172.87234 C119.557322,168.189028 119.746996,158.44774 124.678529,149.268448 C125.247552,148.519118 127.144295,146.458461 129.799735,147.395123 C129.989409,147.395123 130.179084,147.582456 130.368758,147.582456 C130.937781,147.769788 131.696478,147.769788 132.265501,147.769788 C136.438336,147.582456 139.473125,144.210471 139.283451,140.089157 C139.283451,138.215832 138.524753,136.717172 137.197033,135.405845 C146.680749,129.223873 157.492185,128.474543 162.044368,132.595857 L162.234043,132.595857 C152.181304,123.229234 135.489964,124.915226 125.057877,136.155175 Z" id="Shape" fill="#FFFFFF"></path>
            </g>
        </g>
    </g>
</svg>