<?xml version="1.0" encoding="UTF-8"?>
<svg width="167px" height="72px" viewBox="0 0 167 72" version="1.1" xmlns="http://www.w3.org/2000/svg" xmlns:xlink="http://www.w3.org/1999/xlink">
    <!-- Generator: Sketch 56.2 (81672) - https://sketch.com -->
    <title>icon-blue</title>
    <desc>Created with Sketch.</desc>
    <g id="icon-blue" stroke="none" stroke-width="1" fill="none" fill-rule="evenodd">
        <g fill="#2F78B7" stroke="#2F78B7" stroke-width="7.5">
            <rect id="Rectangle-13" transform="translate(86.232639, 36.769079) rotate(-75.000000) translate(-86.232639, -36.769079) " x="86.1650066" y="-4.48092112" width="1" height="82.5" rx="0.5"></rect>
            <path d="M136.776462,32.9289114 L57.0668847,11.5707946 C57.0308049,11.561127 56.9937193,11.5825384 56.9840518,11.6186183 C56.9743842,11.6546981 56.9957956,11.6917837 57.0318754,11.7014512 L136.590099,33.0190131 C136.611452,33.0247344 136.624582,33.0227023 136.643746,33.0108678 L136.776462,32.9289114 Z M137.889161,32.5178855 L138.066685,32.4916914 C138.08506,32.4889802 138.094222,32.4839395 138.107246,32.4684177 L162.124834,3.84537064 C162.148844,3.81675689 162.145112,3.77409709 162.116498,3.75008731 C162.087884,3.72607753 162.045224,3.72980978 162.021215,3.75842352 L137.889161,32.5178855 Z" id="Combined-Shape"></path>
            <path d="M83.9237147,67.9276233 L4.21413764,46.5695065 C4.17805781,46.5598389 4.14097222,46.5812503 4.13130466,46.6173301 C4.12163709,46.65341 4.14304847,46.6904955 4.1791283,46.7001631 L83.7373523,68.017725 C83.7587044,68.0234463 83.7718346,68.0214141 83.7909988,68.0095796 L83.9237147,67.9276233 Z M85.0364136,67.5165974 L85.2139383,67.4904033 C85.2323132,67.487692 85.2414746,67.4826514 85.2544989,67.4671296 L109.272087,38.8440825 C109.296097,38.8154688 109.292365,38.772809 109.263751,38.7487992 C109.235137,38.7247894 109.192477,38.7285216 109.168468,38.7571354 L85.0364136,67.5165974 Z" id="Combined-Shape-Copy" transform="translate(56.708026, 53.376932) scale(-1, -1) translate(-56.708026, -53.376932) "></path>
        </g>
        <g id="icon-blue-copy" fill="#2F78B7" stroke="#2F78B7" stroke-width="7.5">
            <rect id="Rectangle-13" transform="translate(86.232639, 36.769079) rotate(-75.000000) translate(-86.232639, -36.769079) " x="86.1650066" y="-4.48092112" width="1" height="82.5" rx="0.5"></rect>
            <path d="M136.776462,32.9289114 L57.0668847,11.5707946 C57.0308049,11.561127 56.9937193,11.5825384 56.9840518,11.6186183 C56.9743842,11.6546981 56.9957956,11.6917837 57.0318754,11.7014512 L136.590099,33.0190131 C136.611452,33.0247344 136.624582,33.0227023 136.643746,33.0108678 L136.776462,32.9289114 Z M137.889161,32.5178855 L138.066685,32.4916914 C138.08506,32.4889802 138.094222,32.4839395 138.107246,32.4684177 L162.124834,3.84537064 C162.148844,3.81675689 162.145112,3.77409709 162.116498,3.75008731 C162.087884,3.72607753 162.045224,3.72980978 162.021215,3.75842352 L137.889161,32.5178855 Z" id="Combined-Shape"></path>
            <path d="M83.9237147,67.9276233 L4.21413764,46.5695065 C4.17805781,46.5598389 4.14097222,46.5812503 4.13130466,46.6173301 C4.12163709,46.65341 4.14304847,46.6904955 4.1791283,46.7001631 L83.7373523,68.017725 C83.7587044,68.0234463 83.7718346,68.0214141 83.7909988,68.0095796 L83.9237147,67.9276233 Z M85.0364136,67.5165974 L85.2139383,67.4904033 C85.2323132,67.487692 85.2414746,67.4826514 85.2544989,67.4671296 L109.272087,38.8440825 C109.296097,38.8154688 109.292365,38.772809 109.263751,38.7487992 C109.235137,38.7247894 109.192477,38.7285216 109.168468,38.7571354 L85.0364136,67.5165974 Z" id="Combined-Shape-Copy" transform="translate(56.708026, 53.376932) scale(-1, -1) translate(-56.708026, -53.376932) "></path>
        </g>
    </g>
</svg>