<?xml version="1.0" encoding="UTF-8"?>
<svg width="445px" height="214px" viewBox="0 0 445 214" version="1.1" xmlns="http://www.w3.org/2000/svg" xmlns:xlink="http://www.w3.org/1999/xlink">
    <!-- Generator: Sketch 56.2 (81672) - https://sketch.com -->
    <title>logo-glygen-136-top-icon-blue</title>
    <desc>Created with Sketch.</desc>
    <g id="logo-glygen-136-top-icon-blue" stroke="none" stroke-width="1" fill="none" fill-rule="evenodd">
        <text id="GlyGen" fill="#2E78B7" font-family="Georgia-Bold, Georgia" font-size="108" font-weight="bold" letter-spacing="6">
            <tspan x="0" y="190">GlyGe</tspan>
            <tspan x="363.966797" y="190" letter-spacing="3.375">n</tspan>
        </text>
        <g id="Group" transform="translate(136.000000, 16.000000)" fill="#2E78B7" fill-rule="nonzero">
            <path d="M131.861405,46.0593901 L44.4476382,21.1804032 C42.1385953,20.4795867 39.8295524,21.8812197 39.1698259,24.3340776 L39.1698259,24.3340776 C38.5100993,26.7869355 39.8295524,29.2397933 42.1385953,29.9406099 L129.552362,54.8195968 C131.861405,55.5204133 134.170448,54.1187803 134.830174,51.6659224 C135.489901,49.2130645 134.170448,46.7602067 131.861405,46.0593901 Z" id="Shape"></path>
            <path d="M174.585374,1.05973575 C172.935569,-0.595382163 170.295882,-0.26435858 168.646077,1.72178292 L143.239087,32.1759526 L57.4492507,9.00430175 C55.1395243,8.34225459 52.829798,9.66634892 52.1698761,11.983514 C51.5099543,14.3006791 52.829798,16.6178442 55.1395243,17.2798913 L142.579166,40.7825658 C143.899009,41.1135893 145.548814,41.1135893 146.538696,40.4515422 C147.198618,40.1205186 147.85854,39.4584714 148.518462,38.7964243 L174.915335,7.34918384 C176.565139,5.03201875 176.235178,2.38383009 174.585374,1.05973575 Z" id="Shape"></path>
            <path d="M120.655124,57.9131776 L33.3435825,34.219204 C32.0256725,33.8854861 30.3782849,33.8854861 29.3898524,34.552922 C28.7308973,34.8866399 28.0719423,35.5540758 27.4129873,36.2215117 L1.05478618,67.9247157 C-0.592601388,69.5933054 -0.263123874,72.2630489 1.71374121,73.9316386 C3.36112878,75.6002283 5.99694889,75.2665103 7.64433646,73.2642027 L33.014105,42.5621525 L118.678259,65.9224081 C120.984601,66.589844 123.290944,65.2549722 123.949899,62.9189466 C124.279376,60.916639 122.961466,58.5806135 120.655124,57.9131776 Z" id="Shape"></path>
        </g>
    </g>
</svg>