<?xml version="1.0" encoding="UTF-8"?>
<svg width="885px" height="141px" viewBox="0 0 885 141" version="1.1" xmlns="http://www.w3.org/2000/svg" xmlns:xlink="http://www.w3.org/1999/xlink">
    <!-- Generator: Sketch 56.2 (81672) - https://sketch.com -->
    <title>logo-glygen-blue 144</title>
    <desc>Created with Sketch.</desc>
    <g id="Logos" stroke="none" stroke-width="1" fill="none" fill-rule="evenodd">
        <g id="logo-glygen-blue-144" transform="translate(-5.000000, -23.000000)" fill="#2E78B7">
            <g>
                <text id="GlyGen" font-family="Georgia-Bold, Georgia" font-size="144" font-weight="bold" letter-spacing="6">
                    <tspan x="0" y="132">GlyGe</tspan>
                    <tspan x="475.289062" y="132">n</tspan>
                </text>
                <g id="Group" transform="translate(659.000000, 34.000000)" fill-rule="nonzero">
                    <path d="M172.880594,59.429799 L58.1500251,27.233463 C55.1194063,26.3265239 52.0887875,28.140402 51.2228965,31.3146887 L51.2228965,31.3146887 C50.3570054,34.4889753 52.0887875,37.663262 55.1194063,38.570201 L169.849975,70.766537 C172.880594,71.6734761 175.911212,69.859598 176.777104,66.6853113 C177.642995,63.5110247 175.911212,60.336738 172.880594,59.429799 Z" id="Shape"></path>
                    <path d="M229.140451,1.39574953 C226.971756,-0.784161873 223.501845,-0.348179593 221.33315,2.26771409 L187.935252,42.3780839 L75.1631279,11.8593243 C72.1269554,10.9873597 69.0907828,12.7312888 68.2233049,15.7831648 C67.355827,18.8350407 69.0907828,21.8869167 72.1269554,22.7588813 L187.067774,53.7136232 C188.80273,54.1496055 190.971425,54.1496055 192.272641,53.2776409 C193.140119,52.8416586 194.007597,51.9696941 194.875075,51.0977295 L229.57419,9.67941286 C231.742885,6.62753689 231.309146,3.13967865 229.140451,1.39574953 Z" id="Shape"></path>
                    <path d="M158.603106,75.4954046 L43.830677,44.2887078 C42.098263,43.8491768 39.9327455,43.8491768 38.633435,44.7282387 C37.767228,45.1677697 36.9010209,46.0468315 36.0348139,46.9258934 L1.38653345,88.6813329 C-0.778984082,90.8789876 -0.345880576,94.3952351 2.25274046,96.5928898 C4.41825799,98.7905445 7.88308604,98.3510136 10.0486036,95.7138279 L43.3975735,55.2769813 L156.004485,86.0441472 C159.03621,86.9232091 162.067934,85.1650853 162.934141,82.0883687 C163.367245,79.4511831 161.634831,76.3744665 158.603106,75.4954046 Z" id="Shape"></path>
                </g>
            </g>
        </g>
    </g>
</svg>