<?xml version="1.0" encoding="UTF-8"?>
<svg width="303px" height="55px" viewBox="0 0 303 55" version="1.1" xmlns="http://www.w3.org/2000/svg" xmlns:xlink="http://www.w3.org/1999/xlink">
    <!-- Generator: Sketch 56.2 (81672) - https://sketch.com -->
    <title>logo-glygen-blue 48</title>
    <desc>Created with Sketch.</desc>
    <g id="logo-glygen-blue-48" stroke="none" stroke-width="1" fill="none" fill-rule="evenodd">
        <g fill="#2E78B7">
            <text id="GlyGen" font-family="Georgia-Bold, Georgia" font-size="48" font-weight="bold" letter-spacing="4.5">
                <tspan x="0" y="44">GlyGe</tspan>
                <tspan x="170.929688" y="44" letter-spacing="3">n</tspan>
            </text>
            <g id="Group" transform="translate(232.000000, 14.000000)" fill-rule="nonzero">
                <path d="M53.7576394,18.5815315 L19.1563568,9.06897769 C18.2423606,8.80101843 17.3283645,9.33693696 17.0672227,10.2747944 L17.0672227,10.2747944 C16.806081,11.2126518 17.3283645,12.1505092 18.2423606,12.4184685 L52.8436432,21.9310223 C53.7576394,22.1989816 54.6716355,21.663063 54.9327773,20.7252056 C55.193919,19.7873482 54.6716355,18.8494908 53.7576394,18.5815315 Z" id="Shape"></path>
                <path d="M70.4295862,0.413555416 C69.7643425,-0.232344259 68.6999524,-0.103164324 68.0347087,0.671915286 L57.7899546,12.5564693 L23.1972785,3.51387385 C22.2659372,3.25551399 21.334596,3.77223372 21.0684984,4.67649327 C20.8024009,5.58075281 21.334596,6.48501236 22.2659372,6.74337223 L57.5238571,15.9151476 C58.0560521,16.0443275 58.7212959,16.0443275 59.1204421,15.7859677 C59.3865396,15.6567877 59.6526372,15.3984279 59.9187347,15.140068 L70.562635,2.86797418 C71.2278788,1.96371464 71.09483,0.930275156 70.4295862,0.413555416 Z" id="Shape"></path>
                <path d="M48.6512595,23.3319717 L13.444993,14.085543 C12.9135776,13.9553117 12.2493084,13.9553117 11.8507469,14.2157744 C11.5850392,14.3460058 11.3193316,14.6064686 11.0536239,14.8669314 L0.425317008,27.2389134 C-0.238952173,27.8900704 -0.106098336,28.9319215 0.691024681,29.5830785 C1.35529386,30.2342354 2.41812455,30.104004 3.08239373,29.3226157 L13.3121391,17.3413278 L47.8541365,26.4575251 C48.7841134,26.7179879 49.7140902,26.1970623 49.9797979,25.2854426 C50.1126517,24.5040543 49.5812364,23.5924345 48.6512595,23.3319717 Z" id="Shape"></path>
            </g>
        </g>
    </g>
</svg>